<?xml version="1.0" standalone="no"?>
<!DOCTYPE svg PUBLIC "-//W3C//DTD SVG 20010904//EN"
 "http://www.w3.org/TR/2001/REC-SVG-20010904/DTD/svg10.dtd">
<svg version="1.0" xmlns="http://www.w3.org/2000/svg"
 width="4186.000000pt" height="1562.000000pt" viewBox="0 0 4186.000000 1562.000000"
 preserveAspectRatio="xMidYMid meet">

<g transform="translate(0.000000,1562.000000) scale(0.100000,-0.100000)"
fill="#000000" stroke="none">
<path d="M23020 13757 l0 -1864 -442 -453 -443 -453 -5 -2101 -5 -2101 -132
-3 -133 -3 0 -2319 0 -2320 -90 0 -90 0 0 44 c0 35 -4 45 -20 49 -20 5 -20 14
-20 4661 l0 4655 -47 3 -48 3 -3 293 -2 292 -25 0 c-24 0 -25 3 -25 60 l0 60
-80 0 -80 0 0 1465 c0 1458 0 1465 -20 1465 -20 0 -20 -7 -20 -1465 l0 -1465
-45 0 -45 0 0 50 0 50 -85 0 -84 0 -3 58 -3 57 -137 3 -138 3 0 49 0 50 -215
0 -215 0 0 -50 0 -50 -260 0 -260 0 0 -60 0 -60 -105 0 -105 0 0 -275 0 -275
-185 0 -185 0 0 -435 0 -435 -120 0 -120 0 0 -1585 0 -1585 -195 0 -195 0 0
-525 0 -525 -170 0 -170 0 0 120 0 120 -290 0 -289 0 -3 98 -3 97 -57 3 -58 3
0 769 0 770 -50 0 -50 0 0 -770 0 -770 -95 0 -94 0 -3 -97 -3 -98 -132 -3
-133 -3 0 -119 0 -120 -240 0 -240 0 0 1651 c0 1642 0 1651 -20 1656 -20 5
-20 14 -20 434 l0 429 -125 0 -125 0 0 130 0 130 -340 0 -340 0 0 -130 0 -131
-92 3 -93 3 -3 158 -3 157 -189 0 -190 0 0 170 0 170 -237 2 -238 3 -3 768
c-2 759 -2 767 -22 767 -20 0 -20 -7 -20 -770 l0 -770 -155 0 -155 0 -2 -167
-3 -168 -207 -3 -208 -2 0 -160 0 -160 -95 0 -95 0 0 -430 0 -430 -50 0 -50 0
-2 -162 c-3 -160 -3 -163 -25 -166 l-23 -3 0 -3055 c0 -1680 -1 -3054 -2
-3054 -2 0 -37 9 -78 20 -41 11 -85 20 -97 20 l-23 0 0 1960 0 1960 -55 0 -55
0 0 315 0 315 -80 0 -80 0 0 165 0 165 -245 0 -245 0 0 770 0 770 -35 0 -35 0
0 -770 0 -771 -132 3 -133 3 -3 163 -2 162 -30 0 -30 0 -2 -162 -3 -163 -137
-3 -138 -3 0 -164 0 -165 -215 0 -215 0 0 -315 0 -315 -150 0 -150 0 -2 -1522
-3 -1522 -100 -18 c-55 -9 -106 -17 -112 -17 -10 -1 -13 153 -13 739 0 651 -2
740 -15 740 -13 0 -15 35 -15 255 l0 254 -102 3 -103 3 -3 73 -3 72 -279 0
-280 0 0 -75 0 -75 -75 0 -75 0 0 95 0 95 -160 0 -160 0 0 100 0 100 -340 0
-339 0 -3 -97 -3 -98 -172 -3 -173 -2 0 -95 0 -95 -80 0 -80 0 0 -255 0 -255
-40 0 -40 0 0 -94 c0 -85 -2 -94 -20 -99 -20 -5 -20 -14 -20 -866 l0 -861 -37
0 c-34 -1 -51 -13 -168 -120 -71 -66 -133 -130 -137 -142 -3 -13 -6 185 -7
440 l-1 462 -95 0 -95 0 0 195 0 195 -135 0 -135 0 0 85 0 85 -360 0 -360 0 0
-85 0 -85 -50 0 -50 0 0 -195 0 -195 -35 0 -35 0 0 -935 0 -935 -30 0 c-23 0
-33 6 -39 23 -10 25 -65 47 -120 47 -26 0 -31 4 -31 25 0 24 -2 25 -69 25
l-70 0 -3 -37 c-3 -36 -5 -38 -38 -38 l-35 0 -3 1093 c-1 716 -6 1092 -12
1092 -6 0 -10 35 -10 85 0 84 0 85 -25 85 l-25 0 0 225 0 225 -50 0 -50 0 0
80 0 80 -110 0 -110 0 0 90 0 90 -220 0 -220 0 0 -90 0 -90 -100 0 -100 0 0
-80 0 -80 -50 0 -50 0 0 65 0 65 -175 0 -175 0 0 -65 0 -65 -65 0 -65 0 0
-225 c0 -143 -4 -225 -10 -225 -7 0 -11 -477 -12 -1398 l-3 -1397 -37 -3 -38
-3 0 -75 0 -74 -70 0 -70 0 0 -35 0 -36 -62 3 -63 3 -3 115 c-1 63 -7 119 -12
124 -6 6 -10 67 -10 137 0 104 -3 128 -15 133 -12 4 -15 29 -15 131 l0 125
-25 0 c-25 0 -25 0 -25 94 0 85 -2 94 -20 99 -19 5 -20 14 -20 161 l0 156
-270 0 -270 0 0 55 0 55 -75 0 -75 0 0 -30 c0 -29 -2 -30 -44 -30 -26 0 -48 6
-56 15 -7 8 -25 15 -41 15 -26 0 -29 4 -29 30 l0 30 -242 -2 -242 -3 -6 -25
c-4 -18 -15 -27 -44 -34 -24 -5 -40 -16 -43 -27 -3 -11 -14 -19 -26 -19 -12 0
-92 -24 -179 -52 -154 -51 -158 -53 -158 -81 0 -15 7 -30 15 -33 17 -7 20 -40
5 -49 -6 -4 -10 -130 -10 -346 l0 -339 -25 0 c-21 0 -25 -5 -25 -30 0 -27 -3
-30 -30 -30 l-30 0 0 -820 0 -821 -152 3 -153 3 -3 73 -3 72 -139 0 -140 0 0
-65 0 -65 -115 0 -115 0 0 85 0 85 -175 0 -175 0 0 -180 0 -180 -185 0 -184 0
-3 -122 -3 -123 -207 -3 -208 -2 0 -109 0 -108 -40 -13 -40 -13 0 -114 0 -113
20930 0 20930 0 0 160 0 160 -337 2 -338 3 -3 248 -2 247 -490 0 -490 0 0 513
0 512 -60 455 c-33 250 -62 461 -65 468 -2 7 -22 12 -45 12 l-40 0 0 110 0
110 -397 0 -398 1 -117 -37 -118 -38 0 -573 0 -573 -247 0 -248 1 -42 53 -43
53 0 162 0 161 -260 0 -260 0 0 -320 0 -320 -490 0 -490 0 0 -50 0 -50 -225 0
-225 0 0 320 0 320 -22 4 c-13 3 -79 12 -148 21 -69 9 -137 18 -152 21 l-28 6
0 1894 c0 1677 -2 1894 -15 1894 -13 0 -15 35 -15 255 l0 255 -105 0 -105 0 0
75 0 75 -280 0 -280 0 0 -75 0 -76 -77 3 -78 3 -3 93 -3 92 -154 0 -155 0 0
100 0 100 -345 0 -345 0 0 -100 0 -100 -170 0 -170 0 0 -95 0 -95 -80 0 -80 0
0 -255 0 -255 -40 0 -40 0 0 -95 c0 -88 -1 -95 -20 -95 -20 0 -20 -7 -20
-1485 l0 -1485 -365 0 -365 0 0 -375 0 -375 -75 0 -75 0 0 1345 0 1345 -35 0
-35 0 -2 198 -3 197 -47 3 -48 3 0 100 0 99 -365 0 -365 0 0 -100 0 -100 -135
0 -135 0 0 -200 0 -200 -100 0 -100 0 0 -1105 c0 -639 -4 -1105 -9 -1105 -5 0
-53 9 -106 20 -53 11 -117 20 -141 20 l-44 0 0 1650 0 1650 -92 0 -93 0 -49
65 -49 65 -73 0 -74 0 0 50 0 50 -305 0 -305 0 0 955 0 955 -155 0 -155 0 0
335 0 335 -215 0 -215 0 0 175 0 174 -137 3 -138 3 -3 168 -2 167 -30 0 -30 0
-2 -167 -3 -168 -132 -3 -133 -3 0 816 0 815 -30 0 -30 0 -2 -812 -3 -813
-247 -3 -248 -2 0 -175 0 -175 -80 0 -80 0 0 -335 0 -335 -55 0 -55 0 0 -965
0 -965 -90 0 -90 0 0 -80 0 -80 -85 0 -85 0 0 55 0 55 -205 0 -205 0 0 -55 0
-55 -100 0 -100 0 0 -1390 0 -1390 -75 0 -75 0 0 -83 c0 -76 -2 -86 -25 -107
l-25 -23 -2 -541 -3 -541 -47 -3 -48 -3 0 130 0 131 -25 0 -25 0 0 2620 0
2620 -320 0 -320 0 0 425 0 425 -65 0 -65 0 0 195 0 195 -360 0 -360 0 0 130
0 130 -432 2 -433 3 -3 68 c-3 67 -3 67 -32 67 l-30 0 0 1963 -1 1962 -289
-295 -289 -295 -1 473 0 472 -45 0 -45 0 0 -521 0 -521 -130 -132 -130 -131 0
1838 0 1837 -25 0 -25 0 0 -1863z m-2990 -1722 l0 -225 -65 0 -65 0 0 218 c0
120 3 222 7 225 3 4 33 7 65 7 l58 0 0 -225z m215 0 l0 -220 -62 -3 -63 -3 0
226 0 226 63 -3 62 -3 0 -220z m215 0 l0 -226 -62 3 -63 3 -3 210 c-1 115 0
215 2 222 4 9 26 13 66 13 l60 0 0 -225z m218 -2 l2 -223 -65 0 -65 0 0 225 0
226 63 -3 62 -3 3 -222z m430 0 l2 -223 -65 0 -65 0 0 218 c0 120 3 222 7 226
4 4 32 6 63 4 l55 -3 3 -222z m-1430 -445 l-3 -73 -100 0 -100 0 -3 73 -3 72
106 0 106 0 -3 -72z m320 0 l-3 -73 -100 0 -100 0 -3 73 -3 72 106 0 106 0 -3
-72z m312 -3 l0 -76 -97 3 -98 3 -3 73 -3 72 101 0 100 0 0 -75z m320 0 l0
-76 -97 3 -98 3 -3 73 -3 72 101 0 100 0 0 -75z m320 0 l0 -75 -100 0 -100 0
0 75 0 75 100 0 100 0 0 -75z m320 0 l0 -75 -100 0 -100 0 0 75 0 75 100 0
100 0 0 -75z m2485 -25 l0 -45 -150 0 -150 0 -3 33 c-6 63 -7 63 155 60 l148
-3 0 -45z m-4077 -202 l-3 -73 -100 0 -100 0 -3 73 -3 72 106 0 106 0 -3 -72z
m320 0 l-3 -73 -100 0 -100 0 -3 73 -3 72 106 0 106 0 -3 -72z m312 -3 l0 -76
-97 3 -98 3 -3 73 -3 72 101 0 100 0 0 -75z m640 0 l0 -75 -100 0 -100 0 0 75
0 75 100 0 100 0 0 -75z m320 0 l0 -75 -100 0 -100 0 0 75 0 75 100 0 100 0 0
-75z m2570 5 l0 -40 -455 0 -455 0 0 33 c0 19 3 37 7 40 3 4 208 7 455 7 l448
0 0 -40z m-4165 -235 l0 -70 -100 0 -100 0 -3 59 c-5 89 -7 87 105 84 l98 -3
0 -70z m320 0 l0 -70 -100 0 -100 0 -3 59 c-5 89 -7 87 105 84 l98 -3 0 -70z
m315 0 l0 -75 -100 0 -100 0 0 75 0 75 100 0 100 0 0 -75z m320 0 l0 -75 -100
0 -100 0 0 75 0 75 100 0 100 0 0 -75z m320 0 l0 -75 -100 0 -100 0 0 75 0 75
100 0 100 0 0 -75z m320 0 l0 -75 -100 0 -100 0 0 75 0 75 100 0 100 0 0 -75z
m1160 -230 l0 -55 -65 0 -65 0 0 55 0 55 65 0 65 0 0 -55z m400 0 l0 -55 -65
0 -65 0 0 55 0 55 65 0 65 0 0 -55z m200 0 l0 -55 -65 0 -65 0 0 55 0 55 65 0
65 0 0 -55z m200 0 l0 -55 -60 0 -60 0 0 55 0 55 60 0 60 0 0 -55z m200 0 l0
-55 -60 0 -60 0 0 55 0 55 60 0 60 0 0 -55z m200 0 l0 -55 -60 0 -60 0 0 55 0
55 60 0 60 0 0 -55z m200 0 l0 -55 -60 0 -60 0 0 55 0 55 60 0 60 0 0 -55z
m-4150 -175 l0 -70 -105 0 -105 0 0 70 0 70 105 0 105 0 0 -70z m320 0 l0 -70
-105 0 -105 0 0 70 0 70 105 0 105 0 0 -70z m310 0 l0 -70 -100 0 -100 0 0 70
0 70 100 0 100 0 0 -70z m320 0 l0 -70 -100 0 -100 0 0 70 0 70 100 0 100 0 0
-70z m320 0 l0 -70 -100 0 -100 0 0 70 0 70 100 0 100 0 0 -70z m320 0 l0 -70
-100 0 -100 0 0 70 0 70 100 0 100 0 0 -70z m1155 -20 l0 -55 -60 0 -60 0 -3
58 -3 58 63 -3 63 -3 0 -55z m200 0 l0 -55 -60 0 -60 0 -3 44 c-5 68 0 72 65
69 l58 -3 0 -55z m200 0 l0 -55 -60 0 -60 0 -3 44 c-5 68 0 72 65 69 l58 -3 0
-55z m203 3 l-3 -58 -60 0 -60 0 -3 44 c-5 67 -1 71 68 71 l61 0 -3 -57z m200
0 l-3 -58 -57 -3 -58 -3 0 61 0 60 60 0 61 0 -3 -57z m200 0 l-3 -58 -57 -3
-58 -3 0 61 0 60 60 0 61 0 -3 -57z m202 -3 l0 -60 -60 0 -60 0 0 60 0 60 60
0 60 0 0 -60z m200 0 l0 -60 -60 0 -60 0 0 60 0 60 60 0 60 0 0 -60z m-1402
-192 l3 -58 -66 0 -65 0 0 53 c0 30 3 57 7 61 4 4 32 6 63 4 l55 -3 3 -57z
m200 0 l3 -58 -66 0 -65 0 0 53 c0 30 3 57 7 61 4 4 32 6 63 4 l55 -3 3 -57z
m200 0 l3 -58 -66 0 -65 0 0 53 c0 30 3 57 7 61 4 4 32 6 63 4 l55 -3 3 -57z
m200 0 l3 -58 -66 0 -65 0 0 53 c0 30 3 57 7 61 4 4 32 6 63 4 l55 -3 3 -57z
m200 0 l3 -58 -61 0 -60 0 0 60 0 61 58 -3 57 -3 3 -57z m402 2 l0 -60 -60 0
-60 0 0 60 0 60 60 0 60 0 0 -60z m200 0 l0 -60 -60 0 -60 0 0 60 0 60 60 0
60 0 0 -60z m-4155 -65 l0 -70 -100 0 -100 0 -3 59 c-5 89 -7 87 105 84 l98
-3 0 -70z m320 0 l0 -70 -100 0 -100 0 -3 59 c-5 89 -7 87 105 84 l98 -3 0
-70z m635 0 l0 -75 -100 0 -100 0 0 75 0 75 100 0 100 0 0 -75z m320 0 l0 -75
-100 0 -100 0 0 75 0 75 100 0 100 0 0 -75z m320 0 l0 -75 -100 0 -100 0 0 75
0 75 100 0 100 0 0 -75z m1160 -130 l0 -55 -65 0 -65 0 0 55 0 55 65 0 65 0 0
-55z m200 0 l0 -55 -65 0 -65 0 0 55 0 55 65 0 65 0 0 -55z m200 0 l0 -55 -65
0 -65 0 0 55 0 55 65 0 65 0 0 -55z m200 0 l0 -55 -65 0 -65 0 0 55 0 55 65 0
65 0 0 -55z m200 0 l0 -55 -60 0 -60 0 0 55 0 55 60 0 60 0 0 -55z m200 0 l0
-55 -60 0 -60 0 0 55 0 55 60 0 60 0 0 -55z m400 0 l0 -55 -60 0 -60 0 0 55 0
55 60 0 60 0 0 -55z m-4150 -145 l0 -70 -105 0 -105 0 0 70 0 70 105 0 105 0
0 -70z m320 0 l0 -70 -105 0 -105 0 0 70 0 70 105 0 105 0 0 -70z m310 0 l0
-70 -100 0 -100 0 0 70 0 70 100 0 100 0 0 -70z m320 0 l0 -70 -100 0 -100 0
0 70 0 70 100 0 100 0 0 -70z m320 0 l0 -70 -100 0 -100 0 0 70 0 70 100 0
100 0 0 -70z m320 0 l0 -70 -100 0 -100 0 0 70 0 70 100 0 100 0 0 -70z m1155
-50 l0 -55 -60 0 -60 0 -3 58 -3 58 63 -3 63 -3 0 -55z m200 0 l0 -55 -60 0
-60 0 -3 44 c-5 68 0 72 65 69 l58 -3 0 -55z m200 0 l0 -55 -60 0 -60 0 -3 44
c-5 68 0 72 65 69 l58 -3 0 -55z m203 3 l-3 -58 -60 0 -60 0 -3 44 c-5 67 -1
71 68 71 l61 0 -3 -57z m200 0 l-3 -58 -57 -3 -58 -3 0 61 0 60 60 0 61 0 -3
-57z m200 0 l-3 -58 -57 -3 -58 -3 0 61 0 60 60 0 61 0 -3 -57z m202 -3 l0
-60 -60 0 -60 0 0 60 0 60 60 0 60 0 0 -60z m200 0 l0 -60 -60 0 -60 0 0 60 0
60 60 0 60 0 0 -60z m-1402 -192 l3 -58 -66 0 -65 0 0 53 c0 30 3 57 7 61 4 4
32 6 63 4 l55 -3 3 -57z m200 0 l3 -58 -66 0 -65 0 0 53 c0 30 3 57 7 61 4 4
32 6 63 4 l55 -3 3 -57z m200 0 l3 -58 -66 0 -65 0 0 53 c0 30 3 57 7 61 4 4
32 6 63 4 l55 -3 3 -57z m200 0 l3 -58 -66 0 -65 0 0 53 c0 30 3 57 7 61 4 4
32 6 63 4 l55 -3 3 -57z m200 0 l3 -58 -61 0 -60 0 0 60 0 61 58 -3 57 -3 3
-57z m200 0 l3 -58 -61 0 -60 0 0 60 0 61 58 -3 57 -3 3 -57z m202 2 l0 -60
-60 0 -60 0 0 60 0 60 60 0 60 0 0 -60z m200 0 l0 -60 -60 0 -60 0 0 60 0 60
60 0 60 0 0 -60z m-4155 -35 l0 -70 -100 0 -100 0 -3 59 c-5 89 -7 87 105 84
l98 -3 0 -70z m320 0 l0 -70 -100 0 -100 0 -3 59 c-5 89 -7 87 105 84 l98 -3
0 -70z m315 0 l0 -75 -100 0 -100 0 0 75 0 75 100 0 100 0 0 -75z m320 0 l0
-75 -100 0 -100 0 0 75 0 75 100 0 100 0 0 -75z m320 0 l0 -75 -100 0 -100 0
0 75 0 75 100 0 100 0 0 -75z m320 0 l0 -75 -100 0 -100 0 0 75 0 75 100 0
100 0 0 -75z m1160 -160 l0 -55 -65 0 -65 0 0 55 0 55 65 0 65 0 0 -55z m400
0 l0 -55 -65 0 -65 0 0 55 0 55 65 0 65 0 0 -55z m200 0 l0 -55 -65 0 -65 0 0
55 0 55 65 0 65 0 0 -55z m200 0 l0 -55 -60 0 -60 0 0 55 0 55 60 0 60 0 0
-55z m200 0 l0 -55 -60 0 -60 0 0 55 0 55 60 0 60 0 0 -55z m200 0 l0 -55 -60
0 -60 0 0 55 0 55 60 0 60 0 0 -55z m200 0 l0 -55 -60 0 -60 0 0 55 0 55 60 0
60 0 0 -55z m-4150 -115 l0 -70 -105 0 -105 0 0 70 0 70 105 0 105 0 0 -70z
m320 0 l0 -70 -105 0 -105 0 0 70 0 70 105 0 105 0 0 -70z m310 0 l0 -70 -100
0 -100 0 0 70 0 70 100 0 100 0 0 -70z m320 0 l0 -70 -100 0 -100 0 0 70 0 70
100 0 100 0 0 -70z m320 0 l0 -70 -100 0 -100 0 0 70 0 70 100 0 100 0 0 -70z
m320 0 l0 -70 -100 0 -100 0 0 70 0 70 100 0 100 0 0 -70z m1155 -80 l0 -55
-60 0 -60 0 -3 58 -3 58 63 -3 63 -3 0 -55z m200 0 l0 -55 -60 0 -60 0 -3 44
c-5 68 0 72 65 69 l58 -3 0 -55z m200 0 l0 -55 -60 0 -60 0 -3 44 c-5 68 0 72
65 69 l58 -3 0 -55z m203 3 l-3 -58 -60 0 -60 0 -3 44 c-5 67 -1 71 68 71 l61
0 -3 -57z m200 0 l-3 -58 -57 -3 -58 -3 0 61 0 60 60 0 61 0 -3 -57z m200 0
l-3 -58 -57 -3 -58 -3 0 61 0 60 60 0 61 0 -3 -57z m202 -3 l0 -60 -60 0 -60
0 0 60 0 60 60 0 60 0 0 -60z m200 0 l0 -60 -60 0 -60 0 0 60 0 60 60 0 60 0
0 -60z m-8885 -160 l0 -145 -615 0 -615 0 -3 134 c-1 74 0 141 2 148 4 11 121
13 618 11 l613 -3 0 -145z m1325 0 l0 -150 -615 0 -615 0 0 150 0 150 615 0
615 0 0 -150z m3405 -35 l0 -70 -100 0 -100 0 -3 59 c-5 89 -7 87 105 84 l98
-3 0 -70z m320 0 l0 -70 -100 0 -100 0 -3 59 c-5 89 -7 87 105 84 l98 -3 0
-70z m315 0 l0 -75 -100 0 -100 0 0 75 0 75 100 0 100 0 0 -75z m320 0 l0 -75
-100 0 -100 0 0 75 0 75 100 0 100 0 0 -75z m320 0 l0 -75 -100 0 -100 0 0 75
0 75 100 0 100 0 0 -75z m320 0 l0 -75 -100 0 -100 0 0 75 0 75 100 0 100 0 0
-75z m1158 3 l3 -58 -66 0 -65 0 0 53 c0 30 3 57 7 61 4 4 32 6 63 4 l55 -3 3
-57z m200 0 l3 -58 -66 0 -65 0 0 53 c0 30 3 57 7 61 4 4 32 6 63 4 l55 -3 3
-57z m200 0 l3 -58 -66 0 -65 0 0 53 c0 30 3 57 7 61 4 4 32 6 63 4 l55 -3 3
-57z m200 0 l3 -58 -66 0 -65 0 0 53 c0 30 3 57 7 61 4 4 32 6 63 4 l55 -3 3
-57z m200 0 l3 -58 -61 0 -60 0 0 60 0 61 58 -3 57 -3 3 -57z m200 0 l3 -58
-61 0 -60 0 0 60 0 61 58 -3 57 -3 3 -57z m202 2 l0 -60 -60 0 -60 0 0 60 0
60 60 0 60 0 0 -60z m200 0 l0 -60 -60 0 -60 0 0 60 0 60 60 0 60 0 0 -60z
m-1400 -195 l0 -55 -65 0 -65 0 0 55 0 55 65 0 65 0 0 -55z m200 0 l0 -55 -65
0 -65 0 0 55 0 55 65 0 65 0 0 -55z m200 0 l0 -55 -65 0 -65 0 0 55 0 55 65 0
65 0 0 -55z m200 0 l0 -55 -65 0 -65 0 0 55 0 55 65 0 65 0 0 -55z m200 0 l0
-55 -60 0 -60 0 0 55 0 55 60 0 60 0 0 -55z m200 0 l0 -55 -60 0 -60 0 0 55 0
55 60 0 60 0 0 -55z m200 0 l0 -55 -60 0 -60 0 0 55 0 55 60 0 60 0 0 -55z
m200 0 l0 -55 -60 0 -60 0 0 55 0 55 60 0 60 0 0 -55z m-4150 -85 l0 -70 -105
0 -105 0 0 70 0 70 105 0 105 0 0 -70z m320 0 l0 -70 -105 0 -105 0 0 70 0 70
105 0 105 0 0 -70z m310 0 l0 -70 -100 0 -100 0 0 70 0 70 100 0 100 0 0 -70z
m320 0 l0 -70 -100 0 -100 0 0 70 0 70 100 0 100 0 0 -70z m320 0 l0 -70 -100
0 -100 0 0 70 0 70 100 0 100 0 0 -70z m320 0 l0 -70 -100 0 -100 0 0 70 0 70
100 0 100 0 0 -70z m-6320 -195 l0 -145 -620 0 -620 0 0 145 0 145 620 0 620
0 0 -145z m1320 0 l0 -145 -615 0 -615 0 0 145 0 145 615 0 615 0 0 -145z
m6155 85 l0 -55 -62 -3 -63 -3 0 61 0 61 63 -3 62 -3 0 -55z m200 0 l0 -55
-60 0 -60 0 -3 44 c-5 68 0 72 65 69 l58 -3 0 -55z m200 0 l0 -55 -60 0 -60 0
-3 44 c-5 68 0 72 65 69 l58 -3 0 -55z m205 0 l0 -61 -62 3 -63 3 -3 44 c-5
66 -1 71 68 71 l60 0 0 -60z m200 0 l0 -60 -60 0 -60 0 0 60 0 60 60 0 60 0 0
-60z m200 0 l0 -60 -60 0 -60 0 0 60 0 60 60 0 60 0 0 -60z m200 0 l0 -60 -60
0 -60 0 0 60 0 60 60 0 60 0 0 -60z m200 35 c0 -24 -3 -25 -60 -25 -57 0 -60
1 -60 25 0 24 3 25 60 25 57 0 60 -1 60 -25z m-4155 -200 l0 -70 -100 0 -100
0 -3 59 c-5 89 -7 87 105 84 l98 -3 0 -70z m320 0 l0 -70 -100 0 -100 0 -3 59
c-5 89 -7 87 105 84 l98 -3 0 -70z m315 0 l0 -75 -100 0 -100 0 0 75 0 75 100
0 100 0 0 -75z m320 0 l0 -75 -100 0 -100 0 0 75 0 75 100 0 100 0 0 -75z
m320 0 l0 -75 -100 0 -100 0 0 75 0 75 100 0 100 0 0 -75z m320 0 l0 -75 -100
0 -100 0 0 75 0 75 100 0 100 0 0 -75z m1158 -27 l3 -58 -66 0 -65 0 0 53 c0
30 3 57 7 61 4 4 32 6 63 4 l55 -3 3 -57z m200 0 l3 -58 -66 0 -65 0 0 53 c0
30 3 57 7 61 4 4 32 6 63 4 l55 -3 3 -57z m200 0 l3 -58 -66 0 -65 0 0 53 c0
30 3 57 7 61 4 4 32 6 63 4 l55 -3 3 -57z m200 0 l3 -58 -66 0 -65 0 0 53 c0
30 3 57 7 61 4 4 32 6 63 4 l55 -3 3 -57z m320 -1 c3 -52 1 -57 -18 -57 -18 0
-20 6 -20 61 0 52 2 60 18 57 13 -2 18 -15 20 -61z m-918 -192 l0 -55 -65 0
-65 0 0 55 0 55 65 0 65 0 0 -55z m200 0 l0 -55 -65 0 -65 0 0 55 0 55 65 0
65 0 0 -55z m400 25 l0 -30 -65 0 -65 0 0 30 0 30 65 0 65 0 0 -30z m200 0 l0
-30 -60 0 -60 0 0 30 0 30 60 0 60 0 0 -30z m120 0 c0 -23 -4 -30 -20 -30 -16
0 -20 7 -20 30 0 23 4 30 20 30 16 0 20 -7 20 -30z m-3670 -80 l0 -70 -105 0
-105 0 0 70 0 70 105 0 105 0 0 -70z m320 0 l0 -70 -105 0 -105 0 0 70 0 70
105 0 105 0 0 -70z m310 0 l0 -70 -100 0 -100 0 0 70 0 70 100 0 100 0 0 -70z
m320 0 l0 -70 -100 0 -100 0 0 70 0 70 100 0 100 0 0 -70z m320 0 l0 -70 -100
0 -100 0 0 70 0 70 100 0 100 0 0 -70z m320 0 l0 -70 -100 0 -100 0 0 70 0 70
100 0 100 0 0 -70z m-6320 -145 l0 -145 -620 0 -620 0 0 145 0 145 620 0 620
0 0 -145z m1320 0 l0 -145 -615 0 -615 0 0 145 0 145 615 0 615 0 0 -145z
m6155 5 l0 -55 -62 -3 -63 -3 0 61 0 61 63 -3 62 -3 0 -55z m200 0 l0 -55 -60
0 -60 0 -3 44 c-5 68 0 72 65 69 l58 -3 0 -55z m200 0 l0 -55 -60 0 -60 0 -3
44 c-5 68 0 72 65 69 l58 -3 0 -55z m-3150 -135 l0 -70 -100 0 -100 0 -3 59
c-5 89 -7 87 105 84 l98 -3 0 -70z m320 0 l0 -70 -100 0 -100 0 -3 59 c-5 89
-7 87 105 84 l98 -3 0 -70z m315 0 l0 -75 -100 0 -100 0 0 75 0 75 100 0 100
0 0 -75z m320 0 l0 -75 -100 0 -100 0 0 75 0 75 100 0 100 0 0 -75z m320 0 l0
-75 -100 0 -100 0 0 75 0 75 100 0 100 0 0 -75z m320 0 l0 -75 -100 0 -100 0
0 75 0 75 100 0 100 0 0 -75z m1158 -57 l3 -58 -66 0 -65 0 0 53 c0 30 3 57 7
61 4 4 32 6 63 4 l55 -3 3 -57z m200 0 l3 -58 -66 0 -65 0 0 53 c0 30 3 57 7
61 4 4 32 6 63 4 l55 -3 3 -57z m197 27 c0 -29 -2 -30 -47 -33 -43 -3 -48 -5
-48 -28 0 -15 -6 -24 -15 -24 -11 0 -15 13 -15 53 0 30 3 57 7 61 4 4 32 6 63
4 54 -3 55 -4 55 -33z m-395 -220 l0 -55 -65 0 -65 0 0 55 0 55 65 0 65 0 0
-55z m300 0 c0 -42 -3 -55 -15 -55 -12 0 -15 13 -15 55 0 42 3 55 15 55 12 0
15 -13 15 -55z m-3050 -25 l0 -70 -105 0 -105 0 0 70 0 70 105 0 105 0 0 -70z
m320 0 l0 -70 -105 0 -105 0 0 70 0 70 105 0 105 0 0 -70z m310 0 l0 -70 -100
0 -100 0 0 70 0 70 100 0 100 0 0 -70z m320 0 l0 -70 -100 0 -100 0 0 70 0 70
100 0 100 0 0 -70z m320 0 l0 -70 -100 0 -100 0 0 70 0 70 100 0 100 0 0 -70z
m320 0 l0 -70 -100 0 -100 0 0 70 0 70 100 0 100 0 0 -70z m-6325 -100 l0
-145 -615 0 -615 0 -3 134 c-1 74 0 141 2 148 4 11 121 13 618 11 l613 -3 0
-145z m1325 0 l0 -150 -615 0 -615 0 0 150 0 150 615 0 615 0 0 -150z m6155
-70 l0 -55 -62 -3 -63 -3 0 61 0 61 63 -3 62 -3 0 -55z m200 0 l0 -55 -60 0
-60 0 -3 44 c-5 68 0 72 65 69 l58 -3 0 -55z m105 -1 c0 -44 -3 -60 -12 -57
-13 5 -23 80 -14 104 13 34 26 10 26 -47z m5920 -159 l0 -170 -155 0 -155 0 0
170 0 170 155 0 155 0 0 -170z m450 0 l0 -170 -155 0 -155 0 0 170 0 170 155
0 155 0 0 -170z m440 0 l0 -170 -155 0 -155 0 0 170 0 170 155 0 155 0 0 -170z
m-9865 55 l0 -70 -100 0 -100 0 -3 59 c-5 89 -7 87 105 84 l98 -3 0 -70z m320
0 l0 -70 -100 0 -100 0 -3 59 c-5 89 -7 87 105 84 l98 -3 0 -70z m315 0 l0
-75 -100 0 -100 0 0 75 0 75 100 0 100 0 0 -75z m320 0 l0 -75 -100 0 -100 0
0 75 0 75 100 0 100 0 0 -75z m320 0 l0 -75 -100 0 -100 0 0 75 0 75 100 0
100 0 0 -75z m320 0 l0 -75 -100 0 -100 0 0 75 0 75 100 0 100 0 0 -75z m1158
-87 l3 -58 -66 0 -65 0 0 53 c0 30 3 57 7 61 4 4 32 6 63 4 l55 -3 3 -57z
m200 0 l3 -58 -66 0 -65 0 0 53 c0 30 3 57 7 61 4 4 32 6 63 4 l55 -3 3 -57z
m102 2 c0 -47 -3 -60 -15 -60 -11 0 -15 13 -15 53 0 30 3 57 7 60 17 17 23 2
23 -53z m-7780 -245 l0 -145 -620 0 -620 0 0 145 0 145 620 0 620 0 0 -145z
m4730 55 l0 -70 -105 0 -105 0 0 70 0 70 105 0 105 0 0 -70z m320 0 l0 -70
-105 0 -105 0 0 70 0 70 105 0 105 0 0 -70z m310 0 l0 -70 -100 0 -100 0 0 70
0 70 100 0 100 0 0 -70z m320 0 l0 -70 -100 0 -100 0 0 70 0 70 100 0 100 0 0
-70z m640 0 l0 -70 -100 0 -100 0 0 70 0 70 100 0 100 0 0 -70z m1160 -5 l0
-55 -65 0 -65 0 0 55 0 55 65 0 65 0 0 -55z m200 0 l0 -55 -65 0 -65 0 0 55 0
55 65 0 65 0 0 -55z m100 0 c0 -42 -3 -55 -15 -55 -12 0 -15 13 -15 55 0 42 3
55 15 55 12 0 15 -13 15 -55z m-11050 -205 l0 -160 -155 0 -155 0 0 160 0 160
155 0 155 0 0 -160z m440 0 l0 -161 -152 3 -153 3 -3 158 -3 157 156 0 155 0
0 -160z m450 0 l0 -160 -155 0 -155 0 0 160 0 160 155 0 155 0 0 -160z m9855
10 l0 -55 -62 -3 -63 -3 0 61 0 61 63 -3 62 -3 0 -55z m200 0 l0 -55 -60 0
-60 0 -3 44 c-5 68 0 72 65 69 l58 -3 0 -55z m105 -1 c0 -44 -3 -60 -12 -57
-13 5 -23 80 -14 104 13 34 26 10 26 -47z m5478 -141 l2 -168 -155 0 -155 0 0
170 0 171 153 -3 152 -3 3 -167z m442 2 l0 -170 -155 0 -155 0 0 163 c0 90 3
167 7 170 3 4 73 7 155 7 l148 0 0 -170z m448 -2 l2 -168 -155 0 -155 0 0 170
0 171 153 -3 152 -3 3 -167z m442 2 l0 -170 -155 0 -155 0 0 163 c0 90 3 167
7 170 3 4 73 7 155 7 l148 0 0 -170z m-9865 65 l0 -70 -100 0 -100 0 -3 59
c-5 89 -7 87 105 84 l98 -3 0 -70z m320 0 l0 -70 -100 0 -100 0 -3 59 c-5 89
-7 87 105 84 l98 -3 0 -70z m315 0 l0 -75 -100 0 -100 0 0 75 0 75 100 0 100
0 0 -75z m320 0 l0 -75 -100 0 -100 0 0 75 0 75 100 0 100 0 0 -75z m320 0 l0
-75 -100 0 -100 0 0 75 0 75 100 0 100 0 0 -75z m320 0 l0 -75 -100 0 -100 0
0 75 0 75 100 0 100 0 0 -75z m1158 -117 l3 -58 -66 0 -65 0 0 53 c0 30 3 57
7 61 4 4 32 6 63 4 l55 -3 3 -57z m200 0 l3 -58 -66 0 -65 0 0 53 c0 30 3 57
7 61 4 4 32 6 63 4 l55 -3 3 -57z m102 2 c0 -47 -3 -60 -15 -60 -11 0 -15 13
-15 53 0 30 3 57 7 60 17 17 23 2 23 -53z m-7780 -165 l0 -145 -620 0 -620 0
0 145 0 145 620 0 620 0 0 -145z m1320 0 l0 -145 -615 0 -615 0 0 145 0 145
615 0 615 0 0 -145z m3410 5 l0 -70 -105 0 -105 0 0 70 0 70 105 0 105 0 0
-70z m320 0 l0 -70 -105 0 -105 0 0 70 0 70 105 0 105 0 0 -70z m310 0 l0 -70
-100 0 -100 0 0 70 0 70 100 0 100 0 0 -70z m320 0 l0 -70 -100 0 -100 0 0 70
0 70 100 0 100 0 0 -70z m320 0 l0 -70 -100 0 -100 0 0 70 0 70 100 0 100 0 0
-70z m320 0 l0 -70 -100 0 -100 0 0 70 0 70 100 0 100 0 0 -70z m4418 -82 l-3
-143 -1337 -3 -1338 -2 0 145 0 145 1340 0 1341 0 -3 -142z m-3258 47 l0 -55
-65 0 -65 0 0 55 0 55 65 0 65 0 0 -55z m200 0 l0 -55 -65 0 -65 0 0 55 0 55
65 0 65 0 0 -55z m100 0 c0 -42 -3 -55 -15 -55 -12 0 -15 13 -15 55 0 42 3 55
15 55 12 0 15 -13 15 -55z m-11050 -155 l0 -160 -155 0 -155 0 0 160 0 160
155 0 155 0 0 -160z m440 0 l0 -160 -155 0 -155 0 0 160 0 160 155 0 155 0 0
-160z m450 0 l0 -160 -155 0 -155 0 0 160 0 160 155 0 155 0 0 -160z m450 0
l0 -160 -155 0 -155 0 0 160 0 160 155 0 155 0 0 -160z m9405 -40 l0 -55 -62
-3 -63 -3 0 61 0 61 63 -3 62 -3 0 -55z m200 0 l0 -55 -60 0 -60 0 -3 44 c-5
68 0 72 65 69 l58 -3 0 -55z m105 -1 c0 -44 -3 -60 -12 -57 -13 5 -23 80 -14
104 13 34 26 10 26 -47z m5478 -126 l-3 -168 -152 -3 -153 -3 0 171 0 170 155
0 155 0 -2 -167z m442 -3 l0 -171 -152 3 -153 3 -3 168 -2 167 155 0 155 0 0
-170z m448 3 l-3 -168 -152 -3 -153 -3 0 171 0 170 155 0 155 0 -2 -167z
m-9420 85 l-3 -73 -100 0 -100 0 -3 73 -3 72 106 0 106 0 -3 -72z m320 0 l-3
-73 -100 0 -100 0 -3 73 -3 72 106 0 106 0 -3 -72z m312 -3 l0 -75 -100 0
-100 0 0 75 0 75 100 0 100 0 0 -75z m320 0 l0 -75 -100 0 -100 0 0 75 0 75
100 0 100 0 0 -75z m320 0 l0 -75 -100 0 -100 0 0 75 0 75 100 0 100 0 0 -75z
m320 0 l0 -75 -100 0 -100 0 0 75 0 75 100 0 100 0 0 -75z m-4360 -230 l0
-175 -75 0 -75 0 0 175 0 175 75 0 75 0 0 -175z m300 0 l0 -175 -75 0 -75 0 0
175 0 175 75 0 75 0 0 -175z m300 0 l0 -175 -75 0 -75 0 0 175 0 175 75 0 75
0 0 -175z m300 0 l0 -175 -75 0 -75 0 0 175 0 175 75 0 75 0 0 -175z m610 0
l0 -175 -75 0 -75 0 0 175 0 175 75 0 75 0 0 -175z m-3475 -5 l0 -145 -615 0
-615 0 -3 134 c-1 74 0 141 2 148 4 11 121 13 618 11 l613 -3 0 -145z m1325 0
l0 -150 -615 0 -615 0 0 150 0 150 615 0 615 0 0 -150z m6160 85 l0 -55 -65 0
-65 0 0 55 0 55 65 0 65 0 0 -55z m200 0 l0 -55 -65 0 -65 0 0 55 0 55 65 0
65 0 0 -55z m100 0 c0 -42 -3 -55 -15 -55 -12 0 -15 13 -15 55 0 42 3 55 15
55 12 0 15 -13 15 -55z m-3050 -125 l0 -70 -105 0 -105 0 0 70 0 70 105 0 105
0 0 -70z m320 0 l0 -70 -105 0 -105 0 0 70 0 70 105 0 105 0 0 -70z m310 0 l0
-70 -100 0 -100 0 0 70 0 70 100 0 100 0 0 -70z m320 0 l0 -70 -100 0 -100 0
0 70 0 70 100 0 100 0 0 -70z m320 0 l0 -70 -100 0 -100 0 0 70 0 70 100 0
100 0 0 -70z m320 0 l0 -70 -100 0 -100 0 0 70 0 70 100 0 100 0 0 -70z
m-9150 -170 l0 -160 -155 0 -155 0 0 153 c0 85 3 157 7 160 3 4 73 7 155 7
l148 0 0 -160z m450 0 l0 -160 -155 0 -155 0 0 160 0 160 155 0 155 0 0 -160z
m448 -2 l3 -158 -156 0 -155 0 0 160 0 161 153 -3 152 -3 3 -157z m9410 105
l-3 -58 -60 0 -60 0 -3 58 -3 57 66 0 66 0 -3 -57z m200 0 l-3 -58 -60 0 -60
0 -3 58 -3 57 66 0 66 0 -3 -57z m102 -4 c0 -81 -24 -77 -28 4 -2 46 0 57 13
57 12 0 15 -13 15 -61z m-3052 -201 l-3 -73 -100 0 -100 0 -3 73 -3 72 106 0
106 0 -3 -72z m632 -3 l0 -75 -100 0 -100 0 0 75 0 75 100 0 100 0 0 -75z
m320 0 l0 -75 -100 0 -100 0 0 75 0 75 100 0 100 0 0 -75z m320 0 l0 -75 -100
0 -100 0 0 75 0 75 100 0 100 0 0 -75z m320 0 l0 -75 -100 0 -100 0 0 75 0 75
100 0 100 0 0 -75z m1155 15 l0 -55 -62 -3 -63 -3 0 61 0 61 63 -3 62 -3 0
-55z m200 0 l0 -55 -60 0 -60 0 -3 44 c-5 68 0 72 65 69 l58 -3 0 -55z m105
-1 c0 -44 -3 -60 -12 -57 -13 5 -23 80 -14 104 13 34 26 10 26 -47z m6370 -44
l0 -105 -75 0 -75 0 0 80 0 80 -80 0 c-79 0 -80 0 -80 25 l0 25 155 0 155 0 0
-105z m440 5 l0 -100 -68 0 c-63 0 -71 -2 -97 -30 -36 -38 -75 -41 -75 -6 0
21 -6 25 -32 28 l-33 3 -3 103 -3 102 156 0 155 0 0 -100z m-13270 -165 l0
-145 -615 0 -615 0 0 145 0 145 615 0 615 0 0 -145z m9418 -2 l3 -143 -1341 0
-1340 0 0 145 0 145 1338 -2 1337 -3 3 -142z m-8780 -80 l-3 -178 -72 -3 -73
-3 0 181 0 180 75 0 75 0 -2 -177z m302 -3 l0 -181 -72 3 -73 3 -3 178 -2 177
75 0 75 0 0 -180z m300 0 l0 -181 -72 3 -73 3 -3 165 c-1 90 0 170 2 177 4 9
28 13 76 13 l70 0 0 -180z m300 0 l0 -181 -72 3 -73 3 -3 165 c-1 90 0 170 2
177 4 9 28 13 76 13 l70 0 0 -180z m305 0 l0 -175 -72 -3 -73 -3 0 181 0 181
73 -3 72 -3 0 -175z m303 3 l-3 -178 -72 -3 -73 -3 0 181 0 180 75 0 75 0 -2
-177z m4012 92 l0 -55 -65 0 -65 0 0 55 0 55 65 0 65 0 0 -55z m200 0 l0 -55
-65 0 -65 0 0 55 0 55 65 0 65 0 0 -55z m100 0 c0 -42 -3 -55 -15 -55 -12 0
-15 13 -15 55 0 42 3 55 15 55 12 0 15 -13 15 -55z m-3052 -92 l3 -73 -106 0
-105 0 0 68 c0 38 3 72 7 76 4 4 50 5 103 4 l95 -3 3 -72z m320 0 l3 -73 -106
0 -105 0 0 68 c0 38 3 72 7 76 4 4 50 5 103 4 l95 -3 3 -72z m312 2 l0 -75
-100 0 -100 0 0 68 c0 38 3 72 7 75 3 4 48 7 100 7 l93 0 0 -75z m320 0 l0
-75 -100 0 -100 0 0 68 c0 38 3 72 7 75 3 4 48 7 100 7 l93 0 0 -75z m320 0
l0 -75 -100 0 -100 0 0 75 0 75 100 0 100 0 0 -75z m320 0 l0 -75 -100 0 -100
0 0 75 0 75 100 0 100 0 0 -75z m-9590 -155 l0 -160 -155 0 -155 0 0 160 0
160 155 0 155 0 0 -160z m440 0 l0 -160 -155 0 -155 0 0 153 c0 85 3 157 7
160 3 4 73 7 155 7 l148 0 0 -160z m450 0 l0 -160 -155 0 -155 0 0 160 0 160
155 0 155 0 0 -160z m448 -2 l3 -158 -156 0 -155 0 0 160 0 161 153 -3 152 -3
3 -157z m9410 55 l-3 -58 -60 0 -60 0 -3 58 -3 57 66 0 66 0 -3 -57z m200 0
l-3 -58 -60 0 -60 0 -3 58 -3 57 66 0 66 0 -3 -57z m102 -4 c0 -81 -24 -77
-28 4 -2 46 0 57 13 57 12 0 15 -13 15 -61z m-13260 -69 l0 -90 -510 0 -510 0
0 90 0 90 510 0 510 0 0 -90z m1090 0 l0 -90 -510 0 -510 0 0 83 c0 46 3 87 7
90 3 4 233 7 510 7 l503 0 0 -90z m24210 -35 l0 -85 -510 0 -510 0 0 85 0 85
510 0 510 0 0 -85z m-15092 -67 l-3 -73 -100 0 -100 0 -3 73 -3 72 106 0 106
0 -3 -72z m320 0 l-3 -73 -100 0 -100 0 -3 73 -3 72 106 0 106 0 -3 -72z m312
-3 l0 -75 -100 0 -100 0 0 75 0 75 100 0 100 0 0 -75z m320 0 l0 -75 -100 0
-100 0 0 75 0 75 100 0 100 0 0 -75z m320 0 l0 -75 -100 0 -100 0 0 75 0 75
100 0 100 0 0 -75z m320 0 l0 -75 -100 0 -100 0 0 75 0 75 100 0 100 0 0 -75z
m1155 -15 l0 -55 -62 -3 -63 -3 0 61 0 61 63 -3 62 -3 0 -55z m200 0 l0 -55
-60 0 -60 0 -3 44 c-5 68 0 72 65 69 l58 -3 0 -55z m105 -1 c0 -44 -3 -60 -12
-57 -13 5 -23 80 -14 104 13 34 26 10 26 -47z m8085 1 l0 -55 -645 0 -645 0
-3 44 c-2 24 -1 50 2 57 5 12 106 14 648 12 l643 -3 0 -55z m-5127 -92 l-3
-143 -1337 -3 -1338 -2 0 145 0 145 1340 0 1341 0 -3 -142z m-10738 -33 l0
-145 -620 0 -620 0 0 145 0 145 620 0 620 0 0 -145z m1320 0 l0 -145 -615 0
-615 0 0 145 0 145 615 0 615 0 0 -145z m12945 50 l0 -50 -552 -3 -553 -2 0
55 0 55 553 -2 552 -3 0 -50z m-19745 -105 l0 -90 -510 0 -510 0 0 90 0 90
510 0 510 0 0 -90z m1090 0 l0 -90 -510 0 -510 0 0 83 c0 46 3 87 7 90 3 4
233 7 510 7 l503 0 0 -90z m17408 38 l-3 -53 -537 -3 -538 -2 0 55 0 55 541 0
540 0 -3 -52z m-11060 -160 l2 -178 -75 0 -75 0 0 180 0 181 73 -3 72 -3 3
-177z m302 2 l0 -180 -75 0 -75 0 0 173 c0 96 3 177 7 180 3 4 37 7 75 7 l68
0 0 -180z m300 0 l0 -181 -72 3 -73 3 -3 165 c-1 90 0 170 2 177 4 9 28 13 76
13 l70 0 0 -180z m605 0 l0 -175 -72 -3 -73 -3 0 181 0 181 73 -3 72 -3 0
-175z m303 -2 l2 -178 -75 0 -75 0 0 180 0 181 73 -3 72 -3 3 -177z m12392
117 l0 -55 -640 0 -640 0 0 55 0 55 640 0 640 0 0 -55z m3960 -30 l0 -85 -510
0 -510 0 0 85 0 85 510 0 510 0 0 -85z m1090 0 l0 -85 -510 0 -510 0 0 85 0
85 510 0 510 0 0 -85z m-13430 20 l0 -55 -65 0 -65 0 0 55 0 55 65 0 65 0 0
-55z m200 0 l0 -55 -65 0 -65 0 0 55 0 55 65 0 65 0 0 -55z m100 0 c0 -42 -3
-55 -15 -55 -12 0 -15 13 -15 55 0 42 3 55 15 55 12 0 15 -13 15 -55z m-3052
-62 l3 -73 -106 0 -105 0 0 68 c0 38 3 72 7 76 4 4 50 5 103 4 l95 -3 3 -72z
m320 0 l3 -73 -106 0 -105 0 0 68 c0 38 3 72 7 76 4 4 50 5 103 4 l95 -3 3
-72z m312 2 l0 -75 -100 0 -100 0 0 68 c0 38 3 72 7 75 3 4 48 7 100 7 l93 0
0 -75z m320 0 l0 -75 -100 0 -100 0 0 68 c0 38 3 72 7 75 3 4 48 7 100 7 l93
0 0 -75z m320 0 l0 -75 -100 0 -100 0 0 75 0 75 100 0 100 0 0 -75z m320 0 l0
-75 -100 0 -100 0 0 75 0 75 100 0 100 0 0 -75z m7945 10 l0 -50 -552 -3 -553
-2 0 55 0 55 553 -2 552 -3 0 -50z m-17537 -147 l3 -158 -156 0 -155 0 0 160
0 161 153 -3 152 -3 3 -157z m442 2 l0 -160 -155 0 -155 0 0 153 c0 85 3 157
7 160 3 4 73 7 155 7 l148 0 0 -160z m448 -2 l3 -158 -156 0 -155 0 0 160 0
161 153 -3 152 -3 3 -157z m450 0 l3 -158 -156 0 -155 0 0 160 0 161 153 -3
152 -3 3 -157z m14950 80 l-3 -53 -537 -3 -538 -2 0 55 0 55 541 0 540 0 -3
-52z m2842 -63 l0 -55 -640 0 -640 0 0 55 0 55 640 0 640 0 0 -55z m-8382 -12
l-3 -58 -60 0 -60 0 -3 58 -3 57 66 0 66 0 -3 -57z m200 0 l-3 -58 -60 0 -60
0 -3 58 -3 57 66 0 66 0 -3 -57z m102 -4 c0 -81 -24 -77 -28 4 -2 46 0 57 13
57 12 0 15 -13 15 -61z m-12170 -89 l0 -90 -507 2 -508 3 -3 88 -3 87 511 0
510 0 0 -90z m15128 -82 l-3 -143 -1337 -3 -1338 -2 0 145 0 145 1340 0 1341
0 -3 -142z m9080 50 l3 -88 -511 0 -510 0 0 90 0 90 508 -2 507 -3 3 -87z
m1092 2 l0 -90 -510 0 -510 0 0 90 0 90 510 0 510 0 0 -90z m-7890 25 l0 -55
-540 0 -540 0 0 55 0 55 540 0 540 0 0 -55z m-8292 -47 l-3 -73 -100 0 -100 0
-3 73 -3 72 106 0 106 0 -3 -72z m320 0 l-3 -73 -100 0 -100 0 -3 73 -3 72
106 0 106 0 -3 -72z m312 -3 l0 -76 -97 3 -98 3 -3 73 -3 72 101 0 100 0 0
-75z m320 0 l0 -76 -97 3 -98 3 -3 73 -3 72 101 0 100 0 0 -75z m320 0 l0 -75
-100 0 -100 0 0 75 0 75 100 0 100 0 0 -75z m320 0 l0 -75 -100 0 -100 0 0 75
0 75 100 0 100 0 0 -75z m-6320 -100 l0 -145 -620 0 -620 0 0 145 0 145 620 0
620 0 0 -145z m1320 0 l0 -145 -615 0 -615 0 0 145 0 145 615 0 615 0 0 -145z
m14540 70 l0 -55 -640 0 -640 0 0 55 0 55 640 0 640 0 0 -55z m-8385 -15 l0
-55 -62 -3 -63 -3 0 61 0 61 63 -3 62 -3 0 -55z m200 0 l0 -55 -60 0 -60 0 -3
44 c-5 68 0 72 65 69 l58 -3 0 -55z m105 -1 c0 -44 -3 -60 -12 -57 -13 5 -23
80 -14 104 13 34 26 10 26 -47z m-16820 -34 l0 -75 -325 0 -325 0 0 75 0 75
325 0 325 0 0 -75z m23305 20 l0 -50 -552 -3 -553 -2 0 55 0 55 553 -2 552 -3
0 -50z m-19745 -185 l0 -90 -510 0 -510 0 0 90 0 90 510 0 510 0 0 -90z m1090
0 l0 -90 -507 2 -508 3 -3 88 -3 87 511 0 510 0 0 -90z m18655 15 l0 -50 -552
-3 -553 -2 0 55 0 55 553 -2 552 -3 0 -50z m-12305 -130 l0 -175 -75 0 -75 0
0 175 0 175 75 0 75 0 0 -175z m600 0 l0 -175 -75 0 -75 0 0 175 0 175 75 0
75 0 0 -175z m300 0 l0 -175 -75 0 -75 0 0 175 0 175 75 0 75 0 0 -175z m310
0 l0 -175 -75 0 -75 0 0 175 0 175 75 0 75 0 0 -175z m300 0 l0 -175 -75 0
-75 0 0 175 0 175 75 0 75 0 0 -175z m4010 120 l0 -55 -65 0 -65 0 0 55 0 55
65 0 65 0 0 -55z m200 0 l0 -55 -65 0 -65 0 0 55 0 55 65 0 65 0 0 -55z m100
0 c0 -42 -3 -55 -15 -55 -12 0 -15 13 -15 55 0 42 3 55 15 55 12 0 15 -13 15
-55z m13130 -35 l0 -90 -510 0 -510 0 0 90 0 90 510 0 510 0 0 -90z m-16182 3
l3 -73 -106 0 -105 0 0 68 c0 38 3 72 7 76 4 4 50 5 103 4 l95 -3 3 -72z m320
0 l3 -73 -106 0 -105 0 0 68 c0 38 3 72 7 76 4 4 50 5 103 4 l95 -3 3 -72z
m312 2 l0 -75 -100 0 -100 0 0 68 c0 38 3 72 7 75 3 4 48 7 100 7 l93 0 0 -75z
m320 0 l0 -75 -100 0 -100 0 0 68 c0 38 3 72 7 75 3 4 48 7 100 7 l93 0 0 -75z
m320 0 l0 -75 -100 0 -100 0 0 75 0 75 100 0 100 0 0 -75z m320 0 l0 -75 -100
0 -100 0 0 75 0 75 100 0 100 0 0 -75z m-9595 -120 l0 -160 -152 -3 -153 -3 0
166 0 166 153 -3 152 -3 0 -160z m445 0 l0 -166 -152 3 -153 3 -3 150 c-1 82
0 155 2 162 4 10 42 13 156 13 l150 0 0 -165z m445 0 l0 -160 -152 -3 -153 -3
0 166 0 166 153 -3 152 -3 0 -160z m450 0 l0 -160 -152 -3 -153 -3 0 166 0
166 153 -3 152 -3 0 -160z m14953 98 l3 -53 -540 0 -541 0 0 55 0 55 538 -2
537 -3 3 -52z m-22748 -48 l0 -75 -330 0 -330 0 0 75 0 75 330 0 330 0 0 -75z
m690 0 l0 -75 -325 0 -325 0 0 75 0 75 325 0 325 0 0 -75z m25738 -87 l-3
-103 -95 0 -95 0 -3 103 -3 102 101 0 101 0 -3 -102z m277 -3 l0 -100 -95 0
-95 0 -3 103 -3 103 98 -3 98 -3 0 -100z m280 0 l0 -100 -97 -3 -98 -3 0 106
0 106 98 -3 97 -3 0 -100z m275 0 l0 -105 -95 0 -95 0 0 105 0 105 95 0 95 0
0 -105z m-3265 20 l0 -50 -552 -3 -553 -2 0 55 0 55 553 -2 552 -3 0 -50z
m1595 5 l0 -50 -640 0 -640 0 0 50 0 50 640 0 640 0 0 -50z m-8382 -27 l-3
-58 -60 0 -60 0 -3 58 -3 57 66 0 66 0 -3 -57z m302 -4 c0 -81 -24 -77 -28 4
-2 46 0 57 13 57 12 0 15 -13 15 -61z m-15970 -49 l0 -100 -95 0 -95 0 0 100
0 100 95 0 95 0 0 -100z m278 -2 l3 -98 -101 0 -100 0 0 100 0 101 98 -3 97
-3 3 -97z m272 2 l0 -100 -95 0 -95 0 0 100 0 100 95 0 95 0 0 -100z m278 -2
l3 -98 -101 0 -100 0 0 93 c0 52 3 97 7 101 4 4 48 5 98 4 l90 -3 3 -97z
m20380 25 l3 -53 -540 0 -541 0 0 55 0 55 538 -2 537 -3 3 -52z m-18498 -78
l0 -85 -510 0 -510 0 0 85 0 85 510 0 510 0 0 -85z m1090 0 l0 -85 -510 0
-510 0 0 85 0 85 510 0 510 0 0 -85z m4390 -60 l0 -145 -620 0 -620 0 0 145 0
145 620 0 620 0 0 -145z m1320 0 l0 -145 -615 0 -615 0 0 145 0 145 615 0 615
0 0 -145z m3408 53 l-3 -73 -100 0 -100 0 -3 73 -3 72 106 0 106 0 -3 -72z
m320 0 l-3 -73 -100 0 -100 0 -3 73 -3 72 106 0 106 0 -3 -72z m312 -3 l0 -76
-97 3 -98 3 -3 73 -3 72 101 0 100 0 0 -75z m320 0 l0 -76 -97 3 -98 3 -3 73
-3 72 101 0 100 0 0 -75z m320 0 l0 -75 -100 0 -100 0 0 75 0 75 100 0 100 0
0 -75z m320 0 l0 -75 -100 0 -100 0 0 75 0 75 100 0 100 0 0 -75z m13500 -25
l0 -90 -510 0 -510 0 0 90 0 90 510 0 510 0 0 -90z m1090 0 l0 -90 -510 0
-510 0 0 90 0 90 510 0 510 0 0 -90z m-30645 -30 l0 -75 -325 0 -325 0 -3 64
c-2 35 -1 70 2 78 5 11 62 13 328 11 l323 -3 0 -75z m693 3 l-3 -78 -322 -3
-323 -2 0 80 0 80 325 0 326 0 -3 -77z m23307 22 l0 -50 -552 -3 -553 -2 0 55
0 55 553 -2 552 -3 0 -50z m1595 -10 l0 -55 -640 0 -640 0 0 55 0 55 640 0
640 0 0 -55z m-8385 -35 l0 -55 -62 -3 -63 -3 0 61 0 61 63 -3 62 -3 0 -55z
m200 0 l0 -55 -60 0 -60 0 -3 44 c-5 68 0 72 65 69 l58 -3 0 -55z m105 -1 c0
-44 -3 -60 -12 -57 -13 5 -23 80 -14 104 13 34 26 10 26 -47z m5238 -6 l3 -53
-540 0 -541 0 0 55 0 55 538 -2 537 -3 3 -52z m3680 -130 l3 -103 -101 0 -100
0 0 98 c0 54 3 102 7 106 4 4 48 5 98 4 l90 -3 3 -102z m277 2 l0 -100 -97 -3
-98 -3 0 99 c0 54 3 102 7 106 4 4 48 5 98 4 l90 -3 0 -100z m280 0 l0 -100
-97 -3 -98 -3 0 106 0 106 98 -3 97 -3 0 -100z m275 0 l0 -105 -95 0 -95 0 0
105 0 105 95 0 95 0 0 -105z m-3260 5 l0 -50 -555 0 -555 0 0 50 0 50 555 0
555 0 0 -50z m-22460 -60 l0 -100 -95 0 -95 0 0 100 0 100 95 0 95 0 0 -100z
m550 0 l0 -100 -95 0 -95 0 0 100 0 100 95 0 95 0 0 -100z m278 3 l-3 -98 -95
0 -95 0 -3 98 -3 97 101 0 101 0 -3 -97z m23222 32 l0 -55 -640 0 -640 0 0 55
0 55 640 0 640 0 0 -55z m-11132 -42 l3 -73 -106 0 -105 0 0 68 c0 38 3 72 7
76 4 4 50 5 103 4 l95 -3 3 -72z m320 0 l3 -73 -106 0 -105 0 0 68 c0 38 3 72
7 76 4 4 50 5 103 4 l95 -3 3 -72z m312 2 l0 -75 -100 0 -100 0 0 68 c0 38 3
72 7 75 3 4 48 7 100 7 l93 0 0 -75z m320 0 l0 -75 -100 0 -100 0 0 68 c0 38
3 72 7 75 3 4 48 7 100 7 l93 0 0 -75z m320 0 l0 -75 -100 0 -100 0 0 75 0 75
100 0 100 0 0 -75z m320 0 l0 -75 -100 0 -100 0 0 75 0 75 100 0 100 0 0 -75z
m-11800 -20 l0 -85 -510 0 -510 0 0 85 0 85 510 0 510 0 0 -85z m1090 0 l0
-85 -510 0 -510 0 0 85 0 85 510 0 510 0 0 -85z m1118 -82 l-3 -158 -152 -3
-153 -3 0 161 0 160 155 0 156 0 -3 -157z m890 0 l-3 -158 -152 -3 -153 -3 0
161 0 160 155 0 156 0 -3 -157z m450 0 l-3 -158 -152 -3 -153 -3 0 161 0 160
155 0 156 0 -3 -157z m9412 102 l0 -55 -65 0 -65 0 0 55 0 55 65 0 65 0 0 -55z
m200 0 l0 -55 -65 0 -65 0 0 55 0 55 65 0 65 0 0 -55z m100 0 c0 -42 -3 -55
-15 -55 -12 0 -15 13 -15 55 0 42 3 55 15 55 12 0 15 -13 15 -55z m-5820 -130
l0 -175 -75 0 -75 0 0 175 0 175 75 0 75 0 0 -175z m300 0 l0 -175 -75 0 -75
0 0 175 0 175 75 0 75 0 0 -175z m300 0 l0 -175 -75 0 -75 0 0 175 0 175 75 0
75 0 0 -175z m300 0 l0 -175 -75 0 -75 0 0 175 0 175 75 0 75 0 0 -175z m310
0 l0 -175 -75 0 -75 0 0 175 0 175 75 0 75 0 0 -175z m300 0 l0 -175 -75 0
-75 0 0 175 0 175 75 0 75 0 0 -175z m-13205 85 l0 -75 -325 0 -325 0 -3 64
c-2 35 -1 70 2 78 5 11 62 13 328 11 l323 -3 0 -75z m29553 -7 l-3 -88 -507
-3 -508 -2 0 90 0 90 510 0 511 0 -3 -87z m1092 -3 l0 -90 -510 0 -510 0 0 90
0 90 510 0 510 0 0 -90z m-10172 -87 l3 -143 -1341 0 -1340 0 0 145 0 145
1338 -2 1337 -3 3 -142z m3527 32 l0 -50 -552 -3 -553 -2 0 55 0 55 553 -2
552 -3 0 -50z m1595 -40 l0 -55 -640 0 -640 0 0 55 0 55 640 0 640 0 0 -55z
m-2840 -5 l0 -50 -540 0 -540 0 0 50 0 50 540 0 540 0 0 -50z m-13020 -125 l0
-145 -620 0 -620 0 0 145 0 145 620 0 620 0 0 -145z m1320 0 l0 -145 -615 0
-615 0 0 145 0 145 615 0 615 0 0 -145z m6158 88 l-3 -58 -60 0 -60 0 -3 58
-3 57 66 0 66 0 -3 -57z m200 0 l-3 -58 -60 0 -60 0 -3 58 -3 57 66 0 66 0 -3
-57z m102 -4 c0 -81 -24 -77 -28 4 -2 46 0 57 13 57 12 0 15 -13 15 -61z
m8920 -79 l0 -100 -100 0 -100 0 0 100 0 100 100 0 100 0 0 -100z m280 0 l0
-100 -100 0 -100 0 0 100 0 100 100 0 100 0 0 -100z m280 0 l0 -100 -100 0
-100 0 0 100 0 100 100 0 100 0 0 -100z m-12532 -2 l-3 -73 -100 0 -100 0 -3
73 -3 72 106 0 106 0 -3 -72z m320 0 l-3 -73 -100 0 -100 0 -3 73 -3 72 106 0
106 0 -3 -72z m312 -3 l0 -76 -97 3 -98 3 -3 73 -3 72 101 0 100 0 0 -75z
m320 0 l0 -76 -97 3 -98 3 -3 73 -3 72 101 0 100 0 0 -75z m320 0 l0 -75 -100
0 -100 0 0 75 0 75 100 0 100 0 0 -75z m320 0 l0 -75 -100 0 -100 0 0 75 0 75
100 0 100 0 0 -75z m-16055 -25 l0 -75 -325 0 -325 0 -3 64 c-2 35 -1 70 2 78
5 11 62 13 328 11 l323 -3 0 -75z m690 0 l0 -75 -322 -3 -323 -2 0 80 0 80
323 -2 322 -3 0 -75z m855 -20 l0 -100 -95 0 -95 0 0 100 0 100 95 0 95 0 0
-100z m278 3 l-3 -98 -97 -3 -98 -3 0 101 0 100 100 0 101 0 -3 -97z m272 -3
l0 -100 -95 0 -95 0 0 100 0 100 95 0 95 0 0 -100z m278 3 l-3 -98 -95 0 -95
0 -3 98 -3 97 101 0 101 0 -3 -97z m21627 42 l0 -50 -552 -3 -553 -2 0 55 0
55 553 -2 552 -3 0 -50z m-19745 -40 l0 -85 -510 0 -510 0 0 85 0 85 510 0
510 0 0 -85z m1090 0 l0 -85 -510 0 -510 0 0 85 0 85 510 0 510 0 0 -85z
m24208 -32 l-3 -88 -507 -3 -508 -2 0 90 0 90 510 0 511 0 -3 -87z m1092 -3
l0 -90 -510 0 -510 0 0 90 0 90 510 0 510 0 0 -90z m-7892 28 l-3 -53 -537 -3
-538 -2 0 55 0 55 541 0 540 0 -3 -52z m2842 -8 l0 -50 -640 0 -640 0 0 50 0
50 640 0 640 0 0 -50z m-8385 -50 l0 -55 -62 -3 -63 -3 0 54 c0 29 3 57 7 61
4 4 32 6 63 4 l55 -3 0 -55z m200 0 l0 -55 -60 0 -60 0 -3 44 c-5 68 0 72 65
69 l58 -3 0 -55z m105 -1 c0 -44 -3 -60 -12 -57 -13 5 -23 80 -14 104 13 34
26 10 26 -47z m6490 -69 l0 -50 -555 0 -555 0 0 50 0 50 555 0 555 0 0 -50z
m-1252 -42 l-3 -53 -537 -3 -538 -2 0 55 0 55 541 0 540 0 -3 -52z m-2280
-110 l-3 -143 -1337 -3 -1338 -2 0 145 0 145 1340 0 1341 0 -3 -142z m-14008
-28 l0 -160 -155 0 -155 0 0 160 0 160 155 0 155 0 0 -160z m440 0 l0 -161
-152 3 -153 3 -3 158 -3 157 156 0 155 0 0 -160z m450 0 l0 -160 -155 0 -155
0 0 160 0 160 155 0 155 0 0 -160z m448 3 l-3 -158 -152 -3 -153 -3 0 161 0
160 155 0 156 0 -3 -157z m6660 80 l3 -73 -106 0 -105 0 0 68 c0 38 3 72 7 76
4 4 50 5 103 4 l95 -3 3 -72z m320 0 l3 -73 -106 0 -105 0 0 68 c0 38 3 72 7
76 4 4 50 5 103 4 l95 -3 3 -72z m312 2 l0 -75 -100 0 -100 0 0 68 c0 38 3 72
7 75 3 4 48 7 100 7 l93 0 0 -75z m320 0 l0 -75 -100 0 -100 0 0 68 c0 38 3
72 7 75 3 4 48 7 100 7 l93 0 0 -75z m320 0 l0 -75 -100 0 -100 0 0 75 0 75
100 0 100 0 0 -75z m320 0 l0 -75 -100 0 -100 0 0 75 0 75 100 0 100 0 0 -75z
m9540 25 l0 -50 -640 0 -640 0 0 50 0 50 640 0 640 0 0 -50z m-25595 -40 l0
-75 -325 0 -325 0 -3 64 c-2 35 -1 70 2 78 5 11 62 13 328 11 l323 -3 0 -75z
m693 -2 l3 -78 -326 0 -325 0 0 80 0 80 323 -2 322 -3 3 -77z m25742 -38 l0
-100 -100 0 -100 0 0 100 0 100 100 0 100 0 0 -100z m280 0 l0 -100 -100 0
-100 0 0 100 0 100 100 0 100 0 0 -100z m280 0 l0 -100 -100 0 -100 0 0 100 0
100 100 0 100 0 0 -100z m270 0 l0 -100 -95 0 -95 0 0 100 0 100 95 0 95 0 0
-100z m-23010 -10 l0 -90 -510 0 -510 0 0 90 0 90 510 0 510 0 0 -90z m12960
35 l0 -55 -65 0 -65 0 0 55 0 55 65 0 65 0 0 -55z m200 0 l0 -55 -65 0 -65 0
0 55 0 55 65 0 65 0 0 -55z m100 0 c0 -42 -3 -55 -15 -55 -12 0 -15 13 -15 55
0 42 3 55 15 55 12 0 15 -13 15 -55z m-5822 -142 l-3 -178 -72 -3 -73 -3 0
181 0 180 75 0 75 0 -2 -177z m302 -3 l0 -181 -72 3 -73 3 -3 178 -2 177 75 0
75 0 0 -180z m300 0 l0 -181 -72 3 -73 3 -3 178 -2 177 75 0 75 0 0 -180z
m300 0 l0 -181 -72 3 -73 3 -3 178 -2 177 75 0 75 0 0 -180z m308 3 l-3 -178
-72 -3 -73 -3 0 181 0 180 75 0 75 0 -2 -177z m300 0 l-3 -178 -72 -3 -73 -3
0 181 0 180 75 0 75 0 -2 -177z m-11660 70 l-3 -98 -92 -3 -93 -3 0 101 0 100
95 0 96 0 -3 -97z m280 0 l-3 -98 -95 0 -95 0 -3 98 -3 97 101 0 101 0 -3 -97z
m272 -3 l0 -100 -95 0 -95 0 0 100 0 100 95 0 95 0 0 -100z m278 3 l-3 -98
-95 0 -95 0 -3 98 -3 97 101 0 101 0 -3 -97z m27182 2 l0 -85 -510 0 -510 0 0
85 0 85 510 0 510 0 0 -85z m1090 0 l0 -85 -510 0 -510 0 0 85 0 85 510 0 510
0 0 -85z m-7892 -17 l-3 -53 -537 -3 -538 -2 0 55 0 55 541 0 540 0 -3 -52z
m-13018 -123 l0 -145 -620 0 -620 0 0 145 0 145 620 0 620 0 0 -145z m1320 0
l0 -145 -615 0 -615 0 0 145 0 145 615 0 615 0 0 -145z m14540 80 l0 -55 -640
0 -640 0 0 55 0 55 640 0 640 0 0 -55z m-8382 -62 l-3 -58 -60 0 -60 0 -3 58
-3 57 66 0 66 0 -3 -57z m200 0 l-3 -58 -60 0 -60 0 -3 58 -3 57 66 0 66 0 -3
-57z m102 -4 c0 -81 -24 -77 -28 4 -2 46 0 57 13 57 12 0 15 -13 15 -61z
m6485 -24 l0 -50 -552 -3 -553 -2 0 55 0 55 553 -2 552 -3 0 -50z m-23997 -27
l-3 -73 -325 0 -325 0 -3 73 -3 72 331 0 331 0 -3 -72z m692 -3 l0 -75 -325 0
-325 0 0 75 0 75 325 0 325 0 0 -75z m13768 3 l-3 -73 -100 0 -100 0 -3 73 -3
72 106 0 106 0 -3 -72z m320 0 l-3 -73 -100 0 -100 0 -3 73 -3 72 106 0 106 0
-3 -72z m312 -3 l0 -76 -97 3 -98 3 -3 73 -3 72 101 0 100 0 0 -75z m320 0 l0
-76 -97 3 -98 3 -3 73 -3 72 101 0 100 0 0 -75z m320 0 l0 -75 -100 0 -100 0
0 75 0 75 100 0 100 0 0 -75z m7015 -10 l0 -50 -537 -3 -538 -2 0 55 0 55 538
-2 537 -3 0 -50z m-18495 -75 l0 -90 -510 0 -510 0 0 90 0 90 510 0 510 0 0
-90z m1090 0 l0 -90 -510 0 -510 0 0 83 c0 46 3 87 7 90 3 4 233 7 510 7 l503
0 0 -90z m21085 -25 l0 -100 -95 0 -95 0 -3 89 c-2 49 0 96 2 103 4 11 27 13
98 11 l93 -3 0 -100z m280 0 l0 -100 -95 0 -95 0 -3 89 c-2 49 0 96 2 103 4
11 27 13 98 11 l93 -3 0 -100z m280 0 l0 -100 -97 -3 -98 -3 0 106 0 106 98
-3 97 -3 0 -100z m275 0 l0 -105 -95 0 -95 0 0 105 0 105 95 0 95 0 0 -105z
m-1670 40 l0 -55 -640 0 -640 0 0 55 0 55 640 0 640 0 0 -55z m3960 -50 l0
-85 -510 0 -510 0 0 85 0 85 510 0 510 0 0 -85z m1090 0 l0 -85 -510 0 -510 0
0 85 0 85 510 0 510 0 0 -85z m-29102 -27 l3 -98 -96 0 -95 0 0 100 0 101 93
-3 92 -3 3 -97z m280 0 l3 -98 -101 0 -100 0 0 93 c0 52 3 97 7 101 4 4 48 5
98 4 l90 -3 3 -97z m272 2 l0 -100 -95 0 -95 0 0 100 0 100 95 0 95 0 0 -100z
m15115 10 l0 -55 -62 -3 -63 -3 0 54 c0 29 3 57 7 61 4 4 32 6 63 4 l55 -3 0
-55z m200 0 l0 -55 -60 0 -60 0 -3 44 c-5 68 0 72 65 69 l58 -3 0 -55z m105
-1 c0 -44 -3 -60 -12 -57 -13 5 -23 80 -14 104 13 34 26 10 26 -47z m2958
-111 l-3 -143 -1337 -3 -1338 -2 0 145 0 145 1340 0 1341 0 -3 -142z m-14008
-88 l0 -160 -155 0 -155 0 0 160 0 160 155 0 155 0 0 -160z m440 0 l0 -161
-152 3 -153 3 -3 158 -3 157 156 0 155 0 0 -160z m450 0 l0 -160 -155 0 -155
0 0 160 0 160 155 0 155 0 0 -160z m448 3 l-3 -158 -152 -3 -153 -3 0 161 0
160 155 0 156 0 -3 -157z m-7798 72 l0 -75 -330 0 -330 0 0 75 0 75 330 0 330
0 0 -75z m690 0 l0 -75 -325 0 -325 0 0 75 0 75 325 0 325 0 0 -75z m13768
-12 l3 -73 -106 0 -105 0 0 68 c0 38 3 72 7 76 4 4 50 5 103 4 l95 -3 3 -72z
m320 0 l3 -73 -106 0 -105 0 0 68 c0 38 3 72 7 76 4 4 50 5 103 4 l95 -3 3
-72z m312 2 l0 -75 -100 0 -100 0 0 68 c0 38 3 72 7 75 3 4 48 7 100 7 l93 0
0 -75z m320 0 l0 -75 -100 0 -100 0 0 68 c0 38 3 72 7 75 3 4 48 7 100 7 l93
0 0 -75z m320 0 l0 -75 -100 0 -100 0 0 75 0 75 100 0 100 0 0 -75z m320 0 l0
-75 -100 0 -100 0 0 75 0 75 100 0 100 0 0 -75z m9540 10 l0 -55 -640 0 -640
0 0 55 0 55 640 0 640 0 0 -55z m-1562 -22 l3 -43 -805 0 -806 0 0 38 c0 21 3
42 7 45 3 4 365 6 802 5 l796 -3 3 -42z m-1658 -18 l0 -35 -395 0 -395 0 0 35
0 35 395 0 395 0 0 -35z m-5160 -30 l0 -55 -65 0 -65 0 0 55 0 55 65 0 65 0 0
-55z m200 0 l0 -55 -65 0 -65 0 0 55 0 55 65 0 65 0 0 -55z m100 0 c0 -42 -3
-55 -15 -55 -12 0 -15 13 -15 55 0 42 3 55 15 55 12 0 15 -13 15 -55z m-13260
-55 l0 -90 -510 0 -510 0 0 90 0 90 510 0 510 0 0 -90z m1090 0 l0 -90 -510 0
-510 0 0 90 0 90 510 0 510 0 0 -90z m6348 -97 l-3 -178 -72 -3 -73 -3 0 181
0 180 75 0 75 0 -2 -177z m302 -3 l0 -181 -72 3 -73 3 -3 178 -2 177 75 0 75
0 0 -180z m600 0 l0 -181 -72 3 -73 3 -3 165 c-1 90 0 170 2 177 4 9 28 13 76
13 l70 0 0 -180z m305 0 l0 -175 -72 -3 -73 -3 0 181 0 181 73 -3 72 -3 0
-175z m303 3 l-3 -178 -72 -3 -73 -3 0 181 0 180 75 0 75 0 -2 -177z m-3468
22 l0 -145 -620 0 -620 0 0 145 0 145 620 0 620 0 0 -145z m1320 0 l0 -145
-615 0 -615 0 0 145 0 145 615 0 615 0 0 -145z m18500 40 l0 -85 -510 0 -510
0 0 85 0 85 510 0 510 0 0 -85z m1090 0 l0 -85 -510 0 -510 0 0 85 0 85 510 0
510 0 0 -85z m-4210 -25 l0 -100 -100 0 -100 0 0 100 0 100 100 0 100 0 0
-100z m278 3 l-3 -98 -97 -3 -98 -3 0 101 0 100 100 0 101 0 -3 -97z m280 0
l-3 -98 -97 -3 -98 -3 0 101 0 100 100 0 101 0 -3 -97z m272 -3 l0 -100 -95 0
-95 0 0 100 0 100 95 0 95 0 0 -100z m-25442 -32 l3 -98 -101 0 -100 0 0 93
c0 52 3 97 7 101 4 4 48 5 98 4 l90 -3 3 -97z m272 2 l0 -100 -95 0 -95 0 0
100 0 100 95 0 95 0 0 -100z m278 -2 l3 -98 -101 0 -100 0 0 93 c0 52 3 97 7
101 4 4 48 5 98 4 l90 -3 3 -97z m23222 32 l0 -50 -640 0 -640 0 0 50 0 50
640 0 640 0 0 -50z m-1560 -5 l0 -45 -805 0 -805 0 0 45 0 45 805 0 805 0 0
-45z m-24030 -70 l0 -75 -330 0 -330 0 0 75 0 75 330 0 330 0 0 -75z m690 0
l0 -75 -325 0 -325 0 0 75 0 75 325 0 325 0 0 -75z m21680 40 l0 -35 -395 0
-395 0 0 35 0 35 395 0 395 0 0 -35z m-5162 -42 l-3 -58 -60 0 -60 0 -3 58 -3
57 66 0 66 0 -3 -57z m200 0 l-3 -58 -60 0 -60 0 -3 58 -3 57 66 0 66 0 -3
-57z m102 -4 c0 -81 -24 -77 -28 4 -2 46 0 57 13 57 12 0 15 -13 15 -61z
m-3052 -21 l-3 -73 -100 0 -100 0 -3 73 -3 72 106 0 106 0 -3 -72z m320 0 l-3
-73 -100 0 -100 0 -3 73 -3 72 106 0 106 0 -3 -72z m312 -3 l0 -76 -97 3 -98
3 -3 73 -3 72 101 0 100 0 0 -75z m320 0 l0 -76 -97 3 -98 3 -3 73 -3 72 101
0 100 0 0 -75z m320 0 l0 -75 -100 0 -100 0 0 75 0 75 100 0 100 0 0 -75z
m320 0 l0 -75 -100 0 -100 0 0 75 0 75 100 0 100 0 0 -75z m4420 -165 l0 -140
-1340 0 -1340 0 0 140 0 140 1340 0 1340 0 0 -140z m5120 80 l0 -50 -640 0
-640 0 0 50 0 50 640 0 640 0 0 -50z m-21340 -50 l0 -90 -510 0 -510 0 0 90 0
90 510 0 510 0 0 -90z m1090 0 l0 -90 -507 2 -508 3 -3 88 -3 87 511 0 510 0
0 -90z m17030 35 l0 -35 -395 0 -395 0 0 35 0 35 395 0 395 0 0 -35z m7178
-67 l3 -88 -511 0 -510 0 0 90 0 90 508 -2 507 -3 3 -87z m-12343 2 l0 -55
-62 -3 -63 -3 0 54 c0 29 3 57 7 61 4 4 32 6 63 4 l55 -3 0 -55z m200 0 l0
-55 -60 0 -60 0 -3 44 c-5 68 0 72 65 69 l58 -3 0 -55z m105 -1 c0 -44 -3 -60
-12 -57 -13 5 -23 80 -14 104 13 34 26 10 26 -47z m8920 -59 l0 -100 -100 0
-100 0 0 100 0 100 100 0 100 0 0 -100z m560 0 l0 -100 -100 0 -100 0 0 100 0
100 100 0 100 0 0 -100z m270 0 l0 -100 -95 0 -95 0 0 100 0 100 95 0 95 0 0
-100z m-27260 -5 l0 -75 -330 0 -330 0 0 75 0 75 330 0 330 0 0 -75z m690 0
l0 -75 -325 0 -325 0 0 75 0 75 325 0 325 0 0 -75z m850 -25 l0 -100 -95 0
-95 0 0 100 0 100 95 0 95 0 0 -100z m278 -2 l3 -98 -101 0 -100 0 0 100 0
101 98 -3 97 -3 3 -97z m272 2 l0 -100 -95 0 -95 0 0 100 0 100 95 0 95 0 0
-100z m278 -2 l3 -98 -101 0 -100 0 0 93 c0 52 3 97 7 101 4 4 48 5 98 4 l90
-3 3 -97z m4092 -58 l0 -160 -155 0 -155 0 0 160 0 160 155 0 155 0 0 -160z
m440 0 l0 -160 -155 0 -155 0 0 160 0 160 155 0 155 0 0 -160z m450 0 l0 -160
-155 0 -155 0 0 160 0 160 155 0 155 0 0 -160z m450 0 l0 -160 -155 0 -155 0
0 160 0 160 155 0 155 0 0 -160z m6658 43 l3 -73 -106 0 -105 0 0 68 c0 38 3
72 7 76 4 4 50 5 103 4 l95 -3 3 -72z m320 0 l3 -73 -106 0 -105 0 0 68 c0 38
3 72 7 76 4 4 50 5 103 4 l95 -3 3 -72z m312 2 l0 -75 -100 0 -100 0 0 68 c0
38 3 72 7 75 3 4 48 7 100 7 l93 0 0 -75z m320 0 l0 -75 -100 0 -100 0 0 68
c0 38 3 72 7 75 3 4 48 7 100 7 l93 0 0 -75z m320 0 l0 -75 -100 0 -100 0 0
75 0 75 100 0 100 0 0 -75z m320 0 l0 -75 -100 0 -100 0 0 75 0 75 100 0 100
0 0 -75z m7980 30 l0 -45 -805 0 -805 0 0 45 0 45 805 0 805 0 0 -45z m1560
-30 l0 -55 -640 0 -640 0 0 55 0 55 640 0 640 0 0 -55z m-3220 0 l0 -35 -395
0 -395 0 0 35 0 35 395 0 395 0 0 -35z m-12640 -140 l0 -145 -620 0 -620 0 0
145 0 145 620 0 620 0 0 -145z m1320 0 l0 -145 -615 0 -615 0 0 145 0 145 615
0 615 0 0 -145z m6160 50 l0 -55 -65 0 -65 0 0 55 0 55 65 0 65 0 0 -55z m200
0 l0 -55 -65 0 -65 0 0 55 0 55 65 0 65 0 0 -55z m100 0 c0 -42 -3 -55 -15
-55 -12 0 -15 13 -15 55 0 42 3 55 15 55 12 0 15 -13 15 -55z m-13260 -75 l0
-90 -510 0 -510 0 0 90 0 90 510 0 510 0 0 -90z m1090 0 l0 -90 -507 2 -508 3
-3 88 -3 87 511 0 510 0 0 -90z m6650 -90 l0 -180 -75 0 -75 0 0 173 c0 96 3
177 7 180 3 4 37 7 75 7 l68 0 0 -180z m300 0 l0 -181 -72 3 -73 3 -3 165 c-1
90 0 170 2 177 4 9 28 13 76 13 l70 0 0 -180z m300 0 l0 -181 -72 3 -73 3 -3
165 c-1 90 0 170 2 177 4 9 28 13 76 13 l70 0 0 -180z m305 0 l0 -175 -72 -3
-73 -3 0 181 0 181 73 -3 72 -3 0 -175z m303 -2 l2 -178 -75 0 -75 0 0 180 0
181 73 -3 72 -3 3 -177z m10832 117 l0 -45 -805 0 -805 0 0 45 0 45 805 0 805
0 0 -45z m5518 -57 l3 -88 -511 0 -510 0 0 90 0 90 508 -2 507 -3 3 -87z
m1092 2 l0 -90 -510 0 -510 0 0 90 0 90 510 0 510 0 0 -90z m-5050 5 l0 -55
-640 0 -640 0 0 55 0 55 640 0 640 0 0 -55z m-24900 -30 l0 -75 -325 0 -325 0
0 75 0 75 325 0 325 0 0 -75z m21680 40 l0 -35 -395 0 -395 0 0 35 0 35 395 0
395 0 0 -35z m4060 -105 l0 -100 -100 0 -100 0 0 100 0 100 100 0 100 0 0
-100z m278 -2 l3 -98 -101 0 -100 0 0 100 0 101 98 -3 97 -3 3 -97z m280 0 l3
-98 -101 0 -100 0 0 100 0 101 98 -3 97 -3 3 -97z m272 2 l0 -100 -95 0 -95 0
0 100 0 100 95 0 95 0 0 -100z m-12802 8 l-3 -73 -100 0 -100 0 -3 73 -3 72
106 0 106 0 -3 -72z m320 0 l-3 -73 -100 0 -100 0 -3 73 -3 72 106 0 106 0 -3
-72z m312 -3 l0 -76 -97 3 -98 3 -3 73 -3 72 101 0 100 0 0 -75z m320 0 l0
-76 -97 3 -98 3 -3 73 -3 72 101 0 100 0 0 -75z m320 0 l0 -75 -100 0 -100 0
0 75 0 75 100 0 100 0 0 -75z m320 0 l0 -75 -100 0 -100 0 0 75 0 75 100 0
100 0 0 -75z m-14510 -35 l0 -100 -95 0 -95 0 0 100 0 100 95 0 95 0 0 -100z
m280 0 l0 -100 -100 0 -100 0 0 100 0 100 100 0 100 0 0 -100z m270 0 l0 -100
-95 0 -95 0 0 100 0 100 95 0 95 0 0 -100z m280 0 l0 -100 -100 0 -100 0 0
100 0 100 100 0 100 0 0 -100z m14838 33 l-3 -58 -60 0 -60 0 -3 58 -3 57 66
0 66 0 -3 -57z m200 0 l-3 -58 -60 0 -60 0 -3 58 -3 57 66 0 66 0 -3 -57z
m102 -4 c0 -81 -24 -77 -28 4 -2 46 0 57 13 57 12 0 15 -13 15 -61z m6520 -24
l0 -45 -805 0 -805 0 0 45 0 45 805 0 805 0 0 -45z m-1660 -40 l0 -35 -395 0
-395 0 0 35 0 35 395 0 395 0 0 -35z m-18120 -110 l0 -85 -510 0 -510 0 0 85
0 85 510 0 510 0 0 -85z m1090 0 l0 -85 -510 0 -510 0 0 85 0 85 510 0 510 0
0 -85z m-5342 -22 l3 -73 -331 0 -330 0 0 68 c0 38 3 72 7 75 4 4 151 6 327 5
l321 -3 3 -72z m692 2 l0 -75 -325 0 -325 0 0 75 0 75 325 0 325 0 0 -75z
m28858 -12 l-3 -88 -507 -3 -508 -2 0 90 0 90 510 0 511 0 -3 -87z m1092 -3
l0 -90 -510 0 -510 0 0 90 0 90 510 0 510 0 0 -90z m-24180 -80 l0 -160 -155
0 -155 0 0 160 0 160 155 0 155 0 0 -160z m440 0 l0 -160 -155 0 -155 0 0 160
0 160 155 0 155 0 0 -160z m450 0 l0 -160 -155 0 -155 0 0 160 0 160 155 0
155 0 0 -160z m450 0 l0 -160 -155 0 -155 0 0 160 0 160 155 0 155 0 0 -160z
m9405 100 l0 -55 -62 -3 -63 -3 0 54 c0 29 3 57 7 61 4 4 32 6 63 4 l55 -3 0
-55z m200 0 l0 -55 -60 0 -60 0 -3 44 c-5 68 0 72 65 69 l58 -3 0 -55z m105
-1 c0 -44 -3 -60 -12 -57 -13 5 -23 80 -14 104 13 34 26 10 26 -47z m-3052
-76 l3 -73 -106 0 -105 0 0 68 c0 38 3 72 7 76 4 4 50 5 103 4 l95 -3 3 -72z
m320 0 l3 -73 -106 0 -105 0 0 68 c0 38 3 72 7 76 4 4 50 5 103 4 l95 -3 3
-72z m312 2 l0 -75 -100 0 -100 0 0 68 c0 38 3 72 7 75 3 4 48 7 100 7 l93 0
0 -75z m320 0 l0 -75 -100 0 -100 0 0 68 c0 38 3 72 7 75 3 4 48 7 100 7 l93
0 0 -75z m320 0 l0 -75 -100 0 -100 0 0 75 0 75 100 0 100 0 0 -75z m320 0 l0
-75 -100 0 -100 0 0 75 0 75 100 0 100 0 0 -75z m6320 25 l0 -40 -395 0 -395
0 0 40 0 40 395 0 395 0 0 -40z m-12640 -125 l0 -145 -620 0 -620 0 0 145 0
145 620 0 620 0 0 -145z m1320 0 l0 -145 -615 0 -615 0 0 145 0 145 615 0 615
0 0 -145z m14540 85 l0 -50 -640 0 -640 0 0 50 0 50 640 0 640 0 0 -50z m835
-55 l0 -100 -95 0 -95 0 -3 89 c-2 49 0 96 2 103 4 11 27 13 98 11 l93 -3 0
-100z m280 0 l0 -100 -95 0 -95 0 -3 89 c-2 49 0 96 2 103 4 11 27 13 98 11
l93 -3 0 -100z m280 0 l0 -100 -97 -3 -98 -3 0 106 0 106 98 -3 97 -3 0 -100z
m275 0 l0 -105 -95 0 -95 0 0 105 0 105 95 0 95 0 0 -105z m-25720 -25 l0
-100 -95 0 -95 0 0 100 0 100 95 0 95 0 0 -100z m278 3 l-3 -98 -97 -3 -98 -3
0 101 0 100 100 0 101 0 -3 -97z m272 -3 l0 -100 -95 0 -95 0 0 100 0 100 95
0 95 0 0 -100z m278 3 l-3 -98 -95 0 -95 0 -3 98 -3 97 101 0 101 0 -3 -97z
m21657 -3 l0 -45 -800 0 -800 0 -3 33 c-7 67 -71 62 805 60 l798 -3 0 -45z
m-6815 -25 l0 -55 -65 0 -65 0 0 55 0 55 65 0 65 0 0 -55z m200 0 l0 -55 -65
0 -65 0 0 55 0 55 65 0 65 0 0 -55z m100 0 c0 -42 -3 -55 -15 -55 -12 0 -15
13 -15 55 0 42 3 55 15 55 12 0 15 -13 15 -55z m-17515 -75 l0 -75 -325 0
-325 0 -3 64 c-2 35 -1 70 2 78 5 11 62 13 328 11 l323 -3 0 -75z m693 3 l-3
-78 -322 -3 -323 -2 0 80 0 80 325 0 326 0 -3 -77z m21682 42 l0 -35 -395 0
-395 0 0 35 0 35 395 0 395 0 0 -35z m-18120 -60 l0 -85 -510 0 -510 0 0 85 0
85 510 0 510 0 0 -85z m1090 0 l0 -85 -510 0 -510 0 0 85 0 85 510 0 510 0 0
-85z m6350 -90 l0 -175 -75 0 -75 0 0 175 0 175 75 0 75 0 0 -175z m300 0 l0
-175 -75 0 -75 0 0 175 0 175 75 0 75 0 0 -175z m300 0 l0 -175 -75 0 -75 0 0
175 0 175 75 0 75 0 0 -175z m300 0 l0 -175 -75 0 -75 0 0 175 0 175 75 0 75
0 0 -175z m310 0 l0 -175 -75 0 -75 0 0 175 0 175 75 0 75 0 0 -175z m300 0
l0 -175 -75 0 -75 0 0 175 0 175 75 0 75 0 0 -175z m7265 20 l0 -140 -1337 -3
-1338 -2 0 145 0 145 1338 -2 1337 -3 0 -140z m5125 80 l0 -55 -640 0 -640 0
0 55 0 55 640 0 640 0 0 -55z m5050 -45 l0 -90 -510 0 -510 0 0 90 0 90 510 0
510 0 0 -90z m-6612 -17 l3 -43 -805 0 -806 0 0 38 c0 21 3 42 7 45 3 4 365 6
802 5 l796 -3 3 -42z m-6820 -50 l-3 -58 -60 0 -60 0 -3 58 -3 57 66 0 66 0
-3 -57z m200 0 l-3 -58 -60 0 -60 0 -3 58 -3 57 66 0 66 0 -3 -57z m102 -4 c0
-81 -24 -77 -28 4 -2 46 0 57 13 57 12 0 15 -13 15 -61z m4860 -4 l0 -35 -395
0 -395 0 0 35 0 35 395 0 395 0 0 -35z m4060 -85 l0 -100 -100 0 -100 0 0 100
0 100 100 0 100 0 0 -100z m278 3 l-3 -98 -97 -3 -98 -3 0 101 0 100 100 0
101 0 -3 -97z m280 0 l-3 -98 -97 -3 -98 -3 0 101 0 100 100 0 101 0 -3 -97z
m272 -3 l0 -100 -95 0 -95 0 0 100 0 100 95 0 95 0 0 -100z m-13112 18 l-3
-73 -100 0 -100 0 -3 73 -3 72 106 0 106 0 -3 -72z m310 0 l-3 -73 -100 0
-100 0 -3 73 -3 72 106 0 106 0 -3 -72z m320 0 l-3 -73 -100 0 -100 0 -3 73
-3 72 106 0 106 0 -3 -72z m312 -3 l0 -76 -97 3 -98 3 -3 73 -3 72 101 0 100
0 0 -75z m320 0 l0 -76 -97 3 -98 3 -3 73 -3 72 101 0 100 0 0 -75z m320 0 l0
-75 -100 0 -100 0 0 75 0 75 100 0 100 0 0 -75z m320 0 l0 -75 -100 0 -100 0
0 75 0 75 100 0 100 0 0 -75z m308 3 l-3 -73 -100 0 -100 0 -3 73 -3 72 106 0
106 0 -3 -72z m-14820 -35 l-3 -98 -92 -3 -93 -3 0 101 0 100 95 0 96 0 -3
-97z m280 0 l-3 -98 -95 0 -95 0 -3 98 -3 97 101 0 101 0 -3 -97z m272 -3 l0
-100 -95 0 -95 0 0 100 0 100 95 0 95 0 0 -100z m278 3 l-3 -98 -95 0 -95 0
-3 98 -3 97 101 0 101 0 -3 -97z m23222 32 l0 -55 -640 0 -640 0 0 55 0 55
640 0 640 0 0 -55z m-25595 -65 l0 -75 -325 0 -325 0 -3 64 c-2 35 -1 70 2 78
5 11 62 13 328 11 l323 -3 0 -75z m24035 25 l0 -45 -805 0 -805 0 0 45 0 45
805 0 805 0 0 -45z m-17570 -125 l0 -160 -155 0 -155 0 0 160 0 160 155 0 155
0 0 -160z m440 0 l0 -160 -155 0 -155 0 0 153 c0 85 3 157 7 160 3 4 73 7 155
7 l148 0 0 -160z m450 0 l0 -160 -155 0 -155 0 0 160 0 160 155 0 155 0 0
-160z m448 -2 l3 -158 -156 0 -155 0 0 160 0 161 153 -3 152 -3 3 -157z
m-3548 47 l0 -85 -510 0 -510 0 0 85 0 85 510 0 510 0 0 -85z m1090 0 l0 -85
-510 0 -510 0 0 85 0 85 510 0 510 0 0 -85z m11865 5 l0 -55 -62 -3 -63 -3 0
54 c0 29 3 57 7 61 4 4 32 6 63 4 l55 -3 0 -55z m200 0 l0 -55 -60 0 -60 0 -3
44 c-5 68 0 72 65 69 l58 -3 0 -55z m105 -1 c0 -44 -3 -60 -12 -57 -13 5 -23
80 -14 104 13 34 26 10 26 -47z m-6460 -94 l0 -145 -615 0 -615 0 0 145 0 145
615 0 615 0 0 -145z m18500 60 l0 -85 -510 0 -510 0 0 85 0 85 510 0 510 0 0
-85z m1090 0 l0 -85 -510 0 -510 0 0 85 0 85 510 0 510 0 0 -85z m-5050 -40
l0 -55 -640 0 -640 0 0 55 0 55 640 0 640 0 0 -55z m-1560 -20 l0 -45 -805 0
-805 0 0 45 0 45 805 0 805 0 0 -45z m-9880 -55 l0 -70 -105 0 -105 0 0 70 0
70 105 0 105 0 0 -70z m630 0 l0 -70 -105 0 -105 0 0 70 0 70 105 0 105 0 0
-70z m310 0 l0 -70 -100 0 -100 0 0 70 0 70 100 0 100 0 0 -70z m320 0 l0 -70
-100 0 -100 0 0 70 0 70 100 0 100 0 0 -70z m320 0 l0 -70 -100 0 -100 0 0 70
0 70 100 0 100 0 0 -70z m320 0 l0 -70 -100 0 -100 0 0 70 0 70 100 0 100 0 0
-70z m310 0 l0 -70 -105 0 -105 0 0 70 0 70 105 0 105 0 0 -70z m4108 -92 l-3
-143 -1337 -3 -1338 -2 0 145 0 145 1340 0 1341 0 -3 -142z m-20473 32 l0 -75
-325 0 -325 0 -3 64 c-2 35 -1 70 2 78 5 11 62 13 328 11 l323 -3 0 -75z m693
-2 l3 -78 -326 0 -325 0 0 80 0 80 323 -2 322 -3 3 -77z m21682 47 l0 -35
-395 0 -395 0 0 35 0 35 395 0 395 0 0 -35z m4060 -65 l0 -100 -100 0 -100 0
0 100 0 100 100 0 100 0 0 -100z m280 0 l0 -100 -100 0 -100 0 0 100 0 100
100 0 100 0 0 -100z m280 0 l0 -100 -100 0 -100 0 0 100 0 100 100 0 100 0 0
-100z m270 0 l0 -100 -95 0 -95 0 0 100 0 100 95 0 95 0 0 -100z m-10050 35
l0 -55 -65 0 -65 0 0 55 0 55 65 0 65 0 0 -55z m200 0 l0 -55 -65 0 -65 0 0
55 0 55 65 0 65 0 0 -55z m100 0 c0 -42 -3 -55 -15 -55 -12 0 -15 13 -15 55 0
42 3 55 15 55 12 0 15 -13 15 -55z m-15972 -52 l-3 -98 -92 -3 -93 -3 0 101 0
100 95 0 96 0 -3 -97z m280 0 l-3 -98 -95 0 -95 0 -3 98 -3 97 101 0 101 0 -3
-97z m550 0 l-3 -98 -95 0 -95 0 -3 98 -3 97 101 0 101 0 -3 -97z m2972 -53
l0 -90 -510 0 -510 0 0 83 c0 46 3 87 7 90 3 4 233 7 510 7 l503 0 0 -90z
m6350 -85 l0 -175 -75 0 -75 0 0 175 0 175 75 0 75 0 0 -175z m300 0 l0 -175
-75 0 -75 0 0 175 0 175 75 0 75 0 0 -175z m300 0 l0 -175 -75 0 -75 0 0 175
0 175 75 0 75 0 0 -175z m300 0 l0 -175 -75 0 -75 0 0 175 0 175 75 0 75 0 0
-175z m310 0 l0 -175 -75 0 -75 0 0 175 0 175 75 0 75 0 0 -175z m12690 120
l0 -55 -640 0 -640 0 0 55 0 55 640 0 640 0 0 -55z m-1560 0 l0 -45 -805 0
-805 0 0 45 0 45 805 0 805 0 0 -45z m5520 -70 l0 -85 -510 0 -510 0 0 85 0
85 510 0 510 0 0 -85z m1090 0 l0 -85 -510 0 -510 0 0 85 0 85 510 0 510 0 0
-85z m-8270 0 l0 -35 -395 0 -395 0 0 35 0 35 395 0 395 0 0 -35z m-4965 -55
l0 -55 -60 0 -60 0 -3 44 c-5 68 0 72 65 69 l58 -3 0 -55z m105 -1 c0 -44 -3
-60 -12 -57 -13 5 -23 80 -14 104 13 34 26 10 26 -47z m-3362 -26 l3 -73 -106
0 -105 0 0 68 c0 38 3 72 7 76 4 4 50 5 103 4 l95 -3 3 -72z m310 0 l3 -73
-106 0 -105 0 0 68 c0 38 3 72 7 76 4 4 50 5 103 4 l95 -3 3 -72z m320 0 l3
-73 -106 0 -105 0 0 68 c0 38 3 72 7 76 4 4 50 5 103 4 l95 -3 3 -72z m312 2
l0 -75 -100 0 -100 0 0 68 c0 38 3 72 7 75 3 4 48 7 100 7 l93 0 0 -75z m320
0 l0 -75 -100 0 -100 0 0 68 c0 38 3 72 7 75 3 4 48 7 100 7 l93 0 0 -75z
m640 0 l0 -75 -100 0 -100 0 0 75 0 75 100 0 100 0 0 -75z m308 -2 l3 -73
-106 0 -105 0 0 68 c0 38 3 72 7 76 4 4 50 5 103 4 l95 -3 3 -72z m-16363 -53
l0 -75 -325 0 -325 0 -3 64 c-2 35 -1 70 2 78 5 11 62 13 328 11 l323 -3 0
-75z m693 -2 l3 -78 -326 0 -325 0 0 80 0 80 323 -2 322 -3 3 -77z m23342 37
l0 -45 -805 0 -805 0 0 45 0 45 805 0 805 0 0 -45z m-14302 -162 l-3 -148
-615 0 -615 0 -3 148 -3 147 621 0 621 0 -3 -147z m1322 -3 l0 -150 -615 0
-615 0 0 150 0 150 615 0 615 0 0 -150z m15380 40 l0 -100 -100 0 -100 0 0
100 0 100 100 0 100 0 0 -100z m278 -2 l3 -98 -101 0 -100 0 0 100 0 101 98
-3 97 -3 3 -97z m552 2 l0 -100 -95 0 -95 0 0 100 0 100 95 0 95 0 0 -100z
m-25722 -12 l3 -98 -96 0 -95 0 0 100 0 101 93 -3 92 -3 3 -97z m280 0 l3 -98
-101 0 -100 0 0 93 c0 52 3 97 7 101 4 4 48 5 98 4 l90 -3 3 -97z m272 2 l0
-100 -95 0 -95 0 0 100 0 100 95 0 95 0 0 -100z m278 -2 l3 -98 -101 0 -100 0
0 93 c0 52 3 97 7 101 4 4 48 5 98 4 l90 -3 3 -97z m20002 62 l0 -40 -395 0
-395 0 0 40 0 40 395 0 395 0 0 -40z m-18120 -90 l0 -90 -510 0 -510 0 0 90 0
90 510 0 510 0 0 -90z m1090 0 l0 -90 -510 0 -510 0 0 83 c0 46 3 87 7 90 3 4
233 7 510 7 l503 0 0 -90z m11868 18 l3 -58 -66 0 -65 0 0 53 c0 30 3 57 7 61
4 4 32 6 63 4 l55 -3 3 -57z m200 0 l3 -58 -66 0 -65 0 0 53 c0 30 3 57 7 61
4 4 32 6 63 4 l55 -3 3 -57z m102 2 c0 -47 -3 -60 -15 -60 -11 0 -15 13 -15
53 0 30 3 57 7 60 17 17 23 2 23 -53z m12040 -55 l0 -85 -510 0 -510 0 0 85 0
85 510 0 510 0 0 -85z m1090 0 l0 -85 -510 0 -510 0 0 85 0 85 510 0 510 0 0
-85z m-6612 33 l-3 -43 -800 0 -800 0 -3 43 -3 42 806 0 806 0 -3 -42z m-3558
-108 l0 -140 -1340 0 -1340 0 0 140 0 140 1340 0 1340 0 0 -140z m5120 75 l0
-55 -640 0 -640 0 0 55 0 55 640 0 640 0 0 -55z m-11445 -50 l0 -70 -100 0
-100 0 -3 59 c-5 89 -7 87 105 84 l98 -3 0 -70z m310 0 l0 -70 -100 0 -100 0
-3 59 c-5 89 -7 87 105 84 l98 -3 0 -70z m320 0 l0 -70 -100 0 -100 0 -3 59
c-5 89 -7 87 105 84 l98 -3 0 -70z m315 0 l0 -75 -100 0 -100 0 0 75 0 75 100
0 100 0 0 -75z m320 0 l0 -75 -100 0 -100 0 0 75 0 75 100 0 100 0 0 -75z
m320 0 l0 -75 -100 0 -100 0 0 75 0 75 100 0 100 0 0 -75z m320 0 l0 -75 -100
0 -100 0 0 75 0 75 100 0 100 0 0 -75z m305 0 l0 -70 -100 0 -100 0 -3 59 c-5
89 -7 87 105 84 l98 -3 0 -70z m6015 0 l0 -35 -395 0 -395 0 0 35 0 35 395 0
395 0 0 -35z m-22370 -50 l0 -75 -330 0 -330 0 0 75 0 75 330 0 330 0 0 -75z
m690 0 l0 -75 -325 0 -325 0 0 75 0 75 325 0 325 0 0 -75z m16520 -40 l0 -55
-65 0 -65 0 0 55 0 55 65 0 65 0 0 -55z m200 0 l0 -55 -65 0 -65 0 0 55 0 55
65 0 65 0 0 -55z m100 0 c0 -42 -3 -55 -15 -55 -12 0 -15 13 -15 55 0 42 3 55
15 55 12 0 15 -13 15 -55z m-9880 -80 l0 -115 -360 0 -360 0 0 115 0 115 360
0 360 0 0 -115z m17960 30 l0 -55 -640 0 -640 0 0 55 0 55 640 0 640 0 0 -55z
m-13902 -152 l-3 -178 -72 -3 -73 -3 0 181 0 180 75 0 75 0 -2 -177z m302 -3
l0 -181 -72 3 -73 3 -3 178 -2 177 75 0 75 0 0 -180z m300 0 l0 -181 -72 3
-73 3 -3 165 c-1 90 0 170 2 177 4 9 28 13 76 13 l70 0 0 -180z m300 0 l0
-181 -72 3 -73 3 -3 165 c-1 90 0 170 2 177 4 9 28 13 76 13 l70 0 0 -180z
m305 0 l0 -175 -72 -3 -73 -3 0 181 0 181 73 -3 72 -3 0 -175z m303 3 l-3
-178 -72 -3 -73 -3 0 181 0 180 75 0 75 0 -2 -177z m-8948 77 l0 -90 -510 0
-510 0 0 90 0 90 510 0 510 0 0 -90z m1090 0 l0 -90 -507 2 -508 3 -3 88 -3
87 511 0 510 0 0 -90z m17030 45 l0 -35 -395 0 -395 0 0 35 0 35 395 0 395 0
0 -35z m-8222 -97 l-3 -73 -100 0 -100 0 -3 73 -3 72 106 0 106 0 -3 -72z
m310 0 l-3 -73 -100 0 -100 0 -3 73 -3 72 106 0 106 0 -3 -72z m320 0 l-3 -73
-100 0 -100 0 -3 73 -3 72 106 0 106 0 -3 -72z m312 -3 l0 -76 -97 3 -98 3 -3
73 -3 72 101 0 100 0 0 -75z m320 0 l0 -76 -97 3 -98 3 -3 73 -3 72 101 0 100
0 0 -75z m320 0 l0 -75 -100 0 -100 0 0 75 0 75 100 0 100 0 0 -75z m628 3
l-3 -73 -100 0 -100 0 -3 73 -3 72 106 0 106 0 -3 -72z m7670 15 l3 -43 -805
0 -806 0 0 38 c0 21 3 42 7 45 3 4 365 6 802 5 l796 -3 3 -42z m-1658 -93 l0
-40 -395 0 -395 0 0 40 0 40 395 0 395 0 0 -40z m1660 -75 l0 -45 -805 0 -805
0 0 45 0 45 805 0 805 0 0 -45z m-1660 -100 l0 -35 -395 0 -395 0 0 35 0 35
395 0 395 0 0 -35z"/>
</g>
</svg>
