<?xml version="1.0" standalone="no"?>
<!DOCTYPE svg PUBLIC "-//W3C//DTD SVG 20010904//EN"
 "http://www.w3.org/TR/2001/REC-SVG-20010904/DTD/svg10.dtd">
<svg version="1.0" xmlns="http://www.w3.org/2000/svg"
 width="1806.000000pt" height="1065.000000pt" viewBox="0 0 1806.000000 1065.000000"
 preserveAspectRatio="xMidYMid meet">

<g transform="translate(0.000000,1065.000000) scale(0.100000,-0.100000)"
fill="#000" stroke="none">
<path d="M1370 6292 c0 -23 -4 -31 -12 -26 -8 5 -9 -3 -5 -30 7 -45 -7 -88
-46 -143 -29 -41 -29 -43 -13 -67 28 -44 22 -57 -24 -50 -36 6 -40 4 -40 -14
0 -21 36 -55 89 -84 22 -12 31 -24 31 -43 0 -32 -17 -32 -51 1 -30 29 -115 58
-125 43 -7 -12 24 -58 111 -162 42 -49 65 -86 65 -102 0 -14 -5 -25 -11 -25
-12 0 -57 44 -121 118 -35 41 -68 55 -68 30 0 -7 14 -42 30 -76 17 -35 30 -72
30 -83 0 -16 -4 -17 -27 -8 -16 6 -43 22 -60 35 l-33 25 0 -25 c0 -14 4 -27 9
-30 5 -3 27 -37 50 -75 43 -73 53 -124 25 -135 -21 -8 -67 17 -88 48 -9 15
-21 26 -26 26 -19 0 -10 -56 16 -93 26 -40 98 -97 120 -97 7 0 15 -4 18 -9 3
-5 -49 3 -115 17 -133 28 -144 26 -128 -31 9 -31 37 -69 48 -63 3 2 17 0 30
-5 22 -9 23 -12 16 -73 l-6 -65 57 -54 c37 -35 54 -58 49 -67 -13 -21 -85 -2
-166 46 -42 24 -83 44 -93 44 -38 0 -26 -32 48 -131 100 -132 102 -161 8 -130
l-53 18 27 -28 28 -29 -27 -55 c-52 -105 -33 -129 119 -151 94 -14 134 -27
134 -42 0 -4 -7 -16 -15 -26 -14 -18 -20 -19 -77 -9 -74 12 -90 7 -57 -18 l24
-19 -28 0 c-43 0 -82 25 -172 110 -71 67 -127 101 -141 87 -3 -2 -2 -30 2 -61
6 -50 11 -60 45 -87 22 -17 39 -37 39 -45 0 -8 23 -30 50 -50 31 -22 52 -46
56 -62 4 -15 22 -43 41 -64 20 -20 32 -41 28 -47 -7 -12 31 -53 95 -104 l35
-28 -43 6 c-84 11 -178 70 -325 204 -65 59 -92 70 -81 33 3 -9 38 -83 77 -164
50 -104 76 -148 88 -148 9 0 24 -11 32 -24 12 -17 44 -33 114 -56 215 -72 229
-106 40 -102 -106 2 -200 16 -286 42 -91 28 -102 27 -90 -9 15 -43 -3 -68 -68
-98 -74 -34 -86 -21 -44 46 17 28 31 60 31 71 0 24 21 70 32 70 9 0 48 60 48
74 0 8 -110 1 -147 -10 -15 -4 -14 -2 2 8 26 17 85 80 85 90 0 4 -32 8 -71 8
l-72 0 40 43 c40 43 71 103 59 114 -4 4 -20 -1 -35 -10 -29 -17 -61 -23 -61
-11 0 4 14 31 31 61 17 30 29 57 25 60 -3 3 -28 -4 -55 -16 -27 -11 -52 -21
-55 -21 -14 0 -3 22 39 75 25 32 43 61 40 63 -2 3 -27 -5 -54 -17 -59 -25 -71
-26 -71 -6 0 18 31 35 64 35 35 0 33 16 -4 35 -34 18 -36 26 -14 60 15 22 14
24 -10 40 -15 10 -23 22 -19 32 7 17 -17 152 -27 158 -4 3 -10 -18 -13 -45 -3
-27 -16 -68 -28 -91 -17 -33 -20 -53 -16 -91 6 -45 5 -48 -13 -38 -23 13 -60
13 -60 1 0 -5 23 -31 50 -57 28 -26 48 -49 46 -51 -2 -2 -30 3 -62 11 -32 8
-59 14 -61 12 -2 -1 12 -23 31 -47 19 -24 37 -54 41 -67 l6 -22 -37 25 c-32
22 -64 32 -64 21 0 -2 12 -29 26 -60 14 -32 23 -60 20 -63 -3 -4 -23 1 -42 11
-20 9 -38 15 -41 13 -2 -2 13 -36 34 -75 45 -84 39 -103 -22 -78 -21 9 -40 16
-42 16 -3 0 20 -27 51 -61 81 -87 73 -103 -35 -69 -35 11 -67 20 -71 20 -18 0
-6 -28 22 -55 17 -16 29 -34 28 -40 -2 -6 14 -48 35 -93 51 -108 41 -124 -47
-77 -26 14 -49 25 -52 25 -2 0 -4 -17 -4 -38 0 -25 9 -50 25 -72 34 -46 34
-74 0 -66 -25 6 -25 6 -25 -68 l0 -75 46 -21 c26 -11 64 -20 85 -20 43 0 51
-16 21 -43 -21 -19 -86 -23 -126 -7 l-26 10 0 -83 c0 -88 26 -167 53 -167 20
0 64 -37 55 -46 -4 -4 -27 1 -51 10 -23 9 -46 16 -50 16 -4 0 -7 -34 -7 -75
l0 -75 35 -17 c32 -15 36 -15 53 0 18 16 20 16 38 -4 19 -21 19 -21 -5 -40
-26 -21 -56 -24 -95 -9 l-26 10 0 -323 c0 -238 3 -326 12 -335 9 -9 9 -12 0
-12 -9 0 -12 -249 -12 -1090 l0 -1090 9025 0 9025 0 0 2180 c0 1587 -3 2180
-11 2180 -6 0 -9 -7 -5 -15 10 -27 -4 -46 -26 -34 -27 15 -44 7 -26 -12 9 -8
19 -25 22 -37 4 -12 14 -22 22 -22 8 0 14 -6 14 -14 0 -10 -9 -14 -27 -13 -19
1 -27 -2 -25 -12 2 -9 -3 -12 -18 -7 -11 3 -29 9 -39 12 -16 5 -19 2 -14 -15
3 -12 10 -21 15 -21 6 0 8 -12 5 -29 -5 -25 -1 -32 33 -55 50 -33 52 -51 4
-31 -20 8 -51 14 -68 14 -17 -1 -23 -3 -13 -6 9 -2 17 -10 17 -17 0 -6 9 -18
20 -26 11 -8 20 -20 20 -27 0 -6 14 -20 30 -30 17 -9 30 -21 30 -26 0 -14 -47
1 -91 29 -22 14 -51 29 -64 34 -20 8 -23 6 -22 -11 1 -11 9 -25 19 -30 10 -5
18 -20 18 -32 0 -22 37 -64 53 -59 4 1 7 -5 7 -13 0 -20 -16 -19 -69 5 -54 25
-60 25 -54 0 3 -11 9 -20 14 -20 4 0 11 -15 14 -34 5 -23 15 -37 32 -45 20 -9
23 -14 13 -26 -19 -23 -47 -27 -79 -11 -40 21 -43 20 -28 -12 14 -30 81 -103
94 -101 13 3 66 -21 60 -27 -13 -13 -91 10 -120 36 -33 28 -89 60 -106 60 -15
0 -1 -94 15 -103 8 -4 14 -15 14 -23 0 -11 6 -13 20 -9 16 5 20 2 20 -19 0
-14 5 -28 10 -31 6 -3 10 -19 10 -36 0 -16 4 -29 9 -29 5 0 12 -8 15 -18 3
-10 19 -26 36 -35 36 -21 39 -37 8 -37 -27 0 -164 101 -161 118 2 7 -5 12 -15
12 -13 0 -17 8 -16 38 1 21 -4 46 -11 56 -12 16 -14 14 -20 -16 -12 -59 -16
-68 -32 -68 -8 0 -59 -32 -112 -71 -110 -82 -220 -139 -268 -139 -41 0 -43 15
-3 24 17 3 41 16 55 30 13 13 29 26 36 28 8 3 7 9 -5 20 -12 12 -23 14 -44 9
-40 -12 -96 8 -100 35 -3 18 3 23 35 27 21 2 49 8 63 12 14 3 34 7 45 9 36 3
75 29 81 53 7 26 14 29 31 12 9 -9 14 -5 19 15 3 14 12 26 20 26 8 0 14 4 14
9 0 5 9 13 20 16 11 3 20 13 20 20 0 8 8 19 18 24 9 6 13 11 8 11 -5 0 -3 7 4
15 19 23 -2 19 -76 -15 -36 -16 -88 -34 -117 -40 -29 -5 -65 -13 -82 -16 -25
-5 -28 -4 -17 7 28 30 13 38 -39 21 -57 -18 -82 -10 -87 28 -3 20 -1 22 22 16
30 -7 76 2 76 16 0 5 -13 14 -30 19 -36 13 -39 26 -6 35 13 3 38 25 56 50 17
24 38 44 46 44 8 0 14 9 14 20 0 11 7 20 15 20 8 0 15 4 15 9 0 5 10 11 21 14
17 5 20 11 16 29 -5 19 0 28 21 41 15 9 22 17 15 17 -7 0 -10 7 -6 17 5 12
-16 4 -71 -26 -54 -29 -95 -44 -132 -48 -61 -7 -71 6 -26 32 30 18 62 66 62
94 0 9 5 22 12 29 9 9 8 15 -8 27 -19 14 -19 14 1 16 11 1 28 2 38 1 12 -1 17
6 17 23 0 16 6 25 15 25 8 0 15 9 15 20 0 24 2 24 -68 1 -63 -21 -152 -33
-152 -21 0 9 39 23 58 21 6 -1 12 5 12 14 0 8 4 14 8 12 10 -3 62 49 62 62 0
5 7 17 16 25 24 25 -4 20 -51 -9 -59 -36 -79 -44 -135 -51 -42 -6 -50 -4 -50
10 0 14 12 21 33 17 4 -1 10 6 13 14 4 8 12 15 20 15 8 0 14 5 14 10 0 6 7 10
15 10 8 0 15 5 15 10 0 6 7 10 15 10 18 0 19 12 3 28 -9 9 -9 12 3 12 17 0 51
35 62 63 8 22 -1 21 -54 -3 -24 -11 -55 -20 -68 -20 -20 0 -21 2 -11 15 7 8
16 12 21 9 8 -5 59 93 59 114 0 5 -30 -6 -66 -25 -37 -18 -73 -33 -80 -33 -24
0 -15 18 21 40 19 12 35 27 35 34 0 6 9 18 20 26 11 8 20 20 20 27 0 7 8 13
18 13 16 1 16 1 0 10 -18 11 -79 -8 -126 -38 -20 -13 -25 -13 -33 -1 -13 20
-11 29 6 34 8 3 23 8 33 12 9 4 22 7 27 8 19 2 55 26 55 36 0 12 -62 8 -92 -5
-28 -13 -22 14 12 53 33 37 30 56 -6 47 -19 -5 -24 -2 -24 13 0 11 4 22 9 25
5 3 5 22 1 42 -5 20 -6 43 -3 50 3 8 1 14 -5 14 -5 0 -13 12 -16 26 -8 28 -21
23 -28 -11 -2 -11 -10 -19 -18 -17 -10 2 -11 0 -3 -10 21 -26 1 -120 -26 -117
-48 4 -52 -5 -16 -47 14 -16 25 -35 25 -41 0 -15 -26 -17 -35 -3 -7 12 -62 13
-69 2 -7 -11 48 -52 69 -52 9 0 14 -4 11 -9 -3 -4 6 -13 20 -20 14 -6 24 -17
21 -24 -7 -21 -35 -19 -57 3 -31 31 -90 54 -103 41 -8 -8 -8 -11 1 -11 7 0 12
-7 12 -15 0 -8 6 -15 13 -15 6 -1 27 -14 46 -30 l34 -29 -24 -10 -24 -10 23
-7 c12 -3 22 -11 22 -18 0 -6 14 -20 30 -31 27 -18 41 -45 24 -45 -13 0 -94
44 -94 51 0 12 -58 69 -70 69 -9 0 -10 -3 -1 -14 6 -7 9 -21 5 -30 -3 -9 -1
-16 5 -16 6 0 11 -8 11 -18 0 -10 7 -28 16 -40 9 -13 13 -26 10 -29 -7 -7 -76
28 -76 39 0 5 -7 8 -15 8 -8 0 -15 -8 -15 -18 0 -15 20 -36 64 -64 8 -6 7 -11
-4 -18 -14 -9 -13 -11 9 -14 20 -2 23 -17 11 -46 -7 -16 -15 -30 -18 -30 -3 0
-25 12 -49 26 -47 27 -77 29 -51 3 9 -8 19 -25 22 -37 4 -12 13 -22 21 -22 7
0 16 -7 19 -16 3 -8 10 -12 16 -9 5 3 10 -1 10 -10 0 -11 5 -15 15 -11 8 3 15
1 15 -4 0 -6 9 -10 20 -10 11 0 20 -5 20 -10 0 -13 -65 -4 -152 21 -36 10 -68
19 -71 19 -11 0 6 -39 18 -44 8 -3 11 -13 8 -26 -5 -17 -2 -21 13 -20 34 4 54
0 54 -10 0 -5 -7 -10 -15 -10 -19 0 -19 -14 1 -31 8 -7 13 -21 10 -32 -3 -13
9 -32 40 -61 24 -23 44 -46 44 -49 0 -10 -50 -8 -94 4 -21 6 -60 24 -86 40
-54 33 -65 35 -74 14 -4 -10 3 -20 19 -27 19 -9 23 -16 19 -34 -5 -17 -1 -26
12 -31 24 -9 38 -23 47 -45 3 -10 13 -18 21 -18 16 0 42 -38 32 -47 -8 -8 -97
16 -123 33 -22 14 -23 13 -23 -17 0 -24 4 -30 15 -25 9 3 18 -1 21 -9 4 -8 11
-12 18 -9 6 3 -4 -8 -23 -24 l-33 -30 18 -26 c11 -15 31 -29 47 -32 15 -4 27
-10 27 -14 0 -5 24 -11 53 -15 28 -4 55 -12 59 -18 5 -8 14 -7 33 1 22 10 27
9 32 -5 4 -10 -2 -23 -15 -34 -20 -16 -27 -16 -74 -3 -58 15 -66 13 -43 -9 8
-9 15 -18 15 -21 0 -11 -55 7 -79 26 -13 10 -28 18 -34 18 -6 0 -31 17 -56 38
-46 39 -101 72 -120 72 -5 0 -9 -9 -8 -20 1 -11 5 -20 10 -20 5 0 6 -13 2 -29
-5 -24 -2 -30 14 -36 12 -3 21 -11 21 -16 0 -5 6 -9 14 -9 8 0 17 -12 20 -26
5 -19 11 -24 26 -19 13 4 20 0 25 -15 3 -11 13 -20 20 -20 8 0 18 -15 23 -32
6 -23 15 -34 30 -36 12 -2 22 -10 22 -18 0 -8 0 -16 0 -19 1 -18 60 -60 115
-81 37 -14 -24 -17 -70 -4 -81 24 -283 159 -270 180 4 6 -2 10 -12 10 -14 0
-18 7 -17 38 1 21 -4 46 -11 56 -12 16 -14 14 -20 -16 -12 -58 -16 -68 -31
-68 -18 0 -18 -5 3 -36 l16 -26 -36 7 c-47 9 -48 -6 -2 -31 19 -10 35 -25 35
-32 0 -10 -9 -8 -34 7 -49 31 -66 25 -26 -9 21 -18 29 -30 20 -30 -10 0 -3
-12 18 -31 19 -17 32 -33 29 -36 -8 -8 -48 17 -73 46 -31 36 -37 24 -14 -27
21 -47 20 -49 -16 -26 -32 22 -46 8 -16 -16 12 -10 22 -23 22 -29 0 -6 5 -11
10 -11 7 0 7 -7 0 -21 -11 -19 -13 -20 -37 -4 -13 9 -27 14 -30 12 -10 -11 20
-48 55 -67 l37 -21 -35 5 c-19 3 -49 8 -67 12 -32 6 -32 6 -20 -19 6 -13 16
-23 23 -20 6 2 11 -9 12 -28 0 -17 9 -41 20 -53 35 -39 36 -47 5 -40 -15 3
-47 17 -70 29 -42 23 -67 19 -38 -5 8 -7 12 -16 10 -21 -3 -4 4 -13 15 -19 11
-6 20 -17 20 -25 0 -8 7 -15 15 -15 8 0 15 -6 15 -14 0 -11 -7 -13 -30 -6 -16
5 -34 11 -40 15 -5 3 -10 0 -10 -8 0 -8 8 -18 18 -22 16 -6 16 -7 -1 -20 -16
-11 -16 -16 -5 -34 12 -20 80 -43 125 -42 16 1 21 -4 16 -15 -5 -12 -15 -15
-44 -10 -33 5 -38 4 -32 -10 5 -12 -6 -10 -43 11 -27 15 -56 33 -64 40 -8 7
-26 18 -39 25 -23 12 -23 11 -17 -16 4 -16 16 -36 26 -46 11 -9 20 -21 20 -27
0 -6 6 -11 13 -11 7 0 19 -10 27 -21 30 -43 89 -99 104 -99 9 0 16 -5 16 -11
0 -10 -35 -4 -55 11 -5 4 -22 10 -36 13 -14 4 -49 25 -78 48 -43 34 -51 46
-47 65 l6 23 -42 -24 c-73 -42 -83 -31 -26 28 57 59 49 72 -26 38 -29 -12 -48
-16 -52 -9 -9 13 4 23 48 38 21 6 40 15 43 20 9 14 -35 22 -51 9 -24 -20 -28
-2 -5 29 26 37 26 42 3 42 -14 0 -18 10 -20 51 -1 28 -7 60 -13 71 l-11 21
-13 -23 c-9 -16 -14 -19 -17 -9 -4 11 -14 10 -56 -8 -32 -13 -54 -17 -58 -11
-9 13 4 23 48 38 58 18 60 34 5 27 -53 -7 -58 -1 -22 33 25 23 24 46 -1 36
-15 -6 -27 7 -17 18 11 11 3 73 -12 103 l-14 27 -11 -29 c-6 -16 -9 -38 -6
-48 6 -23 -16 -65 -31 -60 -19 7 -26 -17 -9 -36 27 -29 16 -57 -11 -30 -6 6
-21 8 -34 4 l-22 -7 24 -19 c13 -10 30 -19 37 -19 6 0 12 -4 12 -10 0 -5 7
-10 15 -10 17 0 20 -16 4 -26 -6 -3 -23 3 -38 13 -14 11 -36 23 -49 27 -31 10
-20 -14 20 -44 23 -17 27 -24 17 -31 -11 -6 -5 -16 24 -42 20 -19 37 -37 37
-40 0 -17 -62 19 -85 49 -14 19 -30 34 -34 34 -12 0 -7 -32 12 -69 9 -19 17
-36 17 -38 0 -9 -25 -1 -51 18 -23 16 -29 17 -29 5 0 -8 12 -24 27 -35 14 -12
23 -24 20 -28 -4 -3 0 -11 8 -17 12 -9 12 -14 0 -29 -13 -18 -15 -18 -54 3
-23 11 -41 17 -41 14 0 -18 55 -76 88 -94 l37 -19 -32 -1 c-18 0 -53 7 -79 16
-47 16 -67 13 -46 -8 7 -7 12 -21 12 -31 0 -13 5 -17 16 -13 22 8 40 -4 23
-16 -11 -7 -11 -11 -1 -15 6 -2 12 -15 12 -28 0 -13 13 -36 30 -52 39 -36 38
-46 -2 -38 -54 11 -168 69 -163 83 2 6 0 12 -5 12 -6 0 -10 7 -10 15 0 8 -4
15 -10 15 -5 0 -10 -7 -10 -15 0 -8 -4 -15 -10 -15 -6 0 -6 -9 -1 -23 11 -29
-13 -79 -34 -71 -9 4 -15 0 -15 -7 0 -23 -68 -60 -122 -66 -37 -5 -49 -3 -44
5 4 7 14 12 22 12 8 0 14 4 14 8 0 5 16 17 35 28 19 10 34 23 32 28 -2 6 7 20
20 32 13 12 23 26 23 33 0 14 0 14 -43 -4 -42 -18 -57 -19 -57 -5 0 6 6 10 13
10 10 0 47 67 47 85 0 3 -22 -6 -50 -20 -65 -33 -80 -32 -44 3 16 16 39 41 51
55 22 26 22 27 3 27 -12 0 -38 -9 -60 -20 -24 -12 -41 -16 -45 -10 -7 12 2 30
16 30 5 0 26 7 47 16 33 14 35 16 18 26 -13 7 -25 7 -42 -1 -31 -14 -33 8 -4
34 25 23 25 35 1 35 -15 0 -19 8 -20 51 0 27 -7 59 -15 70 -13 20 -14 19 -21
-3 -4 -13 -8 -34 -9 -48 -4 -39 -16 -60 -37 -60 -24 0 -24 -6 1 -37 25 -33 18
-44 -20 -30 -21 8 -33 8 -40 1 -7 -7 5 -19 40 -38 27 -15 50 -31 50 -36 0 -21
-23 -19 -51 4 -17 14 -42 26 -56 26 l-26 0 24 -21 c13 -12 33 -27 44 -35 15
-11 17 -16 7 -23 -10 -6 -4 -16 23 -40 21 -18 35 -35 31 -38 -11 -11 -63 19
-77 43 -7 14 -22 30 -32 36 -17 9 -18 7 -12 -14 4 -12 14 -38 21 -57 18 -43
12 -48 -24 -22 -17 12 -33 21 -36 21 -3 0 -4 -19 -2 -43 5 -46 -5 -74 -22 -63
-18 11 -25 -15 -8 -33 23 -26 20 -31 -16 -24 -26 5 -30 3 -25 -10 4 -11 -1
-18 -15 -23 -20 -6 -20 -8 12 -35 24 -21 28 -29 16 -30 -9 -1 -22 -2 -28 -3
-7 -1 -17 -6 -23 -13 -5 -7 -23 -17 -40 -23 -29 -11 -29 -11 -10 9 24 28 3 28
-41 1 -19 -13 -35 -17 -39 -11 -3 6 7 17 23 25 16 8 35 22 43 32 13 16 11 17
-24 11 l-39 -6 16 24 c20 30 20 35 1 35 -15 0 -19 11 -15 39 2 17 25 41 39 41
6 0 11 9 11 20 0 11 6 23 13 26 13 5 20 34 8 34 -3 0 -25 -11 -49 -25 -50 -28
-118 -49 -132 -40 -6 4 6 21 25 39 19 18 35 42 35 53 0 10 5 24 12 31 9 9 9
12 0 12 -7 0 -12 5 -12 11 0 5 10 9 22 7 13 -2 23 2 23 7 0 6 6 20 13 33 15
26 12 26 -52 7 -27 -8 -63 -15 -80 -15 l-31 1 33 14 c36 16 49 27 75 65 27 39
20 42 -30 11 -51 -30 -119 -46 -129 -30 -3 6 3 13 15 16 12 3 21 8 21 12 0 4
16 15 35 25 19 10 32 23 29 28 -3 5 6 18 20 29 26 21 36 55 14 46 -7 -3 -30
-12 -50 -21 -23 -10 -39 -12 -43 -6 -3 6 1 10 9 10 13 0 60 80 51 88 -2 2 -21
-6 -44 -17 -64 -33 -77 -26 -34 18 62 64 67 71 46 71 -10 0 -37 -9 -60 -20
-28 -12 -45 -15 -49 -9 -9 14 4 24 48 39 58 18 60 34 5 27 -53 -7 -58 -1 -22
33 26 24 25 42 -3 38 -13 -2 -15 5 -13 42 1 26 -4 58 -13 75 l-15 29 -11 -29
c-6 -16 -9 -38 -6 -48 6 -23 -16 -65 -31 -60 -19 7 -26 -17 -9 -36 27 -29 16
-57 -11 -30 -6 6 -21 8 -34 4 l-22 -7 24 -19 c13 -10 30 -19 37 -19 6 0 12 -4
12 -10 0 -5 7 -10 15 -10 17 0 20 -16 4 -25 -5 -4 -28 5 -49 20 -55 38 -75 27
-27 -15 26 -24 33 -36 25 -41 -9 -6 -2 -18 25 -42 20 -19 37 -37 37 -40 0 -17
-62 19 -85 49 -14 19 -30 34 -34 34 -12 0 -7 -32 12 -69 9 -19 15 -37 12 -40
-12 -11 -40 17 -48 49 -6 26 -11 30 -18 19 -5 -8 -9 -26 -9 -41 0 -16 -8 -36
-18 -45 -70 -70 -214 -153 -263 -153 -18 0 -28 4 -24 10 3 6 15 10 25 10 24 0
65 38 74 67 4 13 14 23 22 23 8 0 14 6 14 14 0 19 51 72 67 68 7 -2 13 3 13
10 0 15 35 48 50 48 6 0 10 10 11 23 0 12 2 30 4 40 7 34 -48 15 -99 -35 -17
-15 -35 -28 -42 -28 -6 0 -23 -9 -37 -20 -28 -22 -70 -29 -49 -8 22 22 12 26
-31 13 -47 -14 -77 -6 -77 22 0 11 6 14 27 9 14 -4 29 -3 32 3 4 5 22 12 41
14 48 6 82 21 103 47 17 21 17 22 -7 41 -21 16 -23 23 -13 33 6 8 18 11 24 9
8 -3 13 4 13 20 l0 25 -37 -19 c-61 -31 -115 -19 -63 13 11 7 20 17 20 21 0
12 22 32 44 40 11 4 16 13 12 22 -3 8 3 20 14 28 12 8 16 18 10 26 -6 11 -19
7 -63 -18 -30 -17 -75 -34 -101 -37 -50 -7 -61 5 -22 25 23 13 52 57 47 75 -1
4 4 15 11 24 10 12 10 16 1 19 -24 8 -13 23 17 23 19 0 30 5 28 13 -1 6 4 23
11 36 12 22 12 23 -5 18 -74 -23 -133 -37 -154 -37 l-25 1 25 13 c14 8 28 12
32 10 5 -3 8 -1 8 4 0 5 11 14 24 21 20 11 64 81 50 81 -2 0 -23 -9 -45 -21
-23 -11 -42 -19 -44 -17 -2 2 -6 15 -10 31 -6 21 -4 27 10 27 9 0 13 4 10 10
-3 5 5 21 19 34 14 13 26 30 26 39 0 14 -3 14 -30 -1 -16 -9 -30 -20 -30 -24
0 -5 -7 -8 -16 -8 -9 0 -14 3 -12 8 56 109 57 159 2 86 -27 -35 -71 -64 -96
-64 -7 0 7 19 31 41 34 32 41 43 30 50 -11 6 -10 12 8 29 12 11 27 20 32 20 6
0 15 9 21 20 9 16 8 20 -5 20 -19 0 -54 -18 -73 -37 -17 -17 -42 -17 -42 0 0
7 23 26 50 42 28 16 50 32 50 36 0 13 -32 19 -50 9 -42 -23 -54 -4 -19 31 21
21 19 52 -3 44 -18 -7 -46 46 -38 70 7 19 -9 65 -22 65 -5 0 -8 -7 -8 -15 0
-8 -4 -15 -8 -15 -5 0 -9 -16 -10 -35 -1 -20 -4 -40 -7 -45 -3 -5 -1 -11 5
-15 18 -11 10 -25 -15 -25 -14 0 -25 -4 -25 -8 0 -5 11 -19 25 -32 36 -33 31
-40 -20 -33 -28 3 -45 2 -45 -5 0 -9 24 -24 42 -26 3 -1 10 -4 14 -8 4 -5 16
-8 26 -8 17 0 25 -20 12 -32 -3 -4 -30 5 -60 18 -31 13 -59 22 -64 19 -10 -6
21 -45 75 -96 38 -36 18 -38 -50 -5 -27 14 -51 23 -53 21 -8 -8 40 -95 53 -95
8 0 15 -4 15 -10 0 -15 -20 -12 -67 10 -38 17 -43 17 -43 3 0 -9 12 -26 26
-39 14 -13 23 -28 20 -32 -3 -4 13 -19 35 -32 21 -14 39 -29 39 -34 0 -5 3 -6
7 -3 8 9 34 -13 28 -23 -9 -14 -102 9 -140 34 -21 14 -42 26 -46 26 -16 0 24
-68 47 -81 13 -7 24 -16 24 -21 0 -5 4 -7 9 -4 4 3 17 -1 27 -9 19 -14 19 -14
-1 -15 -17 0 -82 16 -147 37 -22 7 -25 -22 -3 -31 8 -3 12 -12 9 -21 -5 -11 1
-15 25 -15 17 0 31 -4 31 -10 0 -5 -5 -10 -11 -10 -7 0 -8 -7 -4 -17 4 -10 7
-26 7 -35 0 -10 3 -18 9 -18 5 0 9 -6 9 -14 0 -8 13 -23 30 -33 16 -9 30 -21
30 -27 0 -18 -93 4 -147 35 -44 25 -57 29 -63 18 -6 -8 -2 -18 10 -26 11 -8
17 -20 14 -28 -4 -9 1 -18 12 -22 21 -7 44 -28 44 -38 0 -3 25 -30 54 -59 l55
-53 -27 -13 c-22 -11 -24 -14 -9 -17 9 -3 17 -9 17 -14 0 -6 9 -5 21 2 28 14
43 -1 25 -26 -12 -17 -19 -18 -60 -8 -47 11 -55 7 -33 -16 10 -11 8 -13 -13
-7 -14 3 -45 11 -70 16 -25 5 -65 18 -90 29 -51 23 -71 26 -68 9 4 -16 64 -78
77 -78 6 0 11 -7 11 -16 0 -11 5 -14 16 -10 10 4 18 0 21 -13 4 -17 42 -42 68
-46 104 -15 115 -18 115 -36 0 -21 -32 -33 -82 -30 -24 1 -38 -3 -38 -10 0
-18 49 -59 70 -59 10 0 22 -5 25 -10 4 -6 -6 -10 -23 -10 -40 0 -139 51 -224
116 -65 49 -88 62 -88 49 0 -12 24 -55 32 -55 4 0 8 -9 8 -20 0 -11 4 -20 9
-20 5 0 11 -9 14 -21 3 -12 10 -18 16 -14 7 4 11 -4 11 -19 0 -16 6 -26 15
-26 8 0 15 -9 15 -20 0 -11 7 -20 15 -20 8 0 15 -3 15 -7 0 -17 79 -46 109
-40 24 5 31 2 36 -14 4 -11 4 -23 1 -26 -16 -16 -184 -5 -250 15 -86 28 -110
29 -79 3 12 -10 19 -21 16 -25 -3 -3 2 -8 11 -12 38 -15 0 -35 -94 -50 -41 -6
-44 -5 -30 11 13 15 12 17 -10 13 -21 -2 -25 1 -24 22 1 13 -8 32 -20 42 l-21
18 23 6 c12 3 22 10 22 14 0 4 20 28 45 53 25 26 45 51 45 57 0 5 6 9 12 8 7
-2 14 7 16 20 2 13 10 26 18 29 8 3 14 14 14 25 0 19 -4 18 -55 -11 -55 -31
-132 -54 -148 -44 -4 2 8 20 27 39 22 21 36 45 36 59 0 13 5 27 10 30 8 5 7
11 -1 21 -12 14 -3 19 29 15 6 -1 12 7 12 19 0 11 5 20 10 20 6 0 10 7 10 15
0 18 -3 18 -64 0 -27 -8 -65 -15 -85 -14 l-36 1 29 10 c37 14 84 55 102 91 18
34 12 34 -46 -3 -50 -32 -140 -52 -140 -31 0 6 8 15 18 19 34 14 92 57 89 67
-2 5 9 20 25 33 46 39 34 69 -15 38 -32 -20 -77 -29 -77 -15 0 6 8 13 19 16
18 5 41 41 48 76 4 22 2 22 -58 -9 -28 -14 -53 -23 -56 -20 -3 3 10 20 29 38
19 18 43 45 53 61 16 24 16 27 1 27 -9 0 -36 -9 -61 -21 -41 -19 -65 -19 -65
1 0 5 22 16 50 25 27 9 52 20 55 25 9 14 -33 22 -54 11 -26 -14 -31 -14 -31 3
0 8 10 22 21 30 24 16 19 52 -6 43 -11 -5 -13 3 -11 39 1 27 -5 59 -15 82 -16
34 -18 35 -24 15 -4 -13 -12 -23 -17 -23 -5 0 -6 -6 -1 -12 13 -22 12 -40 -3
-69 -8 -17 -20 -26 -28 -23 -23 9 -27 -12 -6 -36 21 -24 26 -50 11 -50 -6 0
-13 4 -16 10 -7 11 -65 14 -65 4 0 -10 44 -43 58 -44 6 0 12 -4 12 -9 0 -5 9
-11 20 -14 13 -3 18 -10 14 -21 -8 -21 -20 -20 -42 2 -21 21 -80 47 -88 39 -7
-6 19 -33 61 -64 22 -17 26 -22 13 -23 -26 0 -23 -6 24 -50 23 -22 39 -42 37
-44 -12 -11 -77 29 -97 59 -41 64 -55 28 -18 -48 10 -21 17 -40 14 -42 -2 -3
-21 7 -41 20 -42 29 -47 30 -47 11 0 -8 14 -26 31 -40 17 -14 25 -26 17 -26
-8 0 -5 -7 8 -18 18 -14 19 -20 9 -39 l-11 -22 -43 25 c-54 30 -55 30 -37 -3
18 -36 65 -77 102 -91 l29 -10 -36 -1 c-20 -1 -58 6 -85 14 -61 18 -64 18 -64
0 0 -8 5 -15 10 -15 6 0 10 -9 10 -20 0 -12 6 -20 13 -19 31 4 40 -1 28 -15
-8 -10 -9 -16 -1 -21 5 -3 10 -17 10 -31 0 -16 13 -37 36 -58 23 -21 32 -36
25 -40 -16 -10 -87 12 -148 46 -49 28 -53 29 -53 10 0 -11 6 -22 14 -25 8 -3
16 -16 18 -29 2 -13 9 -22 16 -20 6 1 12 -5 12 -13 0 -8 5 -15 10 -15 6 0 10
-7 10 -15 0 -8 7 -15 15 -15 8 0 19 -9 26 -21 10 -20 9 -21 -23 -14 -18 4 -46
13 -62 21 -37 18 -36 18 -36 -6 0 -11 6 -20 14 -20 7 0 19 -6 25 -14 10 -11 7
-18 -11 -30 -18 -13 -21 -20 -12 -34 23 -36 93 -62 179 -66 21 -1 29 -6 27
-16 -6 -29 -21 -34 -67 -23 -42 10 -45 9 -40 -8 4 -11 3 -19 0 -19 -14 0 -91
45 -130 76 -76 59 -110 70 -95 29 5 -14 7 -31 4 -38 -2 -7 7 -19 22 -27 14 -8
30 -25 35 -38 5 -13 13 -21 19 -17 12 7 48 -28 60 -60 5 -14 16 -25 25 -25 8
0 15 -4 15 -10 0 -25 28 -60 47 -60 7 0 13 -4 13 -10 0 -5 9 -10 20 -10 11 0
20 -5 20 -11 0 -34 -140 30 -256 118 -70 52 -108 66 -71 25 10 -10 17 -24 17
-30 0 -7 5 -12 10 -12 6 0 10 -9 10 -20 0 -11 5 -20 10 -20 6 0 10 -7 10 -15
0 -8 7 -15 15 -15 9 0 15 -9 15 -25 0 -14 4 -25 9 -25 5 0 11 -9 14 -20 3 -13
10 -18 21 -14 10 4 16 1 16 -7 0 -8 12 -19 28 -25 77 -32 94 -36 126 -30 32 6
46 -4 46 -34 0 -24 -171 -15 -291 16 -30 8 -64 14 -75 14 -18 -1 -18 -1 -1
-14 9 -7 17 -18 17 -25 0 -6 5 -11 10 -11 6 0 10 -5 10 -11 0 -17 32 -38 56
-39 12 0 25 -7 28 -16 3 -8 10 -13 15 -9 5 3 12 1 15 -4 3 -5 27 -6 53 -3 l48
5 -17 -24 c-15 -22 -21 -24 -89 -21 -71 3 -163 25 -183 43 -13 12 -46 11 -46
-1 0 -5 6 -10 13 -10 7 0 4 -7 -7 -15 -22 -17 -66 -20 -66 -5 0 6 7 10 15 10
8 0 15 7 15 16 0 9 9 18 20 21 11 3 20 13 20 22 0 9 5 22 12 29 23 23 -1 22
-47 -3 -26 -14 -62 -25 -79 -25 l-31 1 27 22 c34 28 54 77 36 89 -9 5 -4 8 14
8 20 0 26 4 22 15 -4 8 -1 15 5 15 6 0 11 6 11 14 0 12 -6 12 -37 0 -21 -7
-51 -13 -68 -13 l-30 0 37 20 c21 10 45 33 53 50 l16 30 -30 -15 c-16 -9 -34
-16 -39 -16 -23 0 -18 30 10 64 34 41 32 57 -4 32 -32 -23 -39 -20 -22 11 7
16 14 37 14 48 -1 18 -3 18 -24 -6 -22 -26 -57 -49 -72 -49 -4 0 5 13 20 29
16 16 25 34 22 40 -4 5 5 18 19 27 14 9 25 20 25 25 0 15 -26 10 -53 -11 -17
-14 -28 -17 -32 -10 -4 6 -5 12 -4 14 2 1 21 13 41 25 47 28 48 35 3 28 -38
-6 -44 3 -19 27 15 16 10 41 -6 31 -13 -8 -30 29 -25 53 2 11 -2 28 -10 38
-11 16 -13 15 -20 -17 -4 -19 -7 -46 -7 -61 0 -19 -3 -25 -14 -21 -19 7 -18
-21 1 -37 24 -20 18 -27 -17 -22 -30 5 -32 3 -19 -12 7 -9 22 -16 32 -16 10 0
21 -5 24 -11 13 -20 -5 -22 -45 -4 -22 10 -43 15 -47 12 -3 -4 13 -25 36 -48
23 -23 40 -44 37 -46 -2 -2 -23 5 -46 17 -23 12 -43 20 -45 18 -5 -7 26 -68
35 -68 6 0 10 -5 10 -10 0 -6 -15 -4 -36 5 -45 18 -44 18 -44 0 0 -8 9 -19 20
-25 11 -6 18 -15 16 -19 -3 -4 16 -21 41 -37 l47 -29 -33 -3 c-21 -2 -47 6
-76 23 -25 14 -45 23 -45 20 0 -17 38 -59 69 -75 l36 -19 -30 0 c-16 0 -47 6
-68 14 -38 13 -39 13 -33 -8 3 -12 6 -25 6 -29 0 -5 9 -8 21 -8 11 0 18 -4 15
-9 -9 -13 12 -62 36 -88 l21 -23 -25 0 c-14 0 -47 11 -73 25 -46 25 -70 26
-47 3 7 -7 12 -18 12 -25 0 -6 27 -39 60 -71 46 -46 56 -61 44 -66 -24 -9 -5
-28 22 -22 18 5 24 2 24 -9 0 -22 -25 -29 -61 -16 -26 9 -30 8 -25 -4 4 -13
-2 -14 -37 -9 -40 6 -76 24 -48 24 13 0 41 24 41 36 0 4 8 13 17 20 34 24 3
26 -69 3 -54 -16 -97 -22 -165 -22 -51 -1 -95 2 -98 4 -2 3 -2 14 1 24 4 17
14 20 56 20 32 0 53 5 56 13 2 6 10 12 18 12 8 0 14 5 14 10 0 6 9 10 20 10
13 0 20 7 20 20 0 11 5 20 10 20 6 0 10 11 10 25 0 18 4 23 15 19 10 -4 15 0
15 15 0 12 5 21 10 21 6 0 10 9 10 20 0 11 3 20 8 20 4 0 15 14 24 30 25 44 5
37 -76 -24 -93 -70 -180 -116 -223 -116 -20 0 -32 4 -28 10 3 6 15 10 25 10
22 0 82 48 75 61 -3 4 -26 8 -50 7 -45 -1 -75 14 -75 37 0 11 66 27 120 29 23
1 70 37 70 53 0 8 5 11 10 8 6 -4 25 7 42 24 18 17 35 31 40 31 4 0 8 5 8 11
0 6 7 18 16 27 27 27 -2 27 -69 0 -70 -28 -157 -51 -165 -44 -3 3 1 13 8 21
12 14 10 15 -16 8 -57 -15 -89 -10 -92 15 -4 23 4 27 27 13 9 -6 21 -5 33 2
25 16 23 24 -8 31 -21 6 -24 9 -14 21 7 8 18 15 24 15 6 0 22 16 35 35 13 19
30 35 37 35 8 0 14 5 14 11 0 14 26 39 40 39 7 0 10 8 7 20 -3 12 1 25 11 33
18 13 27 37 15 37 -5 0 -39 -16 -77 -35 -61 -31 -126 -46 -126 -29 0 4 16 22
35 41 21 20 35 44 35 58 0 13 6 26 13 29 10 5 10 7 0 12 -23 10 -14 26 12 22
17 -4 25 -1 25 9 0 7 5 22 12 33 18 28 8 31 -41 14 -24 -8 -64 -17 -90 -20
-45 -6 -46 -6 -23 11 13 9 26 15 29 12 6 -7 39 26 71 71 28 40 12 42 -41 6
-41 -28 -137 -49 -137 -30 0 6 12 17 28 23 39 18 85 60 78 72 -4 5 2 12 12 15
18 6 47 54 39 63 -3 2 -23 -6 -45 -17 -23 -12 -49 -19 -59 -17 -16 4 -16 6 3
12 12 3 26 22 34 43 7 20 15 43 18 50 3 8 -18 2 -51 -14 -31 -16 -59 -25 -62
-22 -3 3 12 23 32 46 66 70 67 72 43 72 -12 0 -39 -9 -62 -20 -22 -11 -45 -17
-49 -14 -15 9 -10 34 7 34 22 0 84 30 84 41 0 12 -37 11 -61 -1 -15 -9 -19 -7
-19 7 0 10 9 25 20 33 25 18 26 40 2 40 -15 0 -19 9 -20 53 -1 29 -8 66 -16
81 l-14 28 -8 -24 c-5 -12 -9 -34 -10 -48 -2 -41 -16 -80 -28 -79 -35 4 -37
-2 -16 -37 26 -40 20 -53 -14 -35 -16 9 -29 10 -41 4 -14 -8 -8 -16 39 -47 31
-21 54 -42 51 -47 -10 -15 -25 -11 -57 16 -31 26 -81 35 -72 13 2 -7 23 -24
44 -38 43 -26 51 -40 23 -40 -12 0 -4 -12 26 -41 23 -23 40 -43 38 -46 -9 -9
-76 26 -86 45 -14 26 -40 52 -51 52 -10 0 2 -48 24 -92 20 -38 20 -38 1 -38
-8 0 -15 4 -15 8 0 4 -13 16 -30 25 -28 17 -30 17 -30 1 0 -17 36 -54 53 -54
5 0 4 -6 -2 -14 -9 -11 -7 -15 9 -19 19 -5 20 -8 8 -29 -7 -13 -14 -24 -15
-26 0 -2 -19 6 -42 17 -51 26 -53 26 -37 -4 15 -30 66 -79 86 -83 8 -2 21 -7
30 -12 38 -23 -50 -8 -165 27 -19 6 -19 6 -2 -20 9 -14 17 -33 17 -40 0 -10 8
-13 25 -9 24 4 36 -13 14 -20 -9 -3 -9 -9 -1 -23 6 -11 15 -34 21 -50 7 -17
21 -35 33 -40 12 -6 24 -16 26 -24 8 -24 -80 -6 -141 29 -30 16 -57 30 -60 30
-14 0 -7 -28 8 -34 8 -3 15 -17 15 -31 0 -14 5 -25 11 -25 13 0 39 -25 39 -38
0 -5 9 -12 20 -15 11 -3 20 -13 20 -22 0 -14 -6 -16 -37 -10 -21 3 -48 13 -60
21 -22 14 -23 13 -23 -10 0 -17 7 -26 26 -30 l27 -7 -22 -23 c-20 -21 -21 -27
-9 -45 7 -12 23 -24 36 -27 12 -4 22 -9 22 -13 0 -4 16 -8 36 -9 20 -1 42 -6
48 -11 7 -6 22 -8 34 -4 15 4 22 1 22 -10 0 -26 -25 -39 -54 -27 -39 15 -59
13 -52 -5 8 -22 -21 -19 -51 5 -14 11 -31 20 -38 20 -6 0 -22 12 -36 26 -13
15 -43 35 -67 46 -25 11 -40 24 -36 30 5 7 -2 9 -21 4 -24 -6 -27 -5 -20 11
22 53 20 56 -15 38 -45 -23 -49 -11 -9 31 29 31 31 35 12 29 -21 -6 -23 -3
-23 34 0 22 -4 43 -10 46 -5 3 -10 19 -10 36 0 16 -4 29 -10 29 -16 0 -42 -61
-37 -87 2 -13 0 -26 -4 -29 -16 -9 -10 -21 14 -29 12 -3 17 -9 10 -11 -7 -3
-22 0 -33 6 -31 17 -37 4 -12 -23 30 -32 28 -40 -9 -32 l-32 7 22 -31 c25 -34
24 -35 -13 -21 -33 12 -33 9 4 -42 42 -58 38 -96 -5 -48 -29 33 -39 23 -11
-11 32 -37 26 -51 -15 -37 -16 6 -33 8 -36 5 -3 -3 9 -30 26 -60 17 -30 28
-57 25 -60 -3 -3 -29 -3 -58 0 l-51 6 53 -57 c40 -42 52 -61 47 -76 -5 -16 -2
-20 14 -20 27 0 27 -16 0 -30 -15 -9 -24 -8 -35 1 -8 6 -14 8 -14 3 0 -4 -11
3 -25 16 -26 24 -33 54 -15 65 20 12 10 26 -11 15 -26 -15 -37 -5 -21 20 10
16 8 19 -21 26 -18 4 -25 9 -17 11 44 13 43 13 28 31 -16 17 -23 45 -36 135
-8 56 -26 66 -30 17 -2 -19 -8 -39 -13 -45 -5 -5 -9 -22 -9 -37 0 -20 -5 -28
-17 -28 -14 0 -12 -4 7 -25 23 -25 23 -25 3 -25 -12 0 -28 -3 -37 -6 -14 -6
-14 -9 1 -35 20 -34 11 -49 -15 -25 -11 9 -26 14 -36 10 -21 -8 -20 0 1 33
l18 26 -33 -6 -33 -7 20 26 c24 31 26 44 7 44 -14 0 -56 113 -56 153 0 18 -2
19 -10 7 -5 -8 -10 -23 -10 -33 0 -31 -36 -72 -87 -99 -67 -36 -106 -43 -127
-23 -23 24 -20 36 8 29 14 -3 34 -3 46 1 24 8 59 75 60 114 0 20 -4 22 -25 17
-28 -7 -33 5 -9 25 20 16 57 89 50 97 -3 3 -27 -9 -52 -27 -25 -18 -48 -31
-51 -28 -3 4 7 40 22 81 29 79 27 101 -8 91 -12 -4 -30 -9 -39 -11 -29 -8 -21
17 20 60 25 26 31 37 17 31 -36 -13 -50 -11 -47 9 2 12 -1 16 -9 11 -9 -6 -11
5 -7 44 5 55 7 53 -39 34 -23 -9 -14 16 23 67 20 28 34 53 31 56 -3 3 -19 -2
-36 -11 -40 -20 -39 -12 2 25 30 27 30 29 10 30 -28 0 -33 10 -47 79 -9 46
-15 56 -31 56 -18 0 -20 -8 -23 -72 -3 -65 -5 -73 -22 -73 -30 0 -24 -20 10
-31 17 -6 30 -15 30 -20 0 -13 -17 -11 -50 6 -37 19 -38 6 -5 -33 35 -42 32
-54 -9 -37 -45 19 -51 9 -19 -33 l26 -35 -36 7 c-39 7 -48 -3 -22 -24 8 -7 15
-16 15 -21 0 -5 12 -27 26 -49 15 -22 25 -43 22 -45 -2 -3 -24 12 -49 33 -33
28 -40 31 -26 12 27 -39 41 -69 34 -76 -4 -4 -20 -1 -37 6 -17 7 -34 10 -37 6
-11 -10 15 -95 38 -128 12 -16 19 -31 16 -34 -4 -5 -47 4 -109 22 -33 10 -18
-15 43 -75 53 -51 61 -63 55 -85 -5 -21 -3 -26 13 -26 27 0 34 -15 15 -34 -20
-21 -23 -21 -110 10 -98 33 -110 30 -76 -20 35 -51 115 -106 155 -106 29 0 30
-1 13 -19 -10 -11 -27 -21 -39 -23 -31 -5 -31 -25 0 -43 26 -15 27 -15 3 -9
-38 10 -76 31 -128 71 -40 30 -48 33 -50 18 -4 -19 53 -107 95 -147 16 -14 41
-28 56 -32 15 -4 25 -11 22 -16 -8 -13 -110 -13 -155 0 -85 24 -43 -43 58 -92
39 -18 49 -19 84 -9 22 7 42 10 46 7 10 -11 -68 -36 -111 -36 -38 0 -194 33
-204 43 -2 2 6 16 18 30 25 32 13 34 -35 6 -44 -25 -49 -8 -10 32 22 23 24 31
16 60 -7 29 -13 34 -37 32 l-28 -2 24 25 c21 22 22 27 9 37 -14 11 -28 55 -45
145 -8 38 -25 33 -25 -7 0 -53 -12 -90 -31 -96 -25 -8 -24 -21 1 -28 11 -3 20
-10 20 -16 0 -8 -6 -9 -19 -1 -37 19 -43 10 -16 -26 26 -34 31 -60 5 -29 -21
26 -33 17 -26 -20 7 -33 5 -35 -21 -35 l-28 -1 30 -24 30 -25 -27 0 c-35 0
-35 -16 -2 -52 l27 -27 -37 10 c-21 6 -41 8 -44 5 -3 -4 7 -33 23 -66 16 -33
26 -62 23 -65 -3 -3 -22 2 -42 11 -47 23 -55 13 -22 -30 31 -42 34 -60 6 -51
-17 5 -20 2 -20 -20 0 -34 41 -75 77 -76 l28 0 -31 -16 c-29 -14 -33 -14 -83
12 -29 14 -56 24 -59 20 -3 -3 18 -39 46 -81 l53 -75 -60 31 -60 30 -3 -23
c-2 -14 -11 -23 -25 -25 -30 -4 -29 1 8 55 27 38 28 44 12 39 -17 -5 -21 1
-30 46 -6 29 -22 84 -37 122 -14 38 -26 79 -26 92 0 12 -4 25 -9 28 -11 7 -41
-65 -41 -98 0 -13 -6 -29 -14 -35 -8 -7 -11 -22 -8 -38 4 -20 2 -24 -8 -18
-10 6 -12 4 -7 -8 4 -11 -1 -18 -14 -22 -34 -11 -34 2 -1 55 26 41 28 48 12
40 -20 -11 -24 -8 -21 22 1 9 -3 19 -8 22 -6 4 -8 13 -4 21 10 27 -6 65 -27
65 -20 0 -20 1 -3 26 17 27 17 27 -7 19 -22 -7 -23 -6 -12 8 10 12 11 21 3 36
-6 11 -11 32 -11 48 l0 28 -20 -25 c-26 -33 -35 -69 -21 -83 17 -17 13 -31 -4
-17 -25 21 -30 2 -7 -23 29 -30 28 -39 -3 -31 -30 7 -42 -14 -25 -46 14 -26 8
-35 -16 -22 -13 7 -23 2 -46 -24 -28 -31 -29 -35 -13 -50 15 -15 14 -17 -2
-30 -16 -12 -16 -15 -3 -24 11 -7 12 -10 2 -10 -23 0 -42 -26 -30 -38 8 -8 8
-18 0 -37 -7 -14 -12 -43 -12 -65 0 -54 -8 -70 -36 -70 -30 0 -31 -14 -3 -34
20 -14 20 -16 5 -31 -26 -26 -19 -53 17 -71 18 -10 26 -19 19 -21 -7 -3 -32 7
-56 21 -34 20 -46 23 -56 13 -8 -7 -6 -1 3 13 37 54 39 60 22 60 -9 0 -29 -7
-44 -15 -40 -20 -44 -9 -16 40 14 23 25 52 25 64 0 21 -3 23 -37 17 l-38 -7
33 28 c40 35 40 43 2 43 -32 0 -36 9 -19 41 7 15 7 24 -1 34 -7 9 -8 15 0 20
5 3 10 11 10 16 0 6 -14 1 -31 -11 -43 -31 -47 -18 -10 31 17 24 29 44 27 47
-2 2 -18 -4 -35 -13 -35 -18 -38 -14 -14 21 15 24 15 28 -5 70 -12 24 -22 57
-22 72 l0 27 -18 -22 c-16 -21 -78 -53 -101 -53 -6 0 -8 7 -5 15 8 20 2 19
-38 -4 -41 -23 -92 -36 -83 -21 4 7 -2 9 -18 4 -14 -3 -34 -1 -44 5 -10 6 -12
11 -5 11 28 0 9 20 -20 20 -32 1 -32 1 -13 16 19 15 18 16 -17 10 -39 -7 -83
9 -107 38 -15 18 -1 22 16 5 7 -7 23 -9 37 -5 22 5 25 9 16 26 -18 33 -11 30
35 -15 24 -25 52 -45 60 -45 9 0 13 5 10 10 -3 6 4 10 15 10 15 0 20 5 17 14
-8 19 3 28 19 15 7 -6 23 -8 34 -4 l22 7 -21 22 c-23 24 -28 42 -10 30 18 -11
79 -23 79 -15 0 4 -5 12 -12 19 -17 17 -3 26 20 13 25 -13 72 -14 92 -1 12 8
12 10 -3 16 -22 8 -22 21 2 29 11 3 22 12 25 21 4 11 0 13 -19 8 -24 -6 -25
-4 -19 27 l7 34 -24 -21 c-13 -12 -35 -25 -49 -29 -22 -7 -23 -6 -11 9 19 23
5 33 -18 12 -23 -21 -91 -34 -91 -17 0 7 -20 11 -52 11 -29 0 -61 7 -70 14
-18 14 -24 27 -10 25 19 -3 30 2 36 17 5 12 0 15 -22 14 -15 -1 -38 -1 -52 -1
l-25 2 28 15 c39 21 33 33 -14 27 -38 -6 -41 -4 -35 15 5 16 2 21 -15 24 -12
2 -28 12 -35 23 -12 19 -11 20 30 20 47 0 84 21 66 39 -17 17 -11 23 17 18 23
-4 25 -2 20 17 -4 15 1 28 14 39 20 17 27 38 8 26 -7 -4 -7 1 1 16 11 21 10
22 -6 15 -11 -4 -46 -9 -79 -12 -52 -5 -62 -3 -79 16 l-20 22 42 -7 c50 -8
103 3 81 16 -11 8 -10 12 9 25 27 20 29 35 3 28 -28 -7 -85 14 -107 39 -19 21
-19 21 1 14 42 -15 71 -17 100 -5 l30 12 -32 9 c-30 8 -46 28 -23 28 6 0 10 5
10 10 0 6 -5 10 -12 10 -6 0 -31 9 -55 21 -43 21 -56 39 -28 39 18 0 20 16 3
23 -7 3 7 6 32 6 49 1 76 13 66 29 -3 5 4 13 17 17 21 7 21 8 -6 12 -23 4 -26
7 -16 19 9 11 7 14 -14 14 -14 0 -37 5 -51 11 l-25 12 22 18 c20 16 20 18 4
19 -10 0 -32 7 -48 16 -28 14 -29 17 -13 28 16 12 15 13 -5 19 -36 9 -26 37
14 37 39 0 103 29 126 56 13 16 12 16 -8 6 -31 -17 -43 -15 -43 8 0 17 -3 19
-19 10 -11 -5 -32 -10 -46 -10 l-27 0 23 20 24 19 -37 1 c-31 0 -38 4 -38 20
0 11 6 20 14 20 7 0 19 7 26 15 10 12 10 15 -2 15 -19 0 -48 32 -48 53 0 8 9
19 20 22 24 8 27 25 3 25 -14 0 -14 3 3 22 16 17 16 20 3 15 -25 -8 -39 12
-40 57 -1 36 -3 34 -11 -19 -9 -61 -9 -61 -45 -63 -50 -4 -95 13 -129 49 l-29
30 37 -16 c21 -8 50 -15 65 -15 32 1 98 28 71 29 -9 1 -29 6 -45 12 -25 9 -26
12 -10 20 25 14 21 26 -10 34 -16 3 -48 18 -73 32 l-45 26 28 10 c26 8 27 10
10 23 -16 12 -12 13 32 14 49 1 125 29 80 30 -16 0 -14 4 13 20 37 22 41 30
12 23 -11 -3 -27 -2 -36 1 -16 6 -15 8 2 21 18 14 17 14 -12 15 -36 0 -94 19
-94 30 0 4 9 10 20 13 25 6 27 27 3 27 -10 0 -34 10 -53 21 l-35 22 25 10 25
9 -27 10 c-25 9 -29 16 -28 46 1 4 13 5 27 4 41 -6 108 18 145 50 22 20 26 27
13 23 -51 -18 -55 -18 -55 5 0 17 -4 21 -17 15 -10 -4 -36 -9 -58 -12 l-40 -4
30 23 30 23 -45 5 c-37 4 -46 9 -48 28 -3 16 2 22 16 22 11 0 25 7 32 15 14
17 15 17 -22 33 -23 9 -28 18 -28 47 0 28 4 35 19 35 30 0 34 17 5 24 l-25 7
23 19 23 19 -26 1 c-30 0 -38 18 -40 85 -1 29 -4 20 -13 -37 -8 -57 -16 -81
-31 -93 -20 -15 -20 -15 3 -21 19 -6 23 -12 20 -43 -2 -29 -9 -39 -35 -52 -24
-12 -29 -19 -21 -27 7 -7 18 -12 25 -12 21 0 15 -18 -12 -36 -14 -9 -36 -14
-50 -12 -34 7 -31 -8 6 -31 l30 -19 -32 -11 c-18 -6 -49 -8 -68 -5 l-36 7 20
-23 c24 -27 74 -50 111 -50 36 0 26 -22 -17 -37 l-34 -11 28 -11 c15 -6 33
-10 39 -8 22 5 18 -22 -7 -39 -18 -11 -37 -15 -65 -11 -48 6 -52 -8 -14 -46
l26 -26 -26 -7 c-14 -3 -40 -1 -57 5 -18 6 -36 11 -41 11 -19 0 32 -65 63 -82
32 -17 30 -21 -16 -31 -33 -7 53 -39 92 -35 18 2 33 0 33 -4 0 -4 -8 -8 -17
-8 -17 -1 -17 -1 0 -11 11 -6 30 -9 43 -6 35 6 30 -16 -11 -52 -44 -38 -104
-42 -166 -10 l-41 20 7 -20 c5 -16 2 -21 -12 -21 -11 0 -25 6 -32 13 -10 10
-12 8 -9 -8 2 -11 14 -25 27 -31 22 -11 22 -12 5 -22 -17 -10 -16 -12 10 -22
16 -6 37 -8 48 -4 17 5 18 3 9 -15 -7 -12 -16 -21 -22 -21 -6 0 -7 -4 -4 -10
3 -5 17 -10 30 -10 18 0 23 -4 19 -15 -5 -11 1 -15 25 -15 17 0 31 -5 31 -11
0 -8 19 -10 61 -6 42 4 59 2 56 -6 -6 -18 -68 -29 -135 -24 -62 5 -63 5 -45
-15 24 -27 51 -40 93 -48 l35 -6 -33 -18 c-18 -9 -42 -14 -52 -11 -23 7 -27
-14 -8 -33 17 -17 0 -30 -42 -34 l-35 -3 24 -14 c14 -7 47 -17 75 -21 41 -6
47 -9 29 -15 -13 -4 -23 -11 -23 -16 0 -14 40 -30 60 -24 11 4 20 2 20 -4 0
-12 -25 -38 -42 -44 -10 -3 -8 -9 5 -24 16 -19 16 -21 2 -27 -26 -9 -73 -7
-80 4 -9 15 -25 2 -18 -15 6 -18 -47 -21 -78 -4 -19 9 -19 9 -10 -10 6 -11 21
-27 32 -35 20 -14 20 -14 1 -20 -10 -4 -28 -3 -38 1 -17 6 -17 5 -5 -10 12
-15 10 -17 -25 -17 -36 -1 -38 -2 -20 -15 11 -8 34 -15 50 -15 24 -1 27 -3 15
-10 -10 -6 -28 -6 -48 0 -36 10 -41 -2 -9 -24 22 -16 22 -16 -12 -16 -36 0
-78 21 -117 59 -25 24 -40 12 -23 -19 6 -11 8 -25 4 -31 -8 -14 26 -38 56 -39
23 -1 23 -2 8 -14 -21 -16 -13 -26 20 -26 24 0 25 -1 7 -20 -17 -19 -17 -20
-1 -20 10 0 26 5 37 10 23 13 25 3 2 -22 -15 -17 -14 -18 28 -18 25 0 55 7 67
16 21 14 22 14 22 -5 0 -23 12 -26 41 -11 16 9 19 7 19 -10 0 -11 6 -20 13
-20 8 0 21 -8 31 -19 14 -15 14 -20 3 -30 -8 -6 -21 -9 -30 -5 -12 4 -14 1
-10 -15 5 -18 1 -21 -26 -21 l-32 0 16 -30 c16 -30 16 -30 -13 -30 -16 0 -46
11 -67 25 -20 15 -39 24 -41 23 -2 -2 3 -17 12 -32 8 -16 12 -31 10 -33 -7 -8
-79 18 -108 38 -34 24 -41 24 -28 -2 14 -25 16 -23 -41 -38 -41 -11 -50 -11
-73 4 -23 15 -24 19 -10 32 8 8 23 32 34 53 11 21 25 44 32 52 7 8 19 24 25
36 11 18 10 20 -2 16 -8 -4 -15 -1 -15 4 0 6 8 12 17 14 13 2 18 13 18 36 0
31 -2 33 -27 28 -24 -5 -26 -2 -25 22 1 17 -3 27 -13 28 -34 2 -34 5 0 27 l35
22 -40 3 c-59 4 -68 9 -56 30 5 10 29 25 53 32 31 10 37 15 23 17 -11 2 -33 9
-49 15 -27 11 -28 12 -7 19 31 12 26 26 -14 33 -28 6 -34 11 -32 29 2 17 -3
22 -20 20 -41 -5 -15 39 29 50 15 4 40 12 55 18 26 10 27 12 8 19 -15 7 -16 9
-4 9 9 1 22 8 29 16 11 13 8 15 -21 15 -32 1 -33 1 -15 15 19 14 19 15 -7 15
-15 0 -44 7 -64 15 -37 15 -37 16 -15 31 29 20 28 29 -3 32 -14 1 -37 9 -51
19 -22 14 -23 18 -9 25 14 8 13 12 -10 29 -34 27 -34 53 1 46 55 -10 184 42
184 75 0 9 -3 9 -12 0 -20 -20 -58 -15 -58 7 0 19 -2 19 -35 5 -57 -23 -107
-13 -53 11 29 13 36 35 9 28 -61 -16 -98 32 -41 54 38 14 38 26 0 40 -26 10
-30 16 -30 47 0 29 4 36 19 36 30 0 34 17 5 24 l-25 7 23 19 23 19 -26 1 c-30
0 -38 17 -40 85 -1 29 -5 19 -13 -38 -8 -58 -16 -82 -31 -93 -19 -14 -19 -15
3 -21 19 -5 23 -11 20 -42 -2 -29 -9 -39 -35 -52 -24 -12 -29 -19 -21 -27 7
-7 18 -12 25 -12 7 0 10 -6 7 -14 -7 -18 -59 -40 -78 -33 -27 10 -6 -20 22
-32 24 -12 25 -14 9 -23 -10 -5 -41 -8 -68 -6 -51 3 -57 0 -37 -20 16 -16 5
-15 -40 4 -35 15 -36 16 -14 25 32 12 27 26 -11 33 -19 3 -56 21 -83 38 -40
26 -45 33 -29 36 24 5 45 22 27 22 -7 0 -12 5 -12 10 0 6 21 10 48 10 45 1
128 27 90 29 -28 1 -21 15 15 31 l32 14 -42 3 c-47 4 -56 17 -20 28 18 6 12 9
-29 15 -28 4 -61 13 -73 20 l-23 12 23 11 c32 17 36 37 7 37 -12 0 -39 10 -58
21 l-35 22 25 10 c18 7 21 11 10 14 -23 8 -50 35 -50 50 0 9 15 13 53 13 61 0
121 25 157 65 23 26 23 27 3 16 -35 -18 -63 -14 -63 10 0 16 -4 19 -17 13 -10
-4 -40 -9 -68 -11 l-50 -4 34 18 c50 26 48 38 -6 38 -45 0 -48 2 -51 28 -3 23
0 27 21 27 14 0 30 7 37 15 10 12 7 15 -14 21 -30 7 -56 39 -56 69 0 14 11 25
33 34 l32 13 -28 10 c-28 10 -28 10 -8 25 21 14 31 40 11 28 -6 -3 -19 -3 -30
0 -16 5 -20 16 -21 48 -1 23 -5 56 -9 72 -5 22 -8 7 -9 -53 -1 -74 -4 -86 -26
-108 -31 -30 -31 -32 -2 -36 44 -6 12 -108 -35 -108 -26 0 -22 -17 7 -33 l26
-13 -25 -23 c-18 -17 -33 -22 -54 -19 -39 6 -31 -19 11 -37 l30 -13 -23 -12
c-14 -7 -45 -10 -77 -8 l-53 5 22 -25 c28 -30 77 -52 118 -52 16 0 30 -4 30
-8 0 -17 -25 -32 -53 -32 -25 0 -28 -2 -17 -15 7 -8 28 -15 47 -15 27 0 34 -4
31 -17 -5 -29 -68 -54 -106 -44 -42 13 -43 -9 -3 -50 l29 -29 -24 -6 c-24 -6
-49 -3 -103 12 l-24 7 19 -32 c10 -18 36 -43 57 -55 41 -25 39 -36 -7 -37
l-31 -1 40 -19 c22 -10 60 -19 85 -19 34 -1 40 -3 25 -10 -24 -10 -8 -18 44
-22 l35 -3 -33 -37 c-43 -49 -88 -64 -149 -48 -26 6 -58 18 -71 27 -23 15 -24
15 -18 -7 5 -21 3 -22 -28 -17 -27 4 -33 3 -28 -9 3 -8 17 -21 32 -29 22 -12
23 -14 6 -14 -11 0 -29 -1 -40 -3 -15 -2 -19 2 -17 16 3 15 0 17 -15 11 -10
-5 -34 -10 -53 -12 -35 -4 -35 -3 -12 13 25 19 30 36 7 28 -8 -4 -26 -3 -40 0
-30 8 -36 46 -6 46 10 0 24 7 31 15 10 12 10 15 -3 15 -44 0 -65 73 -24 84 21
6 21 7 4 17 -17 10 -17 12 -3 28 15 16 14 18 -6 17 -20 -1 -23 6 -30 53 -12
77 -18 76 -18 -2 0 -56 -4 -70 -22 -87 l-23 -21 23 -6 c37 -9 22 -83 -18 -83
-26 0 -26 -20 0 -27 11 -3 20 -9 20 -13 0 -16 -32 -33 -61 -33 -38 0 -37 -15
3 -31 l31 -13 -35 -12 c-20 -7 -49 -9 -64 -5 l-29 6 26 -27 c17 -17 41 -28 67
-32 23 -3 42 -10 42 -15 0 -12 -41 -26 -60 -21 -10 3 -8 -1 4 -11 11 -9 30
-16 43 -16 30 0 29 -15 -2 -36 -17 -11 -37 -15 -60 -11 l-35 6 15 -30 c9 -16
21 -29 28 -29 6 0 4 -5 -6 -11 -13 -8 -31 -8 -60 -1 -23 6 -43 9 -45 8 -7 -8
61 -76 76 -76 21 0 4 -17 -23 -22 -17 -4 -16 -7 10 -17 17 -7 45 -13 62 -14
19 -1 28 -4 21 -8 -14 -9 0 -16 42 -21 l25 -3 -32 -33 c-27 -27 -38 -32 -80
-32 -26 1 -59 7 -73 15 -33 19 -41 18 -33 -1 5 -14 1 -16 -20 -12 -32 6 -35
-5 -6 -25 14 -11 17 -17 9 -22 -16 -10 7 -25 38 -25 26 0 29 -15 5 -29 -17 -9
-17 -10 0 -16 9 -4 23 -5 31 -2 8 3 13 -1 12 -11 -1 -12 6 -16 22 -15 12 2 22
-2 22 -8 0 -7 19 -10 50 -7 34 2 50 -1 50 -9 0 -15 -79 -27 -132 -20 l-41 6
26 -27 c16 -16 42 -28 69 -32 l43 -7 -37 -16 c-20 -9 -44 -14 -52 -11 -18 7
-21 -7 -5 -23 16 -16 2 -33 -27 -33 -13 0 -24 -4 -24 -9 0 -13 68 -34 91 -28
23 6 25 -9 2 -21 -14 -9 -14 -11 6 -22 12 -6 29 -9 38 -6 11 5 13 2 9 -10 -3
-8 -6 -18 -6 -20 0 -2 -7 -4 -15 -4 -20 0 -19 -27 2 -39 27 -14 -49 -26 -76
-12 -18 10 -21 9 -21 -9 0 -14 -7 -20 -21 -20 -19 0 -18 4 14 39 49 54 63 81
42 81 -9 0 -32 -8 -53 -19 -66 -33 -119 -46 -137 -31 -20 17 -10 30 23 30 23
0 34 10 60 53 39 64 39 71 7 63 -31 -8 -31 -5 -2 42 48 76 41 92 -19 45 -52
-39 -62 -20 -29 58 41 100 41 96 3 91 -32 -5 -33 -4 -15 15 24 27 21 43 -7 43
-34 0 -40 14 -16 35 11 10 20 27 20 37 0 16 -3 17 -20 8 -19 -10 -20 -9 -14
32 7 41 6 42 -12 28 -10 -8 -26 -24 -36 -35 -9 -11 -19 -17 -22 -14 -3 3 12
30 34 59 46 62 49 74 15 58 -14 -6 -27 -9 -29 -7 -3 2 1 23 7 46 10 39 9 45
-11 66 -13 13 -26 42 -29 63 l-7 39 -7 -30 c-4 -16 -7 -49 -8 -72 -1 -31 -7
-46 -21 -55 -26 -16 -25 -30 1 -46 28 -18 20 -24 -19 -13 -40 12 -40 5 0 -36
39 -41 31 -53 -16 -23 -39 24 -49 11 -21 -26 21 -28 18 -35 -10 -24 -39 15
-39 -6 0 -47 33 -35 54 -78 43 -89 -3 -2 -22 9 -43 26 -56 44 -57 39 -7 -27
l24 -33 -53 0 -52 0 21 -22 c27 -30 63 -111 53 -121 -13 -13 -41 4 -41 25 0
10 -4 16 -10 13 -14 -9 -12 8 3 24 10 11 8 12 -13 7 -14 -4 -52 -10 -86 -13
-48 -4 -63 -2 -77 11 -25 26 -21 36 11 24 31 -12 102 -3 102 12 0 6 -5 10 -11
10 -5 0 3 11 18 25 l28 24 -38 1 c-44 0 -83 18 -112 51 -11 12 -14 19 -6 14
29 -17 83 -23 119 -13 22 7 31 13 22 16 -63 21 -66 23 -47 33 24 14 21 29 -5
29 -12 0 -42 12 -67 27 -40 24 -43 28 -23 31 24 4 29 17 10 25 -7 3 5 6 27 7
38 1 107 28 75 30 -8 0 -1 8 15 18 l30 17 -33 3 c-31 3 -33 4 -15 17 17 13 16
14 -14 15 -34 0 -83 18 -83 30 0 4 10 10 22 13 24 7 18 19 -9 23 -39 6 -84 44
-53 44 18 0 10 18 -10 23 -12 3 -20 14 -20 26 0 17 4 20 24 15 36 -9 103 14
139 47 23 21 26 27 10 20 -35 -17 -53 -13 -53 11 0 17 -3 19 -12 10 -7 -7 -30
-12 -53 -11 -22 0 -33 3 -25 6 8 3 21 11 29 17 11 9 6 12 -25 16 -32 4 -40 9
-42 30 -2 14 -1 22 3 18 4 -4 17 -2 28 3 19 11 19 12 -12 36 -39 31 -40 60 -3
74 l27 11 -24 9 c-23 9 -24 10 -5 24 18 14 18 14 -2 15 -26 0 -34 17 -35 78
-1 42 -2 40 -11 -23 -7 -51 -15 -75 -30 -88 l-21 -18 21 -6 c17 -4 22 -13 22
-40 0 -29 -5 -36 -31 -47 l-31 -13 23 -17 c24 -17 24 -17 5 -31 -11 -8 -30
-15 -43 -15 -32 0 -29 -18 5 -31 25 -10 26 -12 7 -19 -29 -12 -83 -12 -87 1
-2 7 -12 7 -31 -2 -33 -15 -42 -8 -27 21 7 12 8 20 3 18 -131 -65 -201 -60
-261 20 l-25 32 46 0 c25 0 49 5 52 10 3 6 -1 10 -9 10 -9 0 -16 4 -16 8 0 5
13 7 30 4 30 -4 130 26 130 40 0 4 -6 5 -13 2 -7 -2 -23 -1 -36 4 -21 8 -21 9
15 32 21 14 47 40 58 59 20 34 20 35 0 27 -28 -12 -101 -19 -118 -13 -12 5 -9
12 14 36 37 36 41 66 8 55 -52 -18 -118 2 -118 36 0 15 7 20 28 20 16 0 37 7
48 15 18 14 18 14 -6 15 -28 0 -70 25 -70 42 0 5 7 7 16 4 28 -11 94 14 132
49 l37 33 -40 -7 c-44 -8 -101 1 -118 18 -8 8 -6 11 9 11 12 0 29 9 39 20 18
20 17 20 -13 20 -18 0 -42 10 -59 24 l-28 24 28 11 c35 14 34 23 -6 41 -27 13
-32 21 -35 56 -3 36 0 42 25 53 27 13 27 14 7 21 -32 12 -35 22 -43 118 l-7
87 -9 -75 c-10 -73 -11 -75 -40 -80 l-30 -5 22 -16 c25 -17 21 -29 -9 -29 -29
0 -21 -20 12 -26 25 -5 30 -11 30 -35 0 -34 -31 -69 -61 -69 -31 0 -18 -23 20
-35 26 -8 31 -14 29 -35 -3 -23 -7 -25 -51 -25 -26 0 -47 -3 -47 -8 0 -4 14
-16 31 -26 26 -16 28 -20 13 -23 -20 -4 -65 4 -98 18 -16 6 -18 4 -13 -15 7
-29 -13 -37 -48 -18 -19 9 -33 29 -44 62 -20 61 -41 71 -41 21 0 -20 -6 -52
-14 -71 -12 -28 -12 -36 0 -52 20 -26 17 -33 -13 -33 l-27 0 29 -30 c34 -36
28 -47 -14 -26 -46 24 -55 19 -29 -15 13 -17 30 -40 38 -52 16 -22 19 -22 -57
-1 -29 8 -30 -9 -3 -43 28 -36 25 -42 -20 -36 -33 5 -40 3 -40 -11 0 -9 8 -19
18 -22 9 -3 24 -9 32 -13 18 -10 61 -91 54 -102 -7 -11 -41 6 -76 39 -16 14
-28 21 -28 15 0 -6 7 -16 16 -24 20 -17 47 -69 39 -77 -3 -4 -26 1 -51 10 -42
15 -44 15 -44 -4 0 -11 14 -50 30 -88 29 -66 38 -110 22 -110 -4 0 -30 16 -57
36 -39 27 -51 32 -53 20 -4 -21 42 -99 88 -146 29 -30 36 -45 33 -64 -5 -23
-2 -26 22 -26 24 0 26 -2 14 -16 -10 -12 -23 -14 -51 -10 -30 5 -38 3 -38 -9
0 -22 -13 -19 -76 16 -63 36 -85 30 -68 -18 6 -20 36 -45 99 -84 49 -31 91
-61 93 -68 2 -6 -10 -16 -28 -22 -30 -11 -30 -12 -15 -36 9 -14 15 -26 13 -28
-2 -2 -34 24 -73 57 -98 84 -125 93 -125 40 1 -62 52 -135 135 -192 62 -42 61
-64 -2 -56 -66 10 -84 16 -78 27 4 5 -14 9 -39 9 -25 0 -46 5 -46 10 0 6 5 10
10 10 16 0 60 47 60 64 0 13 -3 13 -27 0 -37 -19 -64 -18 -57 1 7 17 -11 21
-21 5 -11 -18 -23 -10 -17 12 4 19 2 20 -19 14 -50 -16 -69 -18 -69 -9 0 5 22
37 50 71 27 34 48 62 46 62 -2 0 -34 -14 -70 -31 -63 -30 -68 -30 -91 -15 -35
23 -31 33 15 47 22 7 47 20 56 30 15 17 15 19 0 25 -26 10 -18 24 15 24 17 0
54 10 82 22 l52 23 -49 7 c-62 9 -73 19 -52 49 25 37 21 49 -15 42 -29 -5 -31
-4 -24 16 7 24 2 26 -27 10 -15 -8 -27 -8 -47 1 -25 12 -24 13 36 25 69 15
104 34 129 72 16 25 16 26 -2 19 -29 -12 -140 -20 -161 -12 -17 7 -16 9 6 27
13 10 32 19 42 19 10 0 19 7 19 15 0 11 7 14 24 9 14 -3 34 -3 46 1 19 6 20 8
6 24 -14 15 -12 16 24 16 51 0 56 8 26 38 -34 34 -33 44 7 39 17 -2 46 2 62 8
30 12 30 12 8 23 -28 12 -30 27 -4 27 21 0 51 35 51 58 0 10 -5 10 -22 -2 -12
-9 -33 -16 -46 -16 -20 0 -21 3 -12 21 17 31 7 33 -41 9 -23 -12 -68 -25 -99
-27 -83 -8 -137 23 -185 106 -6 10 0 12 31 7 26 -4 48 -1 64 9 18 10 20 14 8
15 -9 0 -19 4 -22 9 -3 4 18 8 47 8 35 -1 68 7 102 23 l50 24 -35 3 c-60 6
-68 13 -35 30 17 8 41 25 53 37 24 21 57 75 50 81 -2 2 -27 -3 -56 -10 -34 -9
-67 -12 -90 -7 l-37 8 29 19 c23 16 56 67 56 89 0 3 -12 1 -26 -4 -40 -16 -86
-12 -121 10 -40 24 -46 62 -10 60 40 -4 54 0 77 18 l22 18 -35 0 c-34 0 -77
26 -77 46 0 4 18 8 40 8 22 0 55 6 73 13 34 15 97 64 97 76 0 4 -22 3 -49 -2
-40 -9 -57 -7 -97 8 l-49 18 30 10 c54 17 91 64 41 51 -29 -7 -86 18 -104 46
-10 17 -10 20 6 20 18 0 52 29 52 43 0 4 -13 7 -28 7 -38 0 -58 25 -66 83 -7
45 -6 47 17 47 14 0 30 7 37 15 10 12 10 15 -2 15 -8 0 -24 10 -36 23 -19 21
-22 34 -22 120 0 53 -4 97 -9 97 -4 0 -11 -37 -14 -82 -7 -86 -16 -101 -54
-95 -31 6 -29 -7 5 -32 l27 -20 -33 -7 c-40 -8 -37 -25 6 -38 28 -8 32 -13 32
-42 0 -37 -46 -84 -82 -84 -20 0 -21 -1 -3 -20 10 -11 31 -20 47 -20 24 0 28
-4 28 -30 0 -39 -29 -54 -88 -46 l-45 6 19 -21 c10 -11 32 -27 49 -34 30 -13
30 -13 -23 -14 -29 -1 -66 6 -82 14 -32 17 -45 7 -35 -25 8 -25 -22 -27 -65
-5 -44 23 -37 0 11 -34 61 -45 119 -63 183 -59 l57 3 -3 -30 c-2 -23 -11 -34
-38 -47 -35 -16 -32 -22 15 -30 17 -3 13 -8 -20 -31 -22 -15 -57 -30 -77 -33
-21 -4 -38 -10 -38 -13 0 -15 25 -31 48 -31 60 0 -25 -47 -106 -59 l-57 -8 30
-12 30 -13 -25 -10 c-14 -5 -38 -7 -54 -4 -25 5 -27 4 -15 -10 7 -8 26 -21 43
-29 27 -12 28 -13 9 -14 -38 -2 -26 -16 27 -35 30 -11 68 -17 95 -14 44 3 60
-7 30 -18 -20 -8 -19 -24 1 -24 10 0 14 -6 10 -15 -3 -8 -1 -15 5 -15 6 0 7
-5 4 -10 -3 -6 -18 -7 -32 -4 -22 6 -25 4 -20 -10 5 -13 -2 -21 -28 -32 -48
-20 -64 -18 -58 6 9 33 -31 25 -150 -31 -62 -30 -128 -54 -155 -57 -46 -5 -47
-4 -29 15 26 30 21 35 -27 28 -50 -8 -111 8 -120 30 -7 20 3 24 53 23 59 -1
74 17 39 44 -16 11 -28 26 -28 33 0 8 31 44 70 81 38 37 73 77 76 88 4 11 29
56 56 99 27 44 52 85 55 93 3 8 -47 -11 -117 -46 -170 -83 -184 -80 -124 28
21 37 41 90 46 117 5 34 14 55 29 65 68 47 89 92 50 105 -11 3 -57 1 -102 -5
-45 -5 -84 -8 -86 -6 -2 2 15 15 37 30 45 30 100 100 100 127 0 32 -18 30 -57
-4 -46 -41 -63 -50 -129 -70 l-52 -15 14 26 c8 15 14 33 14 40 0 7 38 52 85
101 47 48 85 93 85 100 0 15 -23 14 -92 -5 -32 -9 -61 -14 -65 -10 -4 3 7 21
24 39 29 30 67 120 56 131 -7 7 -45 -9 -93 -39 -23 -15 -44 -24 -48 -21 -3 3
10 29 28 58 59 94 82 139 75 146 -3 4 -40 -11 -80 -33 -55 -29 -77 -37 -86
-28 -21 21 -5 47 39 63 51 19 77 43 69 64 -6 16 -19 16 -79 -1 -27 -7 -22 15
12 54 37 42 37 50 0 71 -30 17 -38 36 -20 47 11 7 8 28 -21 128 -20 67 -39 88
-39 42 0 -14 -4 -25 -10 -25 -5 0 -10 -24 -10 -54 0 -45 -6 -63 -36 -107 l-35
-53 17 -32 c22 -41 15 -49 -38 -45 l-41 3 19 -33 c10 -17 34 -40 51 -49 48
-25 63 -40 63 -61 0 -32 -16 -29 -86 16 -38 25 -77 45 -86 45 -24 0 -32 -18
-10 -24 34 -11 74 -64 98 -131 14 -37 38 -84 54 -103 64 -78 -5 -40 -91 50
-30 32 -59 58 -63 58 -11 0 3 -73 25 -137 10 -29 17 -53 15 -53 -2 0 -27 13
-57 30 -30 16 -57 30 -61 30 -21 0 -4 -46 27 -75 40 -38 36 -41 -53 -51 l-57
-7 20 23 20 23 -80 -7 c-74 -6 -83 -5 -100 14 -24 26 -17 32 51 41 31 4 59 11
62 14 4 4 -9 20 -28 37 l-35 29 67 62 c88 82 188 234 188 287 0 28 -10 25 -69
-15 -81 -56 -191 -93 -191 -65 0 6 18 44 40 84 22 40 40 82 40 93 0 39 21 78
49 95 16 9 37 30 46 47 14 29 14 32 -1 38 -9 3 -59 3 -111 0 l-95 -7 25 20
c14 11 30 20 35 20 11 0 82 92 82 106 0 5 -4 15 -9 23 -8 12 -21 7 -73 -27
-68 -44 -108 -62 -139 -62 -34 0 -21 26 48 97 84 85 133 142 133 154 0 14 -63
11 -110 -6 -23 -8 -44 -15 -46 -15 -12 0 -1 24 21 46 27 27 71 121 61 131 -3
3 -35 -6 -70 -21 -36 -16 -70 -26 -77 -24 -6 2 9 26 33 53 82 93 94 119 57
130 -14 5 -37 -3 -71 -25 -56 -34 -81 -36 -86 -3 -3 17 6 24 43 39 53 20 75
38 75 61 0 13 -9 15 -50 10 -27 -3 -50 -2 -50 2 0 5 14 25 30 46 35 44 34 55
-4 73 -20 10 -25 18 -20 30 16 36 -9 156 -40 197 -15 19 -15 19 -16 -13z m500
-2044 c27 -18 50 -37 50 -42 0 -13 -101 1 -156 22 -76 28 -67 47 24 51 21 1
49 -10 82 -31z m-177 -34 c22 -44 15 -56 -23 -42 -42 14 -59 47 -34 65 28 20
39 16 57 -23z m97 -88 c0 -3 -4 -8 -10 -11 -5 -3 -10 -1 -10 4 0 6 5 11 10 11
6 0 10 -2 10 -4z m-30 -64 c0 -38 -40 -53 -83 -30 -21 11 -20 12 18 29 52 23
65 23 65 1z m125 -171 c8 -13 -28 -23 -51 -14 -17 6 -17 8 6 14 36 10 38 10
45 0z m2004 -146 c20 -10 58 -17 93 -18 41 0 58 -4 58 -14 0 -16 -36 -53 -52
-53 -7 -1 -2 -7 12 -14 l24 -14 -34 -21 c-19 -11 -48 -21 -63 -21 -25 0 -27
-2 -17 -20 6 -11 20 -20 31 -20 12 0 17 -4 14 -11 -4 -6 -14 -8 -22 -5 -8 3
-24 1 -35 -5 -29 -16 -33 -4 -13 40 24 54 14 73 -14 28 -12 -20 -29 -37 -37
-37 -8 0 -17 0 -21 -1 -19 -2 -10 23 27 72 48 64 50 75 10 54 -42 -22 -45 -19
-16 16 34 40 33 52 -2 44 -27 -6 -28 -4 -24 25 4 31 4 31 26 12 11 -11 36 -27
55 -37z m-3118 -85 c67 -45 79 -50 132 -50 31 0 57 -4 57 -9 0 -14 -74 -40
-132 -47 -40 -5 -69 -1 -118 16 -96 32 -93 28 -59 88 16 28 33 52 38 52 4 0
42 -22 82 -50z m-137 -195 c31 -38 56 -74 56 -79 0 -13 -162 -1 -190 14 l-25
14 36 10 c36 9 36 9 21 36 -15 27 -15 29 8 54 14 14 28 25 32 23 3 -1 31 -33
62 -72z m2144 -5 c26 0 -7 -28 -46 -39 l-32 -10 17 30 c10 17 23 27 31 24 8
-3 21 -5 30 -5z m14842 -25 c0 -8 -4 -15 -10 -15 -5 0 -10 7 -10 15 0 8 5 15
10 15 6 0 10 -7 10 -15z m-15 -47 c14 -6 25 -17 25 -25 0 -15 -17 -8 -55 21
-24 18 -7 21 30 4z m-14833 -15 c20 -3 44 -14 53 -23 16 -17 15 -19 -7 -31
-13 -7 -51 -13 -85 -13 -35 -1 -63 -3 -63 -5 0 -11 45 -51 57 -51 7 0 13 -7
13 -15 0 -8 -7 -15 -15 -15 -8 0 -15 -7 -15 -15 0 -21 -46 -48 -70 -42 -16 4
-20 0 -20 -18 0 -24 -60 -70 -158 -119 -86 -44 -125 -31 -53 17 59 39 112 88
106 98 -3 4 -34 6 -69 2 -60 -5 -66 -4 -90 20 -28 28 -34 56 -13 58 6 1 29 0
51 -1 53 -2 148 47 221 115 52 48 64 54 90 49 17 -3 47 -8 67 -11z m1176 -7
c-10 -7 -15 -16 -11 -19 3 -4 -8 -7 -25 -7 -18 0 -32 2 -32 5 0 2 17 13 38 24
39 20 59 18 30 -3z m12412 9 c0 -8 -7 -15 -15 -15 -26 0 -18 20 13 29 1 1 2
-6 2 -14z m1230 -30 c10 -12 10 -15 -1 -15 -7 0 2 -16 21 -35 19 -19 30 -35
26 -35 -27 0 -95 62 -96 88 0 17 35 15 50 -3z m-16716 -48 c25 -33 56 -97 56
-117 0 -15 -23 -12 -46 6 -13 11 -15 17 -6 20 21 9 13 22 -19 33 -35 12 -92
15 -102 5 -3 -4 2 -18 13 -31 30 -39 5 -70 -99 -123 -99 -50 -164 -60 -81 -12
55 31 51 47 -15 67 -32 9 -59 23 -65 35 -12 23 -10 25 65 40 69 14 113 36 121
62 8 27 53 47 106 48 42 0 50 -4 72 -33z m15516 13 c0 -5 -7 -10 -16 -10 -8 0
-12 5 -9 10 3 6 10 10 16 10 5 0 9 -4 9 -10z m1161 -30 c9 -19 15 -36 14 -38
-1 -1 -16 5 -34 15 -20 12 -31 26 -31 41 0 35 32 24 51 -18z m-1124 -26 c-3
-3 -12 -4 -19 -1 -8 3 -5 6 6 6 11 1 17 -2 13 -5z m1091 -13 c12 -11 22 -24
22 -30 0 -6 5 -11 10 -11 7 0 7 -7 0 -21 -11 -19 -13 -20 -37 -4 -13 9 -27 14
-30 11 -8 -7 25 -56 37 -56 6 0 10 -5 10 -11 0 -8 -15 -9 -45 -4 -35 5 -45 3
-43 -7 2 -10 -19 -12 -96 -11 -54 2 -101 4 -103 6 -2 3 1 16 6 30 10 24 13 26
58 21 40 -5 52 -2 72 15 13 12 30 21 38 21 7 0 13 5 13 10 0 6 9 10 20 10 15
0 20 7 20 25 0 30 16 31 48 6z m-1042 -31 c51 0 -14 -52 -78 -63 -38 -6 -35 5
11 33 21 14 38 29 36 35 -1 5 0 7 2 3 3 -5 15 -8 29 -8z m-13376 0 c0 -5 -7
-10 -15 -10 -8 0 -15 5 -15 10 0 6 7 10 15 10 8 0 15 -4 15 -10z m3071 -25
c20 -4 55 -2 77 5 34 9 51 8 89 -5 25 -9 52 -14 60 -11 7 3 13 2 13 -2 0 -16
-24 -32 -47 -32 -13 0 -23 -4 -23 -9 0 -11 25 -21 56 -21 37 0 29 -29 -12 -46
-27 -11 -43 -13 -65 -5 -31 11 -36 3 -19 -29 11 -21 -9 -28 -102 -37 -52 -4
-59 -3 -84 22 -31 31 -27 40 10 25 35 -13 77 -13 113 1 26 9 26 11 10 21 -17
9 -16 12 12 29 17 10 31 23 31 28 0 5 -26 10 -58 13 -61 4 -112 31 -133 69
-10 19 -9 20 13 5 13 -8 39 -17 59 -21z m-1714 5 c14 -11 43 -23 65 -26 31 -5
36 -9 27 -20 -6 -8 -23 -14 -38 -14 -25 -1 -25 -1 -6 -16 11 -8 28 -13 38 -10
11 3 17 -2 17 -14 0 -22 -52 -42 -86 -34 -29 8 -30 -5 -3 -40 l20 -26 -44 0
c-27 0 -47 5 -50 13 -5 14 -9 6 -26 -68 -7 -27 -19 -55 -27 -62 -14 -10 -12
-14 10 -28 27 -18 35 -45 13 -45 -7 0 -18 5 -25 12 -9 9 -12 9 -12 0 0 -16
-29 -15 -58 2 -21 11 -22 14 -8 25 9 8 16 21 16 30 0 14 -7 17 -29 13 -16 -2
-43 4 -62 14 -20 11 -28 19 -19 20 8 2 32 5 52 9 35 5 98 47 98 64 0 4 -22 3
-48 -2 -63 -13 -165 9 -170 36 -3 16 -1 17 17 7 30 -15 117 -9 113 8 -2 9 4
11 18 7 11 -3 29 -3 41 0 16 5 18 10 8 21 -9 12 -5 14 25 14 40 0 46 9 16 28
-31 19 -25 39 9 34 16 -2 39 2 52 9 l23 12 -24 9 -24 9 24 14 c14 7 27 13 28
14 2 1 15 -8 29 -19z m13332 -20 c-22 -17 -89 -32 -89 -20 0 3 17 17 38 32 29
20 41 24 56 16 19 -10 18 -11 -5 -28z m-10281 -2 c-4 -41 -34 -58 -104 -58
-38 0 -55 5 -69 20 -24 26 -16 33 24 19 39 -14 126 5 100 22 -12 8 -12 10 1
19 8 5 23 10 33 10 15 0 18 -7 15 -32z m-3552 -4 c-22 -15 -46 -19 -46 -6 0 9
52 31 60 24 3 -2 -4 -10 -14 -18z m12584 5 c0 -5 9 -9 20 -9 12 0 35 -7 52
-16 22 -12 45 -14 78 -10 45 6 48 5 54 -20 4 -14 5 -28 3 -30 -7 -7 -152 -7
-183 0 -26 6 -31 11 -26 28 4 17 2 19 -14 10 -10 -5 -39 -13 -64 -16 -39 -5
-42 -5 -25 6 11 7 33 27 49 45 27 28 56 35 56 12z m-10812 -3 c38 -1 40 -8 11
-35 l-22 -20 26 -6 c14 -4 31 -4 36 0 6 3 11 1 11 -4 0 -6 -5 -11 -11 -11 -5
0 -7 -4 -4 -10 3 -5 19 -10 36 -10 16 0 29 -5 29 -11 0 -8 21 -10 65 -7 79 5
82 -11 6 -31 -40 -11 -65 -12 -102 -4 -27 5 -49 6 -49 2 0 -17 63 -59 98 -64
58 -10 59 -11 23 -29 -18 -10 -44 -16 -57 -13 -27 5 -34 -19 -12 -41 17 -17
-6 -32 -52 -32 l-35 -1 35 -19 c19 -11 54 -19 78 -20 43 0 58 -18 22 -27 -32
-8 -5 -33 36 -33 19 0 34 -4 34 -9 0 -12 -29 -41 -41 -41 -16 0 -10 -29 8 -39
10 -5 14 -13 10 -18 -11 -10 -87 -10 -109 1 -14 6 -18 4 -18 -13 0 -17 -6 -21
-32 -21 -37 0 -71 18 -50 27 24 10 11 21 -32 25 -24 3 -58 15 -75 27 -34 25
-43 48 -12 31 25 -13 101 -13 121 0 9 6 10 10 3 10 -6 0 -24 5 -40 11 -25 9
-26 12 -10 20 24 14 21 29 -5 29 -12 0 -42 12 -67 27 -41 25 -43 28 -23 31 16
2 22 8 18 18 -4 10 4 14 32 14 34 1 105 29 73 30 -8 0 -4 8 10 20 16 14 19 20
9 19 -8 -1 -24 -1 -34 0 -20 1 -20 1 0 16 18 14 17 14 -13 15 -18 0 -43 5 -57
11 l-25 12 22 18 c21 18 21 18 2 19 -11 0 -33 9 -50 20 -23 15 -26 20 -13 25
13 5 12 11 -11 33 l-26 27 55 6 c30 3 69 13 85 22 17 9 37 13 45 10 8 -4 30
-7 48 -7z m12126 -12 c27 -10 18 -21 -31 -38 -69 -24 -81 -20 -37 13 43 33 46
34 68 25z m-16984 -143 c40 -57 64 -75 144 -106 28 -11 36 -19 29 -26 -14 -14
-85 -23 -119 -15 -25 7 -25 8 -10 25 16 18 13 19 -60 30 -42 6 -95 20 -118 30
l-41 19 32 7 c28 6 34 14 43 49 6 22 13 47 15 54 8 22 41 -4 85 -67z m16667
-57 c-2 -2 -20 1 -40 7 -35 9 -36 10 -19 30 17 20 17 20 40 -7 13 -14 21 -28
19 -30z m-11197 36 c0 -5 -5 -10 -11 -10 -5 0 -7 5 -4 10 3 6 8 10 11 10 2 0
4 -4 4 -10z m9466 -14 c1 -17 -7 -27 -32 -40 -59 -27 -68 -19 -27 23 45 46 58
50 59 17z m-13080 -35 c-16 -17 -13 -21 44 -57 35 -22 59 -44 58 -53 -2 -8
-22 -21 -45 -29 -38 -14 -46 -14 -93 1 -90 29 -126 19 -75 -21 l25 -20 -40 -6
c-62 -10 -185 24 -177 48 2 6 47 27 101 46 84 30 102 40 127 75 33 44 82 71
87 48 2 -8 -4 -23 -12 -32z m13764 30 c0 -9 -41 -23 -48 -16 -2 2 -1 8 3 14 8
13 45 15 45 2z m95 -25 c-18 -27 -42 -40 -50 -26 -3 5 4 11 15 15 11 3 20 13
20 21 0 8 7 14 15 14 14 0 14 -3 0 -24z m753 9 c13 18 65 12 90 -12 l25 -23
-49 0 c-115 0 -214 13 -214 27 0 9 7 12 18 9 9 -3 33 -2 52 3 21 4 42 3 53 -3
12 -7 20 -8 25 -1z m-9868 -30 c-7 -8 -22 -15 -34 -15 -21 -1 -21 -1 -1 -16
11 -8 25 -12 32 -10 16 7 17 -16 1 -32 -18 -18 -59 -16 -52 3 4 11 -1 15 -17
15 -21 0 -69 35 -69 50 0 3 18 4 39 2 22 -2 48 1 58 7 10 6 26 11 37 11 15 0
16 -3 6 -15z m-3016 -16 c-8 -14 -24 -10 -24 6 0 9 6 12 15 9 8 -4 12 -10 9
-15z m1851 -9 c3 -5 1 -10 -4 -10 -6 0 -11 5 -11 10 0 6 2 10 4 10 3 0 8 -4
11 -10z m-1773 -37 c-19 -7 -4 -23 24 -23 30 0 30 -10 -1 -40 -15 -14 -40 -24
-65 -26 l-41 -4 20 29 c27 38 26 45 -4 37 -24 -6 -25 -5 -13 14 10 15 23 20
53 19 22 0 34 -3 27 -6z m1808 -13 c30 -4 49 -8 43 -9 -29 -3 -10 -21 22 -21
37 0 42 -6 22 -30 -41 -52 -122 -65 -190 -31 -37 19 -38 19 -32 0 6 -18 2 -19
-30 -16 -20 2 -46 13 -58 25 l-21 22 52 0 c61 0 121 25 103 43 -20 20 -13 39
12 31 12 -4 47 -10 77 -14z m9440 10 c0 -5 -2 -10 -4 -10 -3 0 -8 5 -11 10 -3
6 -1 10 4 10 6 0 11 -4 11 -10z m-11450 -101 c0 -6 -4 -7 -10 -4 -5 3 -10 11
-10 16 0 6 5 7 10 4 6 -3 10 -11 10 -16z m11470 17 c0 -3 -4 -8 -10 -11 -5 -3
-10 -1 -10 4 0 6 5 11 10 11 6 0 10 -2 10 -4z m-11499 -32 c13 -32 10 -47 -7
-40 -26 10 -6 -35 32 -72 19 -18 34 -34 34 -37 0 -11 -33 -4 -71 16 -43 21
-61 21 -34 -1 25 -21 17 -30 -27 -30 -58 0 -73 11 -48 33 22 19 26 37 8 37
-14 0 -48 30 -48 42 0 4 17 8 38 8 48 0 71 19 40 34 -39 20 -30 31 24 30 41
-1 53 -6 59 -20z m9899 16 c0 -5 -5 -10 -11 -10 -5 0 -7 5 -4 10 3 6 8 10 11
10 2 0 4 -4 4 -10z m3295 -10 c3 -6 -1 -7 -9 -4 -18 7 -21 14 -7 14 6 0 13 -4
16 -10z m-1745 -10 c0 -5 -7 -10 -16 -10 -8 0 -12 5 -9 10 3 6 10 10 16 10 5
0 9 -4 9 -10z m-15050 -10 c0 -5 9 -10 19 -10 15 0 39 -28 29 -35 -7 -4 -231
14 -236 20 -15 14 27 26 78 21 30 -2 64 0 75 4 27 12 35 12 35 0z m16780 0 c0
-5 -7 -7 -15 -4 -8 4 -15 8 -15 10 0 2 7 4 15 4 8 0 15 -4 15 -10z m-120 -10
c0 -5 6 -10 13 -10 7 0 19 -10 27 -21 8 -12 21 -28 28 -35 17 -18 7 -34 -22
-34 -25 0 -51 22 -39 33 3 4 -2 7 -12 7 -22 0 -55 28 -55 46 0 11 9 15 53 23
4 0 7 -3 7 -9z m-3225 -10 c3 -5 2 -10 -4 -10 -5 0 -13 5 -16 10 -3 6 -2 10 4
10 5 0 13 -4 16 -10z m3111 -5 c-22 -17 -46 -20 -46 -6 0 11 18 19 45 20 20 0
20 0 1 -14z m-11046 -5 c0 -5 -8 -10 -17 -10 -15 0 -16 2 -3 10 19 12 20 12
20 0z m8005 -20 c-3 -5 -11 -10 -16 -10 -6 0 -7 5 -4 10 3 6 11 10 16 10 6 0
7 -4 4 -10z m2341 -15 c19 -29 10 -52 -12 -30 -8 8 -23 19 -32 25 -15 8 -15
11 -2 20 22 14 28 13 46 -15z m-572 -14 c3 -5 -8 -14 -24 -20 -32 -11 -41 2
-12 18 21 13 29 13 36 2z m-1870 -49 c27 -20 27 -22 7 -22 -26 0 -81 27 -81
40 0 10 33 19 40 10 3 -3 18 -16 34 -28z m-11424 14 c0 -3 -4 -8 -10 -11 -5
-3 -10 -1 -10 4 0 6 5 11 10 11 6 0 10 -2 10 -4z m1910 -6 c0 -11 -50 -34 -57
-26 -3 2 8 11 24 20 34 19 33 18 33 6z m9440 -20 c6 -11 23 -26 38 -34 22 -13
23 -15 7 -15 -33 1 -70 14 -70 24 0 6 -3 15 -7 21 -8 12 -1 24 13 24 5 0 13
-9 19 -20z m1980 -5 c0 -8 5 -15 10 -15 16 0 12 -27 -6 -34 -8 -3 -12 -2 -9 4
10 16 -7 11 -50 -13 -55 -31 -73 -38 -80 -27 -3 5 9 16 27 25 47 22 81 53 73
65 -3 5 3 10 14 10 12 0 21 -7 21 -15z m1330 5 c0 -5 -6 -10 -14 -10 -8 0 -18
5 -21 10 -3 6 3 10 14 10 12 0 21 -4 21 -10z m-14752 -10 c17 0 32 -4 32 -9 0
-22 -93 -24 -164 -4 -16 4 -18 1 -12 -21 6 -25 5 -26 -21 -20 -111 27 -70 68
57 58 41 -3 90 -5 108 -4z m3019 -7 c12 -3 35 -1 51 5 20 7 33 6 45 -3 26 -19
21 -23 -37 -30 -64 -8 -92 -1 -107 27 -10 19 -9 20 7 13 11 -4 29 -10 41 -12z
m8356 11 c-8 -4 -9 -13 -3 -29 5 -12 6 -26 3 -29 -8 -8 -78 -8 -86 0 -13 13
57 62 88 62 6 0 5 -2 -2 -4z m3557 -4 c0 -5 -4 -10 -10 -10 -5 0 -10 5 -10 10
0 6 5 10 10 10 6 0 10 -4 10 -10z m-11190 -10 c0 -5 16 -10 36 -10 24 0 34 -4
32 -12 -7 -20 -43 -21 -77 -3 -35 18 -41 35 -11 35 11 0 20 -4 20 -10z m7525
-10 c-3 -5 -10 -10 -16 -10 -5 0 -9 5 -9 10 0 6 7 10 16 10 8 0 12 -4 9 -10z
m2219 -39 c3 -4 26 -14 51 -21 37 -10 43 -15 33 -27 -11 -14 -34 -13 -120 3
-25 5 -26 7 -13 20 8 9 15 20 15 25 0 11 27 12 34 0z m-3174 -5 c0 -3 -4 -8
-10 -11 -5 -3 -10 -1 -10 4 0 6 5 11 10 11 6 0 10 -2 10 -4z m2468 -18 c2 -9
-5 -18 -14 -22 -22 -9 -27 -2 -19 24 7 23 28 22 33 -2z m1148 -16 c-22 -5 -30
3 -21 18 5 8 11 7 22 -2 15 -12 14 -13 -1 -16z m918 3 c-4 -8 -15 -15 -26 -15
-17 0 -18 3 -8 15 7 8 19 15 26 15 8 0 11 -6 8 -15z m-12504 -90 c0 -6 -5 -16
-11 -22 -8 -8 -5 -13 10 -18 12 -3 21 -11 21 -17 0 -7 -23 -8 -72 -3 -40 3
-88 8 -106 9 -29 3 -72 30 -72 46 0 4 14 5 30 2 17 -2 44 1 60 8 24 10 29 17
24 35 -5 20 -3 23 15 18 14 -3 23 0 27 11 5 14 13 10 40 -21 18 -21 33 -43 34
-48z m9970 76 c0 -12 -20 -25 -27 -18 -7 7 6 27 18 27 5 0 9 -4 9 -9z m-1660
-29 c22 -10 71 -16 133 -18 91 -2 117 -7 106 -19 -3 -2 -63 -7 -134 -11 -152
-8 -216 3 -208 36 3 11 12 20 19 20 8 0 14 4 14 10 0 10 16 6 70 -18z m2182
-13 c21 -22 38 -43 38 -45 0 -9 -30 -3 -42 9 -18 19 -78 30 -78 15 0 -6 -3 -9
-6 -5 -6 5 35 65 45 66 3 1 22 -17 43 -40z m-154 -3 c3 -12 -1 -17 -10 -14 -7
3 -15 13 -16 22 -3 12 1 17 10 14 7 -3 15 -13 16 -22z m699 18 c-3 -3 -12 -4
-19 -1 -8 3 -5 6 6 6 11 1 17 -2 13 -5z m-1897 -14 c0 -5 -6 -10 -14 -10 -8 0
-18 5 -21 10 -3 6 3 10 14 10 12 0 21 -4 21 -10z m2600 -10 c0 -5 -10 -10 -22
-9 -22 0 -22 1 -3 9 11 5 21 9 23 9 1 1 2 -3 2 -9z m-1435 -53 c-9 -4 -24 -3
-37 4 -22 12 -22 12 -3 19 11 4 28 2 37 -4 15 -9 15 -12 3 -19z m863 16 c5
-18 -36 -17 -54 1 -12 12 -9 14 18 13 17 -1 33 -8 36 -14z m-15448 -12 c0 -10
-7 -22 -16 -25 -44 -17 -82 6 -49 31 28 20 65 17 65 -6z m14730 -10 c0 -11
-47 -31 -54 -24 -13 14 -5 32 17 35 25 4 37 1 37 -11z m-2298 -3 c21 -12 68
-57 68 -65 0 -8 -66 -43 -82 -43 -13 0 -71 -23 -120 -48 -5 -2 -8 0 -8 5 0 4
15 14 33 22 35 16 89 66 80 75 -11 11 -69 6 -81 -6 -8 -8 -15 -9 -22 -2 -17
17 20 53 65 63 22 5 41 9 43 10 1 1 12 -5 24 -11z m1823 2 c4 -6 -6 -10 -22
-9 -25 0 -26 1 -8 9 11 5 21 9 22 9 1 1 5 -3 8 -9z m265 0 c0 -5 -10 -10 -22
-9 -22 0 -22 1 -3 9 11 5 21 9 23 9 1 1 2 -3 2 -9z m-624 -21 c18 -20 18 -20
-11 -13 -39 9 -43 13 -25 24 8 6 15 10 16 10 0 0 9 -9 20 -21z m-8313 -49 c39
0 44 8 27 41 -16 29 -7 24 41 -24 24 -24 53 -49 64 -55 11 -6 17 -14 13 -18
-4 -4 -13 -2 -20 3 -17 14 -78 22 -84 11 -17 -27 -104 23 -130 75 l-16 32 34
-32 c26 -25 43 -33 71 -33z m-5428 19 c0 -8 -13 -15 -32 -17 -34 -3 -44 13
-22 35 14 14 54 1 54 -18z m9829 6 c4 -11 -2 -15 -21 -15 -21 0 -24 2 -13 15
7 8 16 15 20 15 4 0 10 -7 14 -15z m-5859 -5 c3 -6 -1 -7 -9 -4 -18 7 -21 14
-7 14 6 0 13 -4 16 -10z m-2078 -27 c-9 -9 -19 -14 -23 -11 -10 10 6 28 24 28
15 0 15 -1 -1 -17z m3048 -3 c-8 -25 11 -27 43 -4 21 15 22 14 22 -13 0 -17 8
-33 20 -41 28 -17 25 -30 -7 -24 -21 4 -25 2 -20 -12 10 -24 -55 -22 -77 3
-17 19 -17 20 6 23 12 2 24 10 26 18 2 13 -6 15 -39 12 -22 -2 -46 1 -52 7 -8
8 -8 11 2 11 7 0 24 9 38 20 14 11 30 20 35 20 5 0 6 -9 3 -20z m8818 10 c8 0
8 -3 0 -11 -13 -13 -56 -2 -47 12 3 6 13 8 21 5 8 -3 20 -6 26 -6z m245 -20
c10 -16 10 -20 -2 -20 -17 0 -38 24 -29 33 10 11 17 8 31 -13z m436 -15 c1 -9
9 -21 17 -27 11 -8 10 -9 -4 -4 -10 3 -21 6 -23 6 -2 0 -4 12 -4 27 0 28 10
27 14 -2z m141 15 c-3 -5 -13 -10 -21 -10 -8 0 -12 5 -9 10 3 6 13 10 21 10 8
0 12 -4 9 -10z m620 0 c-3 -5 -13 -10 -21 -10 -8 0 -12 5 -9 10 3 6 13 10 21
10 8 0 12 -4 9 -10z m-11175 -9 c0 -5 -9 -7 -20 -4 -11 3 -20 7 -20 9 0 2 9 4
20 4 11 0 20 -4 20 -9z m5814 -18 c-20 -15 -34 -17 -34 -5 0 16 23 30 38 25
13 -5 12 -8 -4 -20z m2600 8 c3 -4 17 -6 31 -3 15 2 25 0 25 -7 0 -6 14 -11
30 -11 17 0 30 -5 30 -11 0 -7 8 -18 18 -25 15 -12 13 -13 -20 -14 -50 0 -41
-23 14 -36 50 -11 63 -34 20 -34 -44 0 -119 37 -144 70 -24 33 -55 42 -43 13
4 -10 10 -31 13 -48 3 -16 12 -35 20 -41 12 -9 6 -14 -33 -28 -68 -23 -115
-22 -115 3 0 10 7 21 15 25 8 3 14 9 14 13 -4 16 13 43 23 37 5 -3 12 3 15 15
3 12 9 21 14 21 5 0 9 10 9 23 0 28 52 59 64 38z m2241 -1 c3 -5 18 -10 31
-10 29 0 28 -23 -1 -28 -9 -2 -15 0 -11 6 3 6 -7 9 -26 8 -23 -1 -33 4 -36 17
-4 19 32 25 43 7z m1024 -6 c2 -2 -7 -4 -22 -4 -14 0 -29 5 -32 10 -6 10 42 4
54 -6z m-12905 -4 c-6 -6 -30 -14 -54 -18 l-44 -7 42 -19 c45 -20 50 -39 13
-44 -23 -4 -64 27 -82 60 -8 14 -3 19 23 27 46 13 115 14 102 1z m-1154 -16
c39 -8 72 -20 75 -25 4 -5 13 -9 20 -9 8 0 29 -9 47 -20 l33 -20 -39 0 c-33 0
-37 2 -26 15 11 13 6 15 -38 15 -56 0 -138 24 -162 46 -12 12 -12 14 3 14 10
0 49 -7 87 -16z m980 -13 c0 -15 9 -40 21 -55 11 -14 16 -26 10 -26 -5 0 -13
5 -16 10 -12 20 -26 10 -15 -10 9 -17 8 -20 -13 -20 -27 0 -127 48 -127 60 0
17 85 69 113 70 23 0 27 -4 27 -29z m7260 8 c0 -16 5 -20 20 -16 12 3 20 0 20
-7 0 -6 9 -19 20 -29 11 -9 20 -23 20 -31 0 -7 9 -16 20 -19 11 -3 20 -13 20
-24 0 -20 57 -63 83 -63 9 0 17 -5 17 -11 0 -8 -14 -10 -40 -6 -51 7 -170 75
-163 94 3 9 -3 13 -19 13 -32 0 -61 31 -51 56 10 30 34 64 44 64 5 0 9 -10 9
-21z m2790 13 c0 -29 -50 -42 -69 -18 -10 12 -7 15 21 19 18 2 36 5 41 5 4 1
7 -2 7 -6z m1280 -2 c0 -5 -4 -10 -9 -10 -6 0 -13 5 -16 10 -3 6 1 10 9 10 9
0 16 -4 16 -10z m-10480 -10 c0 -5 -4 -10 -10 -10 -5 0 -10 5 -10 10 0 6 5 10
10 10 6 0 10 -4 10 -10z m656 -21 c9 -15 -63 -10 -75 5 -9 11 -9 15 1 18 16 6
66 -10 74 -23z m1932 -6 c23 -8 42 -17 42 -20 0 -5 -131 7 -143 14 -14 8 27
33 43 27 8 -4 34 -13 58 -21z m8572 17 c0 -5 -7 -10 -15 -10 -8 0 -15 5 -15
10 0 6 7 10 15 10 8 0 15 -4 15 -10z m-10185 -20 c3 -6 -1 -13 -10 -16 -19 -8
-30 0 -20 15 8 14 22 14 30 1z m9455 -20 c-9 -6 -19 -5 -25 1 -6 6 -5 13 5 19
9 6 19 5 25 -1 6 -6 5 -13 -5 -19z m-4710 -1 c0 -5 -4 -9 -10 -9 -5 0 -10 7
-10 16 0 8 5 12 10 9 6 -3 10 -10 10 -16z m-22 -52 c4 -31 -5 -35 -24 -9 -13
16 -13 16 -14 -3 0 -38 -37 -83 -76 -94 -36 -10 -65 -4 -35 7 7 2 20 12 27 21
99 118 116 129 122 78z m-7418 4 l25 -19 -28 -7 c-16 -4 -46 -5 -68 -2 -33 4
-39 3 -35 -10 4 -9 1 -13 -10 -11 -27 5 -17 22 28 45 52 27 57 27 88 4z m705
-2 c10 -15 -1 -22 -24 -14 -12 3 -19 11 -16 16 8 12 32 11 40 -2z m3535 1 c0
-19 -31 -23 -48 -6 -15 15 -14 16 16 16 18 0 32 -5 32 -10z m70 0 c0 -5 -5
-10 -11 -10 -5 0 -7 5 -4 10 3 6 8 10 11 10 2 0 4 -4 4 -10z m7850 -18 c0 -4
-9 -8 -20 -9 -11 -1 -20 3 -20 8 0 6 5 7 10 4 6 -3 10 -1 10 5 0 6 5 8 10 5 6
-3 10 -9 10 -13z m1320 9 c0 -6 -5 -13 -10 -16 -14 -9 -52 4 -45 16 8 12 55
12 55 0z m-630 -32 c0 -5 -9 -9 -20 -9 -22 0 -27 16 -7 23 15 5 27 -1 27 -14z
m-8375 -18 c-5 -15 0 -21 25 -26 34 -7 41 -24 10 -26 -11 -1 -28 -2 -37 -3
-19 -1 -29 33 -19 60 8 21 28 17 21 -5z m-3718 -12 c6 -6 9 -18 6 -25 -3 -8 2
-17 11 -20 29 -11 17 -24 -24 -24 -43 0 -48 8 -30 54 10 28 20 32 37 15z
m9979 -10 c3 -6 26 -20 50 -31 24 -10 44 -23 44 -28 0 -13 -59 -13 -101 1 -19
6 -40 13 -47 15 -9 3 -6 11 10 28 26 28 34 31 44 15z m-9041 -9 c19 -8 19 -9
-2 -9 -12 -1 -25 4 -28 9 -7 12 2 12 30 0z m579 -6 c3 -8 2 -12 -4 -9 -6 3
-10 10 -10 16 0 14 7 11 14 -7z m5303 -11 c4 -12 -66 -48 -75 -38 -3 3 5 16
18 30 25 26 50 30 57 8z m38 -53 c0 -26 -13 -34 -34 -21 -10 7 -11 13 -1 30
14 28 35 22 35 -9z m-5335 -3 c24 -10 24 -11 3 -14 -20 -4 -83 21 -83 32 0 7
46 -4 80 -18z m566 -12 c-14 -21 -24 -25 -69 -25 -28 0 -59 5 -67 10 -12 8
-11 10 7 10 12 0 25 5 28 10 10 16 28 12 21 -5 -8 -22 16 -18 55 8 41 28 47
26 25 -8z m5305 15 c26 0 16 -16 -22 -35 -17 -9 -39 -13 -55 -9 l-26 7 32 15
c18 9 35 22 38 31 4 10 7 11 10 3 2 -7 13 -12 23 -12z m-766 -20 c3 -5 -1 -10
-9 -10 -9 0 -16 5 -16 10 0 6 4 10 9 10 6 0 13 -4 16 -10z m-5027 -9 c11 -6
10 -9 -5 -13 -10 -3 -24 -3 -32 0 -11 4 -11 6 0 13 17 11 21 11 37 0z m5858
-11 c17 0 17 -2 2 -35 -8 -18 -19 -25 -40 -25 -33 0 -34 4 -8 32 11 12 20 29
21 37 0 11 2 12 6 4 2 -7 11 -13 19 -13z m2328 5 c-4 -8 -10 -15 -15 -15 -4 0
-6 7 -3 15 4 8 10 15 15 15 4 0 6 -7 3 -15z m-912 -48 c28 -8 21 -30 -19 -57
-38 -26 -83 -34 -83 -15 0 6 14 22 32 35 29 22 30 24 13 36 -18 13 -18 14 1
33 19 18 19 18 28 -4 5 -13 18 -26 28 -28z m-2308 37 c21 -8 20 -20 -1 -28
-17 -7 -36 12 -27 26 6 10 8 10 28 2z m998 -17 c25 2 38 -2 42 -13 10 -26 -3
-34 -53 -34 -50 0 -71 12 -71 43 0 15 4 17 23 10 12 -4 38 -7 59 -6z m-702
-17 c0 -5 -7 -10 -15 -10 -8 0 -15 5 -15 10 0 6 7 10 15 10 8 0 15 -4 15 -10z
m5335 1 c3 -5 1 -12 -5 -16 -5 -3 -10 1 -10 9 0 18 6 21 15 7z m-8752 -21 c5
-4 -3 -5 -17 -3 -15 3 -29 10 -32 15 -7 11 36 1 49 -12z m3572 1 c-3 -6 -11
-11 -17 -11 -6 0 -6 6 2 15 14 17 26 13 15 -4z m62 -12 c12 -12 -29 -59 -52
-59 -20 0 -19 7 6 41 22 32 29 35 46 18z m2903 1 c0 -5 -4 -10 -10 -10 -5 0
-10 5 -10 10 0 6 5 10 10 10 6 0 10 -4 10 -10z m-7900 -10 c0 -10 -81 -50
-101 -50 -26 1 48 58 75 58 14 0 26 -4 26 -8z m1520 -10 c0 -5 -5 -10 -11 -10
-7 0 0 -11 15 -25 29 -27 34 -45 12 -45 -8 0 -22 -3 -32 -7 -13 -5 -15 -3 -9
7 6 10 0 11 -28 6 -51 -9 -53 6 -7 48 40 36 60 45 60 26z m5330 -20 c0 -5 9
-10 20 -10 11 0 20 -5 20 -11 0 -6 9 -9 20 -6 11 3 20 1 20 -4 0 -5 10 -9 23
-9 16 0 28 -12 44 -45 26 -53 16 -65 -22 -29 -44 40 -107 58 -77 21 7 -8 13
-29 15 -47 2 -18 11 -37 21 -42 9 -5 16 -16 16 -23 0 -8 4 -15 9 -15 5 0 23
-13 40 -29 18 -17 46 -31 63 -33 40 -4 48 -25 13 -34 -35 -9 -214 41 -252 70
-29 22 -35 66 -8 66 7 0 18 12 24 28 6 15 18 37 27 50 26 35 4 26 -70 -28 -38
-27 -73 -50 -77 -50 -22 0 2 70 34 102 9 10 17 15 17 12 0 -3 14 8 30 26 17
18 30 36 30 41 0 5 5 9 10 9 6 0 10 -4 10 -10z m-5989 -18 c-7 -2 -18 1 -23 6
-8 8 -4 9 13 5 13 -4 18 -8 10 -11z m5754 -11 c-14 -14 -17 -14 -25 -1 -12 20
-4 29 21 23 19 -5 19 -7 4 -22z m-1335 0 c0 -12 -28 -22 -34 -12 -3 5 -3 11 1
15 9 9 33 7 33 -3z m915 -15 l27 -24 -34 -11 c-37 -12 -59 -12 -216 -4 -124 7
-118 27 9 28 65 1 103 6 124 17 42 22 58 21 90 -6z m-2220 -46 c44 -28 97 -55
117 -61 49 -13 57 -28 18 -35 -41 -9 -47 -21 -16 -36 14 -6 26 -15 26 -20 0
-10 -60 14 -92 37 -28 19 -38 19 -38 0 0 -20 88 -115 106 -115 8 0 14 -4 14
-10 0 -13 -69 -13 -109 1 -32 11 -39 27 -19 47 8 8 2 10 -25 5 -30 -4 -45 0
-78 21 l-41 27 46 49 c25 27 46 58 46 68 0 20 -1 20 -37 1 -54 -27 -70 -26
-49 6 9 13 16 33 16 45 0 32 29 24 115 -30z m-1269 -16 c-6 -30 -26 -49 -26
-24 0 6 -10 10 -22 10 -19 1 -17 4 12 17 34 16 34 17 10 21 l-24 4 24 13 c29
16 35 8 26 -41z m-1751 16 c3 -5 -1 -10 -9 -10 -9 0 -16 5 -16 10 0 6 4 10 9
10 6 0 13 -4 16 -10z m5373 -22 c18 -18 14 -28 -12 -28 -15 0 -26 7 -29 20 -6
23 21 28 41 8z m-3101 -4 c-3 -3 -12 -4 -19 -1 -8 3 -5 6 6 6 11 1 17 -2 13
-5z m1548 -14 c-18 -20 -45 -27 -45 -12 0 15 24 32 44 32 18 0 19 -1 1 -20z
m215 10 c0 -5 -10 -10 -22 -10 -19 0 -20 2 -8 10 19 13 30 13 30 0z m-2300
-30 c8 -5 12 -11 9 -14 -3 -3 -14 1 -25 9 -21 16 -8 20 16 5z m5136 -25 c18
-15 18 -15 -5 -13 -14 2 -26 9 -29 16 -5 17 10 15 34 -3z m-8331 -17 c7 -7 2
-8 -15 -3 -14 4 -29 12 -35 17 -7 7 -2 8 15 3 14 -4 30 -12 35 -17z m3835 -3
c20 -24 6 -28 -15 -5 -10 11 -13 20 -8 20 6 0 16 -7 23 -15z m-5393 -1 c-3 -3
-12 -4 -19 -1 -8 3 -5 6 6 6 11 1 17 -2 13 -5z m4743 -19 c14 -16 10 -18 -14
-9 -9 3 -16 10 -16 15 0 14 16 11 30 -6z m2275 5 c-3 -5 -10 -10 -16 -10 -5 0
-9 5 -9 10 0 6 7 10 16 10 8 0 12 -4 9 -10z m-2305 -51 c12 -21 1 -26 -18 -7
-6 6 -15 9 -18 5 -4 -4 10 -25 30 -47 54 -60 47 -70 -31 -44 -10 3 -4 -3 12
-15 l30 -21 -43 0 c-40 0 -43 -2 -37 -22 4 -13 13 -33 21 -45 19 -31 18 -33
-15 -33 -30 0 -39 10 -72 80 -17 36 -25 125 -10 116 22 -14 33 5 15 25 -21 23
-13 34 14 20 39 -21 97 -8 62 14 -5 3 -10 10 -10 15 0 14 59 -20 70 -41z
m3530 21 c11 -11 23 -35 27 -52 6 -29 5 -31 -18 -25 -13 4 -30 7 -37 7 -9 0
-11 7 -7 20 7 21 -9 28 -21 9 -4 -7 -21 -9 -40 -6 -19 3 -34 2 -34 -4 0 -5 4
-9 9 -9 5 0 11 -7 15 -15 4 -10 -7 -21 -34 -35 -40 -20 -80 -26 -80 -12 0 13
23 32 38 32 7 0 20 7 28 14 12 13 8 15 -33 18 -41 3 -48 6 -51 26 -3 20 0 22
52 22 30 0 58 5 62 11 3 6 17 8 29 5 13 -3 27 -2 30 4 10 17 44 11 65 -10z
m-6160 0 c0 -5 -7 -10 -15 -10 -8 0 -15 5 -15 10 0 6 7 10 15 10 8 0 15 -4 15
-10z m2355 -30 c10 -11 33 -25 51 -32 37 -13 41 -24 19 -54 -8 -10 -15 -27
-15 -36 0 -12 -8 -18 -25 -18 -32 0 -31 5 3 36 l27 26 -31 -6 c-17 -3 -44 -2
-60 3 l-29 7 35 13 c34 12 34 13 15 27 -11 9 -19 20 -17 25 1 5 -3 9 -9 9 -5
0 -7 5 -4 10 9 15 20 12 40 -10z m1460 -1 c11 -17 -1 -21 -15 -4 -8 9 -8 15
-2 15 6 0 14 -5 17 -11z m-432 -6 c-7 -2 -19 -2 -25 0 -7 3 -2 5 12 5 14 0 19
-2 13 -5z m3327 -13 c0 -5 -4 -10 -10 -10 -5 0 -10 5 -10 10 0 6 5 10 10 10 6
0 10 -4 10 -10z m-3430 -32 c0 -13 -23 -5 -28 10 -2 7 2 10 12 6 9 -3 16 -11
16 -16z m-40 -48 c0 -5 -2 -10 -4 -10 -3 0 -8 5 -11 10 -3 6 -1 10 4 10 6 0
11 -4 11 -10z m658 -2 c17 -17 15 -73 -3 -88 -14 -11 -55 -6 -55 8 0 4 9 13
20 20 25 16 17 32 -16 32 -30 0 -31 18 -1 30 31 12 41 12 55 -2z m2240 -23
c10 -22 9 -25 -7 -25 -58 0 -72 45 -15 49 6 1 16 -10 22 -24z m692 0 c10 -12
7 -14 -24 -13 -23 1 -36 6 -36 15 0 18 44 17 60 -2z m134 -31 c25 -10 8 -24
-29 -24 -39 0 -56 17 -23 23 13 2 26 5 30 6 3 0 13 -2 22 -5z m-2927 -20 c-3
-3 -12 -4 -19 -1 -8 3 -5 6 6 6 11 1 17 -2 13 -5z m2025 -23 c12 -14 13 -21 5
-24 -7 -2 -17 3 -24 12 -26 33 -8 44 19 12z m-2549 -13 c29 -12 65 -31 81 -42
l30 -20 -26 -7 c-37 -10 -78 0 -71 17 4 11 -6 13 -55 8 -66 -7 -65 -8 -46 54
5 17 28 15 87 -10z m2484 -13 c-15 -16 -22 -11 -13 10 3 9 10 13 16 10 6 -4 5
-11 -3 -20z m-2507 -115 l25 -7 -25 -10 c-30 -12 -60 -6 -60 13 0 15 20 17 60
4z m484 4 c9 -3 14 -10 11 -14 -6 -10 -45 -1 -45 11 0 10 12 11 34 3z m-414
-18 c0 -2 -7 -9 -15 -16 -12 -10 -15 -10 -15 4 0 9 7 16 15 16 8 0 15 -2 15
-4z m2570 -6 c0 -5 -9 -10 -20 -10 -11 0 -20 5 -20 10 0 6 9 10 20 10 11 0 20
-4 20 -10z m-3215 -20 c16 -17 16 -20 2 -26 -22 -8 -37 3 -37 27 0 24 12 24
35 -1z m-357 -21 c-20 -13 -28 -11 -22 5 3 8 12 12 21 9 12 -5 12 -7 1 -14z
m67 -9 c-3 -5 -10 -10 -16 -10 -5 0 -9 5 -9 10 0 6 7 10 16 10 8 0 12 -4 9
-10z m253 -27 c2 -9 -10 -13 -42 -13 -48 0 -63 15 -23 23 35 7 60 3 65 -10z
m596 -9 c24 -9 19 -24 -8 -24 -26 0 -40 12 -29 24 8 8 17 8 37 0z m-209 -14
c8 -13 -5 -13 -25 0 -13 8 -13 10 2 10 9 0 20 -4 23 -10z m575 -25 c7 -8 8
-15 2 -15 -5 0 -15 7 -22 15 -7 8 -8 15 -2 15 5 0 15 -7 22 -15z m80 5 c0 -5
-11 -10 -25 -10 -14 0 -25 5 -25 10 0 6 11 10 25 10 14 0 25 -4 25 -10z m-990
-20 c8 -5 11 -12 8 -16 -10 -9 -38 3 -38 16 0 12 10 13 30 0z m610 -5 c10 -12
10 -15 -4 -15 -9 0 -16 7 -16 15 0 8 2 15 4 15 2 0 9 -7 16 -15z m-942 -20 c3
-3 -13 -5 -36 -5 -40 0 -65 14 -40 23 13 4 66 -8 76 -18z m877 5 c17 -7 14 -9
-13 -9 -20 -1 -31 3 -27 9 7 12 13 12 40 0z m-595 -39 c0 -6 -4 -13 -10 -16
-5 -3 -10 1 -10 9 0 9 5 16 10 16 6 0 10 -4 10 -9z m667 -56 c20 -8 33 -18 30
-22 -8 -7 -96 17 -103 28 -8 14 33 10 73 -6z m-670 -53 c16 -10 -42 -46 -63
-38 -21 8 -17 25 9 36 28 11 39 12 54 2z m636 -49 c-7 -2 -21 -2 -30 0 -10 3
-4 5 12 5 17 0 24 -2 18 -5z m-607 -43 c15 -6 24 -13 22 -16 -8 -8 -58 7 -58
17 0 11 3 11 36 -1z"/>
<path d="M18030 4444 c0 -8 7 -22 15 -30 13 -14 15 -12 15 15 0 21 -5 31 -15
31 -8 0 -15 -7 -15 -16z"/>
</g>
</svg>
